<mxfile host="app.diagrams.net" modified="2024-07-06T12:02:08.624Z" agent="Mozilla/5.0 (Macintosh; Intel Mac OS X 10_15_7) AppleWebKit/537.36 (KHTML, like Gecko) Chrome/120.0.0.0 Whale/3.24.223.18 Safari/537.36" etag="ZMasIXeItHd9hlftL1zA" version="24.6.4" type="github">
  <diagram name="페이지-1" id="q4a4fRpmrBBrFd70YqiL">
    <mxGraphModel dx="953" dy="2640" grid="1" gridSize="10" guides="1" tooltips="1" connect="1" arrows="1" fold="1" page="1" pageScale="1" pageWidth="1169" pageHeight="827" math="0" shadow="0">
      <root>
        <mxCell id="0" />
        <mxCell id="1" parent="0" />
        <mxCell id="LJNIjv_O-m_A1Em3gIbu-1" value="" style="endArrow=classic;html=1;rounded=0;endFill=1;strokeWidth=3;" parent="1" edge="1">
          <mxGeometry width="50" height="50" relative="1" as="geometry">
            <mxPoint x="80" y="280" as="sourcePoint" />
            <mxPoint x="580" y="280" as="targetPoint" />
          </mxGeometry>
        </mxCell>
        <mxCell id="LJNIjv_O-m_A1Em3gIbu-3" value="&lt;b&gt;VIEW&lt;/b&gt;" style="text;html=1;align=center;verticalAlign=middle;whiteSpace=wrap;rounded=0;" parent="1" vertex="1">
          <mxGeometry x="20" y="280" width="60" height="30" as="geometry" />
        </mxCell>
        <mxCell id="LJNIjv_O-m_A1Em3gIbu-4" value="&lt;b&gt;CLICK&lt;/b&gt;" style="text;html=1;align=center;verticalAlign=middle;whiteSpace=wrap;rounded=0;" parent="1" vertex="1">
          <mxGeometry x="20" y="590" width="60" height="30" as="geometry" />
        </mxCell>
        <mxCell id="LJNIjv_O-m_A1Em3gIbu-12" value="1" style="text;html=1;align=center;verticalAlign=middle;whiteSpace=wrap;rounded=0;" parent="1" vertex="1">
          <mxGeometry x="110" y="280" width="20" height="30" as="geometry" />
        </mxCell>
        <mxCell id="LJNIjv_O-m_A1Em3gIbu-13" value="0" style="text;html=1;align=center;verticalAlign=middle;whiteSpace=wrap;rounded=0;" parent="1" vertex="1">
          <mxGeometry x="70" y="280" width="20" height="30" as="geometry" />
        </mxCell>
        <mxCell id="LJNIjv_O-m_A1Em3gIbu-14" value="2" style="text;html=1;align=center;verticalAlign=middle;whiteSpace=wrap;rounded=0;" parent="1" vertex="1">
          <mxGeometry x="150" y="280" width="20" height="30" as="geometry" />
        </mxCell>
        <mxCell id="LJNIjv_O-m_A1Em3gIbu-15" value="3" style="text;html=1;align=center;verticalAlign=middle;whiteSpace=wrap;rounded=0;" parent="1" vertex="1">
          <mxGeometry x="190" y="280" width="20" height="30" as="geometry" />
        </mxCell>
        <mxCell id="LJNIjv_O-m_A1Em3gIbu-16" value="4" style="text;html=1;align=center;verticalAlign=middle;whiteSpace=wrap;rounded=0;" parent="1" vertex="1">
          <mxGeometry x="230" y="280" width="20" height="30" as="geometry" />
        </mxCell>
        <mxCell id="LJNIjv_O-m_A1Em3gIbu-17" value="5" style="text;html=1;align=center;verticalAlign=middle;whiteSpace=wrap;rounded=0;" parent="1" vertex="1">
          <mxGeometry x="270" y="280" width="20" height="30" as="geometry" />
        </mxCell>
        <mxCell id="LJNIjv_O-m_A1Em3gIbu-18" value="6" style="text;html=1;align=center;verticalAlign=middle;whiteSpace=wrap;rounded=0;" parent="1" vertex="1">
          <mxGeometry x="310" y="280" width="20" height="30" as="geometry" />
        </mxCell>
        <mxCell id="LJNIjv_O-m_A1Em3gIbu-19" value="7" style="text;html=1;align=center;verticalAlign=middle;whiteSpace=wrap;rounded=0;" parent="1" vertex="1">
          <mxGeometry x="350" y="280" width="20" height="30" as="geometry" />
        </mxCell>
        <mxCell id="LJNIjv_O-m_A1Em3gIbu-20" value="8" style="text;html=1;align=center;verticalAlign=middle;whiteSpace=wrap;rounded=0;" parent="1" vertex="1">
          <mxGeometry x="390" y="280" width="20" height="30" as="geometry" />
        </mxCell>
        <mxCell id="LJNIjv_O-m_A1Em3gIbu-21" value="9" style="text;html=1;align=center;verticalAlign=middle;whiteSpace=wrap;rounded=0;" parent="1" vertex="1">
          <mxGeometry x="430" y="280" width="20" height="30" as="geometry" />
        </mxCell>
        <mxCell id="LJNIjv_O-m_A1Em3gIbu-22" value="10" style="text;html=1;align=center;verticalAlign=middle;whiteSpace=wrap;rounded=0;" parent="1" vertex="1">
          <mxGeometry x="470" y="280" width="20" height="30" as="geometry" />
        </mxCell>
        <mxCell id="LJNIjv_O-m_A1Em3gIbu-23" value="11" style="text;html=1;align=center;verticalAlign=middle;whiteSpace=wrap;rounded=0;" parent="1" vertex="1">
          <mxGeometry x="510" y="280" width="20" height="30" as="geometry" />
        </mxCell>
        <mxCell id="LJNIjv_O-m_A1Em3gIbu-24" value="12" style="text;html=1;align=center;verticalAlign=middle;whiteSpace=wrap;rounded=0;" parent="1" vertex="1">
          <mxGeometry x="550" y="280" width="20" height="30" as="geometry" />
        </mxCell>
        <mxCell id="LJNIjv_O-m_A1Em3gIbu-26" value="" style="endArrow=classic;html=1;rounded=0;endFill=1;strokeWidth=3;" parent="1" edge="1">
          <mxGeometry width="50" height="50" relative="1" as="geometry">
            <mxPoint x="80" y="590" as="sourcePoint" />
            <mxPoint x="580" y="590" as="targetPoint" />
          </mxGeometry>
        </mxCell>
        <mxCell id="LJNIjv_O-m_A1Em3gIbu-27" value="1" style="text;html=1;align=center;verticalAlign=middle;whiteSpace=wrap;rounded=0;" parent="1" vertex="1">
          <mxGeometry x="110" y="590" width="20" height="30" as="geometry" />
        </mxCell>
        <mxCell id="LJNIjv_O-m_A1Em3gIbu-28" value="0" style="text;html=1;align=center;verticalAlign=middle;whiteSpace=wrap;rounded=0;" parent="1" vertex="1">
          <mxGeometry x="70" y="590" width="20" height="30" as="geometry" />
        </mxCell>
        <mxCell id="LJNIjv_O-m_A1Em3gIbu-29" value="2" style="text;html=1;align=center;verticalAlign=middle;whiteSpace=wrap;rounded=0;" parent="1" vertex="1">
          <mxGeometry x="150" y="590" width="20" height="30" as="geometry" />
        </mxCell>
        <mxCell id="LJNIjv_O-m_A1Em3gIbu-30" value="3" style="text;html=1;align=center;verticalAlign=middle;whiteSpace=wrap;rounded=0;" parent="1" vertex="1">
          <mxGeometry x="190" y="590" width="20" height="30" as="geometry" />
        </mxCell>
        <mxCell id="LJNIjv_O-m_A1Em3gIbu-31" value="4" style="text;html=1;align=center;verticalAlign=middle;whiteSpace=wrap;rounded=0;" parent="1" vertex="1">
          <mxGeometry x="230" y="590" width="20" height="30" as="geometry" />
        </mxCell>
        <mxCell id="LJNIjv_O-m_A1Em3gIbu-32" value="5" style="text;html=1;align=center;verticalAlign=middle;whiteSpace=wrap;rounded=0;" parent="1" vertex="1">
          <mxGeometry x="270" y="590" width="20" height="30" as="geometry" />
        </mxCell>
        <mxCell id="LJNIjv_O-m_A1Em3gIbu-33" value="6" style="text;html=1;align=center;verticalAlign=middle;whiteSpace=wrap;rounded=0;" parent="1" vertex="1">
          <mxGeometry x="310" y="590" width="20" height="30" as="geometry" />
        </mxCell>
        <mxCell id="LJNIjv_O-m_A1Em3gIbu-34" value="7" style="text;html=1;align=center;verticalAlign=middle;whiteSpace=wrap;rounded=0;" parent="1" vertex="1">
          <mxGeometry x="350" y="590" width="20" height="30" as="geometry" />
        </mxCell>
        <mxCell id="LJNIjv_O-m_A1Em3gIbu-35" value="8" style="text;html=1;align=center;verticalAlign=middle;whiteSpace=wrap;rounded=0;" parent="1" vertex="1">
          <mxGeometry x="390" y="590" width="20" height="30" as="geometry" />
        </mxCell>
        <mxCell id="LJNIjv_O-m_A1Em3gIbu-36" value="9" style="text;html=1;align=center;verticalAlign=middle;whiteSpace=wrap;rounded=0;" parent="1" vertex="1">
          <mxGeometry x="430" y="590" width="20" height="30" as="geometry" />
        </mxCell>
        <mxCell id="LJNIjv_O-m_A1Em3gIbu-37" value="10" style="text;html=1;align=center;verticalAlign=middle;whiteSpace=wrap;rounded=0;" parent="1" vertex="1">
          <mxGeometry x="470" y="590" width="20" height="30" as="geometry" />
        </mxCell>
        <mxCell id="LJNIjv_O-m_A1Em3gIbu-38" value="11" style="text;html=1;align=center;verticalAlign=middle;whiteSpace=wrap;rounded=0;" parent="1" vertex="1">
          <mxGeometry x="510" y="590" width="20" height="30" as="geometry" />
        </mxCell>
        <mxCell id="LJNIjv_O-m_A1Em3gIbu-39" value="12" style="text;html=1;align=center;verticalAlign=middle;whiteSpace=wrap;rounded=0;" parent="1" vertex="1">
          <mxGeometry x="550" y="590" width="20" height="30" as="geometry" />
        </mxCell>
        <mxCell id="LJNIjv_O-m_A1Em3gIbu-40" value="A" style="ellipse;whiteSpace=wrap;html=1;aspect=fixed;fillColor=#f5f5f5;fontColor=#333333;strokeColor=#666666;" parent="1" vertex="1">
          <mxGeometry x="65" y="239" width="30" height="30" as="geometry" />
        </mxCell>
        <mxCell id="LJNIjv_O-m_A1Em3gIbu-41" value="A" style="ellipse;whiteSpace=wrap;html=1;aspect=fixed;fillColor=#f5f5f5;fontColor=#333333;strokeColor=#666666;" parent="1" vertex="1">
          <mxGeometry x="105" y="551" width="30" height="30" as="geometry" />
        </mxCell>
        <mxCell id="LJNIjv_O-m_A1Em3gIbu-42" value="B" style="ellipse;whiteSpace=wrap;html=1;aspect=fixed;fillColor=#dae8fc;strokeColor=#6c8ebf;" parent="1" vertex="1">
          <mxGeometry x="105" y="239" width="30" height="30" as="geometry" />
        </mxCell>
        <mxCell id="LJNIjv_O-m_A1Em3gIbu-43" value="B" style="ellipse;whiteSpace=wrap;html=1;aspect=fixed;fillColor=#dae8fc;strokeColor=#6c8ebf;" parent="1" vertex="1">
          <mxGeometry x="545" y="551" width="30" height="30" as="geometry" />
        </mxCell>
        <mxCell id="LJNIjv_O-m_A1Em3gIbu-44" value="C" style="ellipse;whiteSpace=wrap;html=1;aspect=fixed;fillColor=#d5e8d4;strokeColor=#82b366;" parent="1" vertex="1">
          <mxGeometry x="185" y="239" width="30" height="30" as="geometry" />
        </mxCell>
        <mxCell id="LJNIjv_O-m_A1Em3gIbu-45" value="C" style="ellipse;whiteSpace=wrap;html=1;aspect=fixed;fillColor=#d5e8d4;strokeColor=#82b366;" parent="1" vertex="1">
          <mxGeometry x="145" y="551" width="30" height="30" as="geometry" />
        </mxCell>
        <mxCell id="LJNIjv_O-m_A1Em3gIbu-46" value="D" style="ellipse;whiteSpace=wrap;html=1;aspect=fixed;fillColor=#ffe6cc;strokeColor=#d79b00;" parent="1" vertex="1">
          <mxGeometry x="225" y="239" width="30" height="30" as="geometry" />
        </mxCell>
        <mxCell id="LJNIjv_O-m_A1Em3gIbu-48" value="E" style="ellipse;whiteSpace=wrap;html=1;aspect=fixed;fillColor=#fff2cc;strokeColor=#d6b656;" parent="1" vertex="1">
          <mxGeometry x="265" y="551" width="30" height="30" as="geometry" />
        </mxCell>
        <mxCell id="LJNIjv_O-m_A1Em3gIbu-49" value="F1" style="ellipse;whiteSpace=wrap;html=1;aspect=fixed;fillColor=#f8cecc;strokeColor=#b85450;" parent="1" vertex="1">
          <mxGeometry x="305" y="239" width="30" height="30" as="geometry" />
        </mxCell>
        <mxCell id="LJNIjv_O-m_A1Em3gIbu-50" value="F2" style="ellipse;whiteSpace=wrap;html=1;aspect=fixed;fillColor=#f8cecc;strokeColor=#b85450;" parent="1" vertex="1">
          <mxGeometry x="305" y="209" width="30" height="30" as="geometry" />
        </mxCell>
        <mxCell id="LJNIjv_O-m_A1Em3gIbu-51" value="G" style="ellipse;whiteSpace=wrap;html=1;aspect=fixed;fillColor=#e1d5e7;strokeColor=#9673a6;" parent="1" vertex="1">
          <mxGeometry x="385" y="239" width="30" height="30" as="geometry" />
        </mxCell>
        <mxCell id="LJNIjv_O-m_A1Em3gIbu-52" value="F" style="ellipse;whiteSpace=wrap;html=1;aspect=fixed;fillColor=#f8cecc;strokeColor=#b85450;" parent="1" vertex="1">
          <mxGeometry x="345" y="551" width="30" height="30" as="geometry" />
        </mxCell>
        <mxCell id="LJNIjv_O-m_A1Em3gIbu-53" value="G1" style="ellipse;whiteSpace=wrap;html=1;aspect=fixed;fillColor=#e1d5e7;strokeColor=#9673a6;" parent="1" vertex="1">
          <mxGeometry x="425" y="551" width="30" height="30" as="geometry" />
        </mxCell>
        <mxCell id="LJNIjv_O-m_A1Em3gIbu-54" value="G2" style="ellipse;whiteSpace=wrap;html=1;aspect=fixed;fillColor=#e1d5e7;strokeColor=#9673a6;" parent="1" vertex="1">
          <mxGeometry x="425" y="521" width="30" height="30" as="geometry" />
        </mxCell>
        <mxCell id="u_NoSWsdKyC16Sh9KAaJ-1" value="&lt;b&gt;RESULT&lt;/b&gt;" style="text;html=1;align=center;verticalAlign=middle;whiteSpace=wrap;rounded=0;" parent="1" vertex="1">
          <mxGeometry x="20" y="710" width="60" height="30" as="geometry" />
        </mxCell>
        <mxCell id="u_NoSWsdKyC16Sh9KAaJ-2" value="" style="endArrow=classic;html=1;rounded=0;endFill=1;strokeWidth=3;" parent="1" edge="1">
          <mxGeometry width="50" height="50" relative="1" as="geometry">
            <mxPoint x="80" y="710" as="sourcePoint" />
            <mxPoint x="580" y="710" as="targetPoint" />
          </mxGeometry>
        </mxCell>
        <mxCell id="u_NoSWsdKyC16Sh9KAaJ-3" value="1" style="text;html=1;align=center;verticalAlign=middle;whiteSpace=wrap;rounded=0;" parent="1" vertex="1">
          <mxGeometry x="110" y="710" width="20" height="30" as="geometry" />
        </mxCell>
        <mxCell id="u_NoSWsdKyC16Sh9KAaJ-4" value="0" style="text;html=1;align=center;verticalAlign=middle;whiteSpace=wrap;rounded=0;" parent="1" vertex="1">
          <mxGeometry x="70" y="710" width="20" height="30" as="geometry" />
        </mxCell>
        <mxCell id="u_NoSWsdKyC16Sh9KAaJ-5" value="2" style="text;html=1;align=center;verticalAlign=middle;whiteSpace=wrap;rounded=0;" parent="1" vertex="1">
          <mxGeometry x="150" y="710" width="20" height="30" as="geometry" />
        </mxCell>
        <mxCell id="u_NoSWsdKyC16Sh9KAaJ-6" value="3" style="text;html=1;align=center;verticalAlign=middle;whiteSpace=wrap;rounded=0;" parent="1" vertex="1">
          <mxGeometry x="190" y="710" width="20" height="30" as="geometry" />
        </mxCell>
        <mxCell id="u_NoSWsdKyC16Sh9KAaJ-7" value="4" style="text;html=1;align=center;verticalAlign=middle;whiteSpace=wrap;rounded=0;" parent="1" vertex="1">
          <mxGeometry x="230" y="710" width="20" height="30" as="geometry" />
        </mxCell>
        <mxCell id="u_NoSWsdKyC16Sh9KAaJ-8" value="5" style="text;html=1;align=center;verticalAlign=middle;whiteSpace=wrap;rounded=0;" parent="1" vertex="1">
          <mxGeometry x="270" y="710" width="20" height="30" as="geometry" />
        </mxCell>
        <mxCell id="u_NoSWsdKyC16Sh9KAaJ-9" value="6" style="text;html=1;align=center;verticalAlign=middle;whiteSpace=wrap;rounded=0;" parent="1" vertex="1">
          <mxGeometry x="310" y="710" width="20" height="30" as="geometry" />
        </mxCell>
        <mxCell id="u_NoSWsdKyC16Sh9KAaJ-10" value="7" style="text;html=1;align=center;verticalAlign=middle;whiteSpace=wrap;rounded=0;" parent="1" vertex="1">
          <mxGeometry x="350" y="710" width="20" height="30" as="geometry" />
        </mxCell>
        <mxCell id="u_NoSWsdKyC16Sh9KAaJ-11" value="8" style="text;html=1;align=center;verticalAlign=middle;whiteSpace=wrap;rounded=0;" parent="1" vertex="1">
          <mxGeometry x="390" y="710" width="20" height="30" as="geometry" />
        </mxCell>
        <mxCell id="u_NoSWsdKyC16Sh9KAaJ-12" value="9" style="text;html=1;align=center;verticalAlign=middle;whiteSpace=wrap;rounded=0;" parent="1" vertex="1">
          <mxGeometry x="430" y="710" width="20" height="30" as="geometry" />
        </mxCell>
        <mxCell id="u_NoSWsdKyC16Sh9KAaJ-13" value="10" style="text;html=1;align=center;verticalAlign=middle;whiteSpace=wrap;rounded=0;" parent="1" vertex="1">
          <mxGeometry x="470" y="710" width="20" height="30" as="geometry" />
        </mxCell>
        <mxCell id="u_NoSWsdKyC16Sh9KAaJ-14" value="11" style="text;html=1;align=center;verticalAlign=middle;whiteSpace=wrap;rounded=0;" parent="1" vertex="1">
          <mxGeometry x="510" y="710" width="20" height="30" as="geometry" />
        </mxCell>
        <mxCell id="u_NoSWsdKyC16Sh9KAaJ-15" value="12" style="text;html=1;align=center;verticalAlign=middle;whiteSpace=wrap;rounded=0;" parent="1" vertex="1">
          <mxGeometry x="550" y="710" width="20" height="30" as="geometry" />
        </mxCell>
        <mxCell id="u_NoSWsdKyC16Sh9KAaJ-22" value="&lt;b&gt;&lt;font style=&quot;font-size: 15px;&quot;&gt;KStream-KTable Inner Join&lt;/font&gt;&lt;/b&gt;" style="text;html=1;align=center;verticalAlign=middle;whiteSpace=wrap;rounded=0;" parent="1" vertex="1">
          <mxGeometry x="40" y="-30" width="215" height="30" as="geometry" />
        </mxCell>
        <mxCell id="u_NoSWsdKyC16Sh9KAaJ-24" value="C, C" style="rounded=1;whiteSpace=wrap;html=1;fillColor=#d5e8d4;strokeColor=#82b366;fontSize=11;" parent="1" vertex="1">
          <mxGeometry x="180.5" y="671" width="39" height="30" as="geometry" />
        </mxCell>
        <mxCell id="u_NoSWsdKyC16Sh9KAaJ-25" value="F2, F" style="rounded=1;whiteSpace=wrap;html=1;fillColor=#f8cecc;strokeColor=#b85450;fontSize=11;" parent="1" vertex="1">
          <mxGeometry x="340.5" y="671" width="39" height="30" as="geometry" />
        </mxCell>
        <mxCell id="u_NoSWsdKyC16Sh9KAaJ-27" value="G, G1" style="rounded=1;whiteSpace=wrap;html=1;fillColor=#e1d5e7;strokeColor=#9673a6;fontSize=11;" parent="1" vertex="1">
          <mxGeometry x="420.5" y="671" width="39" height="30" as="geometry" />
        </mxCell>
        <mxCell id="u_NoSWsdKyC16Sh9KAaJ-28" value="G, G2" style="rounded=1;whiteSpace=wrap;html=1;fillColor=#e1d5e7;strokeColor=#9673a6;fontSize=11;" parent="1" vertex="1">
          <mxGeometry x="420.5" y="641" width="39" height="30" as="geometry" />
        </mxCell>
        <mxCell id="B4yupMI5Qt6oCv26n-zh-1" value="A, A" style="rounded=1;whiteSpace=wrap;html=1;fillColor=#f5f5f5;fontColor=#333333;strokeColor=#666666;fontSize=11;" parent="1" vertex="1">
          <mxGeometry x="100.5" y="671" width="39" height="30" as="geometry" />
        </mxCell>
        <mxCell id="hVdnvpaAMnHl2GTKOYZ0-4" value="B, B" style="rounded=1;whiteSpace=wrap;html=1;fillColor=#dae8fc;strokeColor=#6c8ebf;fontSize=11;" parent="1" vertex="1">
          <mxGeometry x="540.5" y="671" width="39" height="30" as="geometry" />
        </mxCell>
        <mxCell id="s3AQ3x3ffBdiTEU-oynQ-1" value="" style="shape=table;startSize=0;container=1;collapsible=0;childLayout=tableLayout;fontSize=9;" vertex="1" parent="1">
          <mxGeometry x="62.5" y="13" width="21" height="186" as="geometry" />
        </mxCell>
        <mxCell id="s3AQ3x3ffBdiTEU-oynQ-2" value="" style="shape=tableRow;horizontal=0;startSize=0;swimlaneHead=0;swimlaneBody=0;strokeColor=inherit;top=0;left=0;bottom=0;right=0;collapsible=0;dropTarget=0;fillColor=none;points=[[0,0.5],[1,0.5]];portConstraint=eastwest;fontSize=16;" vertex="1" parent="s3AQ3x3ffBdiTEU-oynQ-1">
          <mxGeometry width="21" height="31" as="geometry" />
        </mxCell>
        <mxCell id="s3AQ3x3ffBdiTEU-oynQ-3" value="A" style="shape=partialRectangle;html=1;whiteSpace=wrap;connectable=0;strokeColor=inherit;overflow=hidden;fillColor=none;top=0;left=0;bottom=0;right=0;pointerEvents=1;fontSize=12;" vertex="1" parent="s3AQ3x3ffBdiTEU-oynQ-2">
          <mxGeometry width="21" height="31" as="geometry">
            <mxRectangle width="21" height="31" as="alternateBounds" />
          </mxGeometry>
        </mxCell>
        <mxCell id="s3AQ3x3ffBdiTEU-oynQ-20" style="shape=tableRow;horizontal=0;startSize=0;swimlaneHead=0;swimlaneBody=0;strokeColor=inherit;top=0;left=0;bottom=0;right=0;collapsible=0;dropTarget=0;fillColor=none;points=[[0,0.5],[1,0.5]];portConstraint=eastwest;fontSize=16;" vertex="1" parent="s3AQ3x3ffBdiTEU-oynQ-1">
          <mxGeometry y="31" width="21" height="31" as="geometry" />
        </mxCell>
        <mxCell id="s3AQ3x3ffBdiTEU-oynQ-21" style="shape=partialRectangle;html=1;whiteSpace=wrap;connectable=0;strokeColor=inherit;overflow=hidden;fillColor=none;top=0;left=0;bottom=0;right=0;pointerEvents=1;fontSize=12;" vertex="1" parent="s3AQ3x3ffBdiTEU-oynQ-20">
          <mxGeometry width="21" height="31" as="geometry">
            <mxRectangle width="21" height="31" as="alternateBounds" />
          </mxGeometry>
        </mxCell>
        <mxCell id="s3AQ3x3ffBdiTEU-oynQ-22" style="shape=tableRow;horizontal=0;startSize=0;swimlaneHead=0;swimlaneBody=0;strokeColor=inherit;top=0;left=0;bottom=0;right=0;collapsible=0;dropTarget=0;fillColor=none;points=[[0,0.5],[1,0.5]];portConstraint=eastwest;fontSize=16;" vertex="1" parent="s3AQ3x3ffBdiTEU-oynQ-1">
          <mxGeometry y="62" width="21" height="31" as="geometry" />
        </mxCell>
        <mxCell id="s3AQ3x3ffBdiTEU-oynQ-23" style="shape=partialRectangle;html=1;whiteSpace=wrap;connectable=0;strokeColor=inherit;overflow=hidden;fillColor=none;top=0;left=0;bottom=0;right=0;pointerEvents=1;fontSize=12;" vertex="1" parent="s3AQ3x3ffBdiTEU-oynQ-22">
          <mxGeometry width="21" height="31" as="geometry">
            <mxRectangle width="21" height="31" as="alternateBounds" />
          </mxGeometry>
        </mxCell>
        <mxCell id="s3AQ3x3ffBdiTEU-oynQ-24" style="shape=tableRow;horizontal=0;startSize=0;swimlaneHead=0;swimlaneBody=0;strokeColor=inherit;top=0;left=0;bottom=0;right=0;collapsible=0;dropTarget=0;fillColor=none;points=[[0,0.5],[1,0.5]];portConstraint=eastwest;fontSize=16;" vertex="1" parent="s3AQ3x3ffBdiTEU-oynQ-1">
          <mxGeometry y="93" width="21" height="31" as="geometry" />
        </mxCell>
        <mxCell id="s3AQ3x3ffBdiTEU-oynQ-25" style="shape=partialRectangle;html=1;whiteSpace=wrap;connectable=0;strokeColor=inherit;overflow=hidden;fillColor=none;top=0;left=0;bottom=0;right=0;pointerEvents=1;fontSize=12;" vertex="1" parent="s3AQ3x3ffBdiTEU-oynQ-24">
          <mxGeometry width="21" height="31" as="geometry">
            <mxRectangle width="21" height="31" as="alternateBounds" />
          </mxGeometry>
        </mxCell>
        <mxCell id="s3AQ3x3ffBdiTEU-oynQ-26" style="shape=tableRow;horizontal=0;startSize=0;swimlaneHead=0;swimlaneBody=0;strokeColor=inherit;top=0;left=0;bottom=0;right=0;collapsible=0;dropTarget=0;fillColor=none;points=[[0,0.5],[1,0.5]];portConstraint=eastwest;fontSize=16;" vertex="1" parent="s3AQ3x3ffBdiTEU-oynQ-1">
          <mxGeometry y="124" width="21" height="31" as="geometry" />
        </mxCell>
        <mxCell id="s3AQ3x3ffBdiTEU-oynQ-27" style="shape=partialRectangle;html=1;whiteSpace=wrap;connectable=0;strokeColor=inherit;overflow=hidden;fillColor=none;top=0;left=0;bottom=0;right=0;pointerEvents=1;fontSize=12;" vertex="1" parent="s3AQ3x3ffBdiTEU-oynQ-26">
          <mxGeometry width="21" height="31" as="geometry">
            <mxRectangle width="21" height="31" as="alternateBounds" />
          </mxGeometry>
        </mxCell>
        <mxCell id="s3AQ3x3ffBdiTEU-oynQ-28" style="shape=tableRow;horizontal=0;startSize=0;swimlaneHead=0;swimlaneBody=0;strokeColor=inherit;top=0;left=0;bottom=0;right=0;collapsible=0;dropTarget=0;fillColor=none;points=[[0,0.5],[1,0.5]];portConstraint=eastwest;fontSize=16;" vertex="1" parent="s3AQ3x3ffBdiTEU-oynQ-1">
          <mxGeometry y="155" width="21" height="31" as="geometry" />
        </mxCell>
        <mxCell id="s3AQ3x3ffBdiTEU-oynQ-29" style="shape=partialRectangle;html=1;whiteSpace=wrap;connectable=0;strokeColor=inherit;overflow=hidden;fillColor=none;top=0;left=0;bottom=0;right=0;pointerEvents=1;fontSize=12;" vertex="1" parent="s3AQ3x3ffBdiTEU-oynQ-28">
          <mxGeometry width="21" height="31" as="geometry">
            <mxRectangle width="21" height="31" as="alternateBounds" />
          </mxGeometry>
        </mxCell>
        <mxCell id="s3AQ3x3ffBdiTEU-oynQ-109" value="" style="shape=table;startSize=0;container=1;collapsible=0;childLayout=tableLayout;fontSize=9;" vertex="1" parent="1">
          <mxGeometry x="109.5" y="13" width="21" height="186" as="geometry" />
        </mxCell>
        <mxCell id="s3AQ3x3ffBdiTEU-oynQ-110" value="" style="shape=tableRow;horizontal=0;startSize=0;swimlaneHead=0;swimlaneBody=0;strokeColor=inherit;top=0;left=0;bottom=0;right=0;collapsible=0;dropTarget=0;fillColor=none;points=[[0,0.5],[1,0.5]];portConstraint=eastwest;fontSize=16;" vertex="1" parent="s3AQ3x3ffBdiTEU-oynQ-109">
          <mxGeometry width="21" height="31" as="geometry" />
        </mxCell>
        <mxCell id="s3AQ3x3ffBdiTEU-oynQ-111" value="A" style="shape=partialRectangle;html=1;whiteSpace=wrap;connectable=0;strokeColor=inherit;overflow=hidden;fillColor=none;top=0;left=0;bottom=0;right=0;pointerEvents=1;fontSize=12;" vertex="1" parent="s3AQ3x3ffBdiTEU-oynQ-110">
          <mxGeometry width="21" height="31" as="geometry">
            <mxRectangle width="21" height="31" as="alternateBounds" />
          </mxGeometry>
        </mxCell>
        <mxCell id="s3AQ3x3ffBdiTEU-oynQ-112" style="shape=tableRow;horizontal=0;startSize=0;swimlaneHead=0;swimlaneBody=0;strokeColor=inherit;top=0;left=0;bottom=0;right=0;collapsible=0;dropTarget=0;fillColor=none;points=[[0,0.5],[1,0.5]];portConstraint=eastwest;fontSize=16;" vertex="1" parent="s3AQ3x3ffBdiTEU-oynQ-109">
          <mxGeometry y="31" width="21" height="31" as="geometry" />
        </mxCell>
        <mxCell id="s3AQ3x3ffBdiTEU-oynQ-113" value="B" style="shape=partialRectangle;html=1;whiteSpace=wrap;connectable=0;strokeColor=inherit;overflow=hidden;fillColor=none;top=0;left=0;bottom=0;right=0;pointerEvents=1;fontSize=12;" vertex="1" parent="s3AQ3x3ffBdiTEU-oynQ-112">
          <mxGeometry width="21" height="31" as="geometry">
            <mxRectangle width="21" height="31" as="alternateBounds" />
          </mxGeometry>
        </mxCell>
        <mxCell id="s3AQ3x3ffBdiTEU-oynQ-114" style="shape=tableRow;horizontal=0;startSize=0;swimlaneHead=0;swimlaneBody=0;strokeColor=inherit;top=0;left=0;bottom=0;right=0;collapsible=0;dropTarget=0;fillColor=none;points=[[0,0.5],[1,0.5]];portConstraint=eastwest;fontSize=16;" vertex="1" parent="s3AQ3x3ffBdiTEU-oynQ-109">
          <mxGeometry y="62" width="21" height="31" as="geometry" />
        </mxCell>
        <mxCell id="s3AQ3x3ffBdiTEU-oynQ-115" style="shape=partialRectangle;html=1;whiteSpace=wrap;connectable=0;strokeColor=inherit;overflow=hidden;fillColor=none;top=0;left=0;bottom=0;right=0;pointerEvents=1;fontSize=12;" vertex="1" parent="s3AQ3x3ffBdiTEU-oynQ-114">
          <mxGeometry width="21" height="31" as="geometry">
            <mxRectangle width="21" height="31" as="alternateBounds" />
          </mxGeometry>
        </mxCell>
        <mxCell id="s3AQ3x3ffBdiTEU-oynQ-116" style="shape=tableRow;horizontal=0;startSize=0;swimlaneHead=0;swimlaneBody=0;strokeColor=inherit;top=0;left=0;bottom=0;right=0;collapsible=0;dropTarget=0;fillColor=none;points=[[0,0.5],[1,0.5]];portConstraint=eastwest;fontSize=16;" vertex="1" parent="s3AQ3x3ffBdiTEU-oynQ-109">
          <mxGeometry y="93" width="21" height="31" as="geometry" />
        </mxCell>
        <mxCell id="s3AQ3x3ffBdiTEU-oynQ-117" style="shape=partialRectangle;html=1;whiteSpace=wrap;connectable=0;strokeColor=inherit;overflow=hidden;fillColor=none;top=0;left=0;bottom=0;right=0;pointerEvents=1;fontSize=12;" vertex="1" parent="s3AQ3x3ffBdiTEU-oynQ-116">
          <mxGeometry width="21" height="31" as="geometry">
            <mxRectangle width="21" height="31" as="alternateBounds" />
          </mxGeometry>
        </mxCell>
        <mxCell id="s3AQ3x3ffBdiTEU-oynQ-118" style="shape=tableRow;horizontal=0;startSize=0;swimlaneHead=0;swimlaneBody=0;strokeColor=inherit;top=0;left=0;bottom=0;right=0;collapsible=0;dropTarget=0;fillColor=none;points=[[0,0.5],[1,0.5]];portConstraint=eastwest;fontSize=16;" vertex="1" parent="s3AQ3x3ffBdiTEU-oynQ-109">
          <mxGeometry y="124" width="21" height="31" as="geometry" />
        </mxCell>
        <mxCell id="s3AQ3x3ffBdiTEU-oynQ-119" style="shape=partialRectangle;html=1;whiteSpace=wrap;connectable=0;strokeColor=inherit;overflow=hidden;fillColor=none;top=0;left=0;bottom=0;right=0;pointerEvents=1;fontSize=12;" vertex="1" parent="s3AQ3x3ffBdiTEU-oynQ-118">
          <mxGeometry width="21" height="31" as="geometry">
            <mxRectangle width="21" height="31" as="alternateBounds" />
          </mxGeometry>
        </mxCell>
        <mxCell id="s3AQ3x3ffBdiTEU-oynQ-120" style="shape=tableRow;horizontal=0;startSize=0;swimlaneHead=0;swimlaneBody=0;strokeColor=inherit;top=0;left=0;bottom=0;right=0;collapsible=0;dropTarget=0;fillColor=none;points=[[0,0.5],[1,0.5]];portConstraint=eastwest;fontSize=16;" vertex="1" parent="s3AQ3x3ffBdiTEU-oynQ-109">
          <mxGeometry y="155" width="21" height="31" as="geometry" />
        </mxCell>
        <mxCell id="s3AQ3x3ffBdiTEU-oynQ-121" style="shape=partialRectangle;html=1;whiteSpace=wrap;connectable=0;strokeColor=inherit;overflow=hidden;fillColor=none;top=0;left=0;bottom=0;right=0;pointerEvents=1;fontSize=12;" vertex="1" parent="s3AQ3x3ffBdiTEU-oynQ-120">
          <mxGeometry width="21" height="31" as="geometry">
            <mxRectangle width="21" height="31" as="alternateBounds" />
          </mxGeometry>
        </mxCell>
        <mxCell id="s3AQ3x3ffBdiTEU-oynQ-122" value="" style="shape=table;startSize=0;container=1;collapsible=0;childLayout=tableLayout;fontSize=9;" vertex="1" parent="1">
          <mxGeometry x="149.5" y="13" width="21" height="186" as="geometry" />
        </mxCell>
        <mxCell id="s3AQ3x3ffBdiTEU-oynQ-123" value="" style="shape=tableRow;horizontal=0;startSize=0;swimlaneHead=0;swimlaneBody=0;strokeColor=inherit;top=0;left=0;bottom=0;right=0;collapsible=0;dropTarget=0;fillColor=none;points=[[0,0.5],[1,0.5]];portConstraint=eastwest;fontSize=16;" vertex="1" parent="s3AQ3x3ffBdiTEU-oynQ-122">
          <mxGeometry width="21" height="31" as="geometry" />
        </mxCell>
        <mxCell id="s3AQ3x3ffBdiTEU-oynQ-124" value="A" style="shape=partialRectangle;html=1;whiteSpace=wrap;connectable=0;strokeColor=inherit;overflow=hidden;fillColor=none;top=0;left=0;bottom=0;right=0;pointerEvents=1;fontSize=12;" vertex="1" parent="s3AQ3x3ffBdiTEU-oynQ-123">
          <mxGeometry width="21" height="31" as="geometry">
            <mxRectangle width="21" height="31" as="alternateBounds" />
          </mxGeometry>
        </mxCell>
        <mxCell id="s3AQ3x3ffBdiTEU-oynQ-125" style="shape=tableRow;horizontal=0;startSize=0;swimlaneHead=0;swimlaneBody=0;strokeColor=inherit;top=0;left=0;bottom=0;right=0;collapsible=0;dropTarget=0;fillColor=none;points=[[0,0.5],[1,0.5]];portConstraint=eastwest;fontSize=16;" vertex="1" parent="s3AQ3x3ffBdiTEU-oynQ-122">
          <mxGeometry y="31" width="21" height="31" as="geometry" />
        </mxCell>
        <mxCell id="s3AQ3x3ffBdiTEU-oynQ-126" value="B" style="shape=partialRectangle;html=1;whiteSpace=wrap;connectable=0;strokeColor=inherit;overflow=hidden;fillColor=none;top=0;left=0;bottom=0;right=0;pointerEvents=1;fontSize=12;" vertex="1" parent="s3AQ3x3ffBdiTEU-oynQ-125">
          <mxGeometry width="21" height="31" as="geometry">
            <mxRectangle width="21" height="31" as="alternateBounds" />
          </mxGeometry>
        </mxCell>
        <mxCell id="s3AQ3x3ffBdiTEU-oynQ-127" style="shape=tableRow;horizontal=0;startSize=0;swimlaneHead=0;swimlaneBody=0;strokeColor=inherit;top=0;left=0;bottom=0;right=0;collapsible=0;dropTarget=0;fillColor=none;points=[[0,0.5],[1,0.5]];portConstraint=eastwest;fontSize=16;" vertex="1" parent="s3AQ3x3ffBdiTEU-oynQ-122">
          <mxGeometry y="62" width="21" height="31" as="geometry" />
        </mxCell>
        <mxCell id="s3AQ3x3ffBdiTEU-oynQ-128" style="shape=partialRectangle;html=1;whiteSpace=wrap;connectable=0;strokeColor=inherit;overflow=hidden;fillColor=none;top=0;left=0;bottom=0;right=0;pointerEvents=1;fontSize=12;" vertex="1" parent="s3AQ3x3ffBdiTEU-oynQ-127">
          <mxGeometry width="21" height="31" as="geometry">
            <mxRectangle width="21" height="31" as="alternateBounds" />
          </mxGeometry>
        </mxCell>
        <mxCell id="s3AQ3x3ffBdiTEU-oynQ-129" style="shape=tableRow;horizontal=0;startSize=0;swimlaneHead=0;swimlaneBody=0;strokeColor=inherit;top=0;left=0;bottom=0;right=0;collapsible=0;dropTarget=0;fillColor=none;points=[[0,0.5],[1,0.5]];portConstraint=eastwest;fontSize=16;" vertex="1" parent="s3AQ3x3ffBdiTEU-oynQ-122">
          <mxGeometry y="93" width="21" height="31" as="geometry" />
        </mxCell>
        <mxCell id="s3AQ3x3ffBdiTEU-oynQ-130" style="shape=partialRectangle;html=1;whiteSpace=wrap;connectable=0;strokeColor=inherit;overflow=hidden;fillColor=none;top=0;left=0;bottom=0;right=0;pointerEvents=1;fontSize=12;" vertex="1" parent="s3AQ3x3ffBdiTEU-oynQ-129">
          <mxGeometry width="21" height="31" as="geometry">
            <mxRectangle width="21" height="31" as="alternateBounds" />
          </mxGeometry>
        </mxCell>
        <mxCell id="s3AQ3x3ffBdiTEU-oynQ-131" style="shape=tableRow;horizontal=0;startSize=0;swimlaneHead=0;swimlaneBody=0;strokeColor=inherit;top=0;left=0;bottom=0;right=0;collapsible=0;dropTarget=0;fillColor=none;points=[[0,0.5],[1,0.5]];portConstraint=eastwest;fontSize=16;" vertex="1" parent="s3AQ3x3ffBdiTEU-oynQ-122">
          <mxGeometry y="124" width="21" height="31" as="geometry" />
        </mxCell>
        <mxCell id="s3AQ3x3ffBdiTEU-oynQ-132" style="shape=partialRectangle;html=1;whiteSpace=wrap;connectable=0;strokeColor=inherit;overflow=hidden;fillColor=none;top=0;left=0;bottom=0;right=0;pointerEvents=1;fontSize=12;" vertex="1" parent="s3AQ3x3ffBdiTEU-oynQ-131">
          <mxGeometry width="21" height="31" as="geometry">
            <mxRectangle width="21" height="31" as="alternateBounds" />
          </mxGeometry>
        </mxCell>
        <mxCell id="s3AQ3x3ffBdiTEU-oynQ-133" style="shape=tableRow;horizontal=0;startSize=0;swimlaneHead=0;swimlaneBody=0;strokeColor=inherit;top=0;left=0;bottom=0;right=0;collapsible=0;dropTarget=0;fillColor=none;points=[[0,0.5],[1,0.5]];portConstraint=eastwest;fontSize=16;" vertex="1" parent="s3AQ3x3ffBdiTEU-oynQ-122">
          <mxGeometry y="155" width="21" height="31" as="geometry" />
        </mxCell>
        <mxCell id="s3AQ3x3ffBdiTEU-oynQ-134" style="shape=partialRectangle;html=1;whiteSpace=wrap;connectable=0;strokeColor=inherit;overflow=hidden;fillColor=none;top=0;left=0;bottom=0;right=0;pointerEvents=1;fontSize=12;" vertex="1" parent="s3AQ3x3ffBdiTEU-oynQ-133">
          <mxGeometry width="21" height="31" as="geometry">
            <mxRectangle width="21" height="31" as="alternateBounds" />
          </mxGeometry>
        </mxCell>
        <mxCell id="s3AQ3x3ffBdiTEU-oynQ-135" value="" style="shape=table;startSize=0;container=1;collapsible=0;childLayout=tableLayout;fontSize=9;" vertex="1" parent="1">
          <mxGeometry x="189.5" y="13" width="21" height="186" as="geometry" />
        </mxCell>
        <mxCell id="s3AQ3x3ffBdiTEU-oynQ-136" value="" style="shape=tableRow;horizontal=0;startSize=0;swimlaneHead=0;swimlaneBody=0;strokeColor=inherit;top=0;left=0;bottom=0;right=0;collapsible=0;dropTarget=0;fillColor=none;points=[[0,0.5],[1,0.5]];portConstraint=eastwest;fontSize=16;" vertex="1" parent="s3AQ3x3ffBdiTEU-oynQ-135">
          <mxGeometry width="21" height="31" as="geometry" />
        </mxCell>
        <mxCell id="s3AQ3x3ffBdiTEU-oynQ-137" value="A" style="shape=partialRectangle;html=1;whiteSpace=wrap;connectable=0;strokeColor=inherit;overflow=hidden;fillColor=none;top=0;left=0;bottom=0;right=0;pointerEvents=1;fontSize=12;" vertex="1" parent="s3AQ3x3ffBdiTEU-oynQ-136">
          <mxGeometry width="21" height="31" as="geometry">
            <mxRectangle width="21" height="31" as="alternateBounds" />
          </mxGeometry>
        </mxCell>
        <mxCell id="s3AQ3x3ffBdiTEU-oynQ-138" style="shape=tableRow;horizontal=0;startSize=0;swimlaneHead=0;swimlaneBody=0;strokeColor=inherit;top=0;left=0;bottom=0;right=0;collapsible=0;dropTarget=0;fillColor=none;points=[[0,0.5],[1,0.5]];portConstraint=eastwest;fontSize=16;" vertex="1" parent="s3AQ3x3ffBdiTEU-oynQ-135">
          <mxGeometry y="31" width="21" height="31" as="geometry" />
        </mxCell>
        <mxCell id="s3AQ3x3ffBdiTEU-oynQ-139" value="B" style="shape=partialRectangle;html=1;whiteSpace=wrap;connectable=0;strokeColor=inherit;overflow=hidden;fillColor=none;top=0;left=0;bottom=0;right=0;pointerEvents=1;fontSize=12;" vertex="1" parent="s3AQ3x3ffBdiTEU-oynQ-138">
          <mxGeometry width="21" height="31" as="geometry">
            <mxRectangle width="21" height="31" as="alternateBounds" />
          </mxGeometry>
        </mxCell>
        <mxCell id="s3AQ3x3ffBdiTEU-oynQ-140" style="shape=tableRow;horizontal=0;startSize=0;swimlaneHead=0;swimlaneBody=0;strokeColor=inherit;top=0;left=0;bottom=0;right=0;collapsible=0;dropTarget=0;fillColor=none;points=[[0,0.5],[1,0.5]];portConstraint=eastwest;fontSize=16;" vertex="1" parent="s3AQ3x3ffBdiTEU-oynQ-135">
          <mxGeometry y="62" width="21" height="31" as="geometry" />
        </mxCell>
        <mxCell id="s3AQ3x3ffBdiTEU-oynQ-141" value="C" style="shape=partialRectangle;html=1;whiteSpace=wrap;connectable=0;strokeColor=inherit;overflow=hidden;fillColor=none;top=0;left=0;bottom=0;right=0;pointerEvents=1;fontSize=12;" vertex="1" parent="s3AQ3x3ffBdiTEU-oynQ-140">
          <mxGeometry width="21" height="31" as="geometry">
            <mxRectangle width="21" height="31" as="alternateBounds" />
          </mxGeometry>
        </mxCell>
        <mxCell id="s3AQ3x3ffBdiTEU-oynQ-142" style="shape=tableRow;horizontal=0;startSize=0;swimlaneHead=0;swimlaneBody=0;strokeColor=inherit;top=0;left=0;bottom=0;right=0;collapsible=0;dropTarget=0;fillColor=none;points=[[0,0.5],[1,0.5]];portConstraint=eastwest;fontSize=16;" vertex="1" parent="s3AQ3x3ffBdiTEU-oynQ-135">
          <mxGeometry y="93" width="21" height="31" as="geometry" />
        </mxCell>
        <mxCell id="s3AQ3x3ffBdiTEU-oynQ-143" style="shape=partialRectangle;html=1;whiteSpace=wrap;connectable=0;strokeColor=inherit;overflow=hidden;fillColor=none;top=0;left=0;bottom=0;right=0;pointerEvents=1;fontSize=12;" vertex="1" parent="s3AQ3x3ffBdiTEU-oynQ-142">
          <mxGeometry width="21" height="31" as="geometry">
            <mxRectangle width="21" height="31" as="alternateBounds" />
          </mxGeometry>
        </mxCell>
        <mxCell id="s3AQ3x3ffBdiTEU-oynQ-144" style="shape=tableRow;horizontal=0;startSize=0;swimlaneHead=0;swimlaneBody=0;strokeColor=inherit;top=0;left=0;bottom=0;right=0;collapsible=0;dropTarget=0;fillColor=none;points=[[0,0.5],[1,0.5]];portConstraint=eastwest;fontSize=16;" vertex="1" parent="s3AQ3x3ffBdiTEU-oynQ-135">
          <mxGeometry y="124" width="21" height="31" as="geometry" />
        </mxCell>
        <mxCell id="s3AQ3x3ffBdiTEU-oynQ-145" style="shape=partialRectangle;html=1;whiteSpace=wrap;connectable=0;strokeColor=inherit;overflow=hidden;fillColor=none;top=0;left=0;bottom=0;right=0;pointerEvents=1;fontSize=12;" vertex="1" parent="s3AQ3x3ffBdiTEU-oynQ-144">
          <mxGeometry width="21" height="31" as="geometry">
            <mxRectangle width="21" height="31" as="alternateBounds" />
          </mxGeometry>
        </mxCell>
        <mxCell id="s3AQ3x3ffBdiTEU-oynQ-146" style="shape=tableRow;horizontal=0;startSize=0;swimlaneHead=0;swimlaneBody=0;strokeColor=inherit;top=0;left=0;bottom=0;right=0;collapsible=0;dropTarget=0;fillColor=none;points=[[0,0.5],[1,0.5]];portConstraint=eastwest;fontSize=16;" vertex="1" parent="s3AQ3x3ffBdiTEU-oynQ-135">
          <mxGeometry y="155" width="21" height="31" as="geometry" />
        </mxCell>
        <mxCell id="s3AQ3x3ffBdiTEU-oynQ-147" style="shape=partialRectangle;html=1;whiteSpace=wrap;connectable=0;strokeColor=inherit;overflow=hidden;fillColor=none;top=0;left=0;bottom=0;right=0;pointerEvents=1;fontSize=12;" vertex="1" parent="s3AQ3x3ffBdiTEU-oynQ-146">
          <mxGeometry width="21" height="31" as="geometry">
            <mxRectangle width="21" height="31" as="alternateBounds" />
          </mxGeometry>
        </mxCell>
        <mxCell id="s3AQ3x3ffBdiTEU-oynQ-148" value="" style="shape=table;startSize=0;container=1;collapsible=0;childLayout=tableLayout;fontSize=9;" vertex="1" parent="1">
          <mxGeometry x="229.5" y="13" width="21" height="186" as="geometry" />
        </mxCell>
        <mxCell id="s3AQ3x3ffBdiTEU-oynQ-149" value="" style="shape=tableRow;horizontal=0;startSize=0;swimlaneHead=0;swimlaneBody=0;strokeColor=inherit;top=0;left=0;bottom=0;right=0;collapsible=0;dropTarget=0;fillColor=none;points=[[0,0.5],[1,0.5]];portConstraint=eastwest;fontSize=16;" vertex="1" parent="s3AQ3x3ffBdiTEU-oynQ-148">
          <mxGeometry width="21" height="31" as="geometry" />
        </mxCell>
        <mxCell id="s3AQ3x3ffBdiTEU-oynQ-150" value="A" style="shape=partialRectangle;html=1;whiteSpace=wrap;connectable=0;strokeColor=inherit;overflow=hidden;fillColor=none;top=0;left=0;bottom=0;right=0;pointerEvents=1;fontSize=12;" vertex="1" parent="s3AQ3x3ffBdiTEU-oynQ-149">
          <mxGeometry width="21" height="31" as="geometry">
            <mxRectangle width="21" height="31" as="alternateBounds" />
          </mxGeometry>
        </mxCell>
        <mxCell id="s3AQ3x3ffBdiTEU-oynQ-151" style="shape=tableRow;horizontal=0;startSize=0;swimlaneHead=0;swimlaneBody=0;strokeColor=inherit;top=0;left=0;bottom=0;right=0;collapsible=0;dropTarget=0;fillColor=none;points=[[0,0.5],[1,0.5]];portConstraint=eastwest;fontSize=16;" vertex="1" parent="s3AQ3x3ffBdiTEU-oynQ-148">
          <mxGeometry y="31" width="21" height="31" as="geometry" />
        </mxCell>
        <mxCell id="s3AQ3x3ffBdiTEU-oynQ-152" value="B" style="shape=partialRectangle;html=1;whiteSpace=wrap;connectable=0;strokeColor=inherit;overflow=hidden;fillColor=none;top=0;left=0;bottom=0;right=0;pointerEvents=1;fontSize=12;" vertex="1" parent="s3AQ3x3ffBdiTEU-oynQ-151">
          <mxGeometry width="21" height="31" as="geometry">
            <mxRectangle width="21" height="31" as="alternateBounds" />
          </mxGeometry>
        </mxCell>
        <mxCell id="s3AQ3x3ffBdiTEU-oynQ-153" style="shape=tableRow;horizontal=0;startSize=0;swimlaneHead=0;swimlaneBody=0;strokeColor=inherit;top=0;left=0;bottom=0;right=0;collapsible=0;dropTarget=0;fillColor=none;points=[[0,0.5],[1,0.5]];portConstraint=eastwest;fontSize=16;" vertex="1" parent="s3AQ3x3ffBdiTEU-oynQ-148">
          <mxGeometry y="62" width="21" height="31" as="geometry" />
        </mxCell>
        <mxCell id="s3AQ3x3ffBdiTEU-oynQ-154" value="C" style="shape=partialRectangle;html=1;whiteSpace=wrap;connectable=0;strokeColor=inherit;overflow=hidden;fillColor=none;top=0;left=0;bottom=0;right=0;pointerEvents=1;fontSize=12;" vertex="1" parent="s3AQ3x3ffBdiTEU-oynQ-153">
          <mxGeometry width="21" height="31" as="geometry">
            <mxRectangle width="21" height="31" as="alternateBounds" />
          </mxGeometry>
        </mxCell>
        <mxCell id="s3AQ3x3ffBdiTEU-oynQ-155" style="shape=tableRow;horizontal=0;startSize=0;swimlaneHead=0;swimlaneBody=0;strokeColor=inherit;top=0;left=0;bottom=0;right=0;collapsible=0;dropTarget=0;fillColor=none;points=[[0,0.5],[1,0.5]];portConstraint=eastwest;fontSize=16;" vertex="1" parent="s3AQ3x3ffBdiTEU-oynQ-148">
          <mxGeometry y="93" width="21" height="31" as="geometry" />
        </mxCell>
        <mxCell id="s3AQ3x3ffBdiTEU-oynQ-156" value="D" style="shape=partialRectangle;html=1;whiteSpace=wrap;connectable=0;strokeColor=inherit;overflow=hidden;fillColor=none;top=0;left=0;bottom=0;right=0;pointerEvents=1;fontSize=12;" vertex="1" parent="s3AQ3x3ffBdiTEU-oynQ-155">
          <mxGeometry width="21" height="31" as="geometry">
            <mxRectangle width="21" height="31" as="alternateBounds" />
          </mxGeometry>
        </mxCell>
        <mxCell id="s3AQ3x3ffBdiTEU-oynQ-157" style="shape=tableRow;horizontal=0;startSize=0;swimlaneHead=0;swimlaneBody=0;strokeColor=inherit;top=0;left=0;bottom=0;right=0;collapsible=0;dropTarget=0;fillColor=none;points=[[0,0.5],[1,0.5]];portConstraint=eastwest;fontSize=16;" vertex="1" parent="s3AQ3x3ffBdiTEU-oynQ-148">
          <mxGeometry y="124" width="21" height="31" as="geometry" />
        </mxCell>
        <mxCell id="s3AQ3x3ffBdiTEU-oynQ-158" style="shape=partialRectangle;html=1;whiteSpace=wrap;connectable=0;strokeColor=inherit;overflow=hidden;fillColor=none;top=0;left=0;bottom=0;right=0;pointerEvents=1;fontSize=12;" vertex="1" parent="s3AQ3x3ffBdiTEU-oynQ-157">
          <mxGeometry width="21" height="31" as="geometry">
            <mxRectangle width="21" height="31" as="alternateBounds" />
          </mxGeometry>
        </mxCell>
        <mxCell id="s3AQ3x3ffBdiTEU-oynQ-159" style="shape=tableRow;horizontal=0;startSize=0;swimlaneHead=0;swimlaneBody=0;strokeColor=inherit;top=0;left=0;bottom=0;right=0;collapsible=0;dropTarget=0;fillColor=none;points=[[0,0.5],[1,0.5]];portConstraint=eastwest;fontSize=16;" vertex="1" parent="s3AQ3x3ffBdiTEU-oynQ-148">
          <mxGeometry y="155" width="21" height="31" as="geometry" />
        </mxCell>
        <mxCell id="s3AQ3x3ffBdiTEU-oynQ-160" style="shape=partialRectangle;html=1;whiteSpace=wrap;connectable=0;strokeColor=inherit;overflow=hidden;fillColor=none;top=0;left=0;bottom=0;right=0;pointerEvents=1;fontSize=12;" vertex="1" parent="s3AQ3x3ffBdiTEU-oynQ-159">
          <mxGeometry width="21" height="31" as="geometry">
            <mxRectangle width="21" height="31" as="alternateBounds" />
          </mxGeometry>
        </mxCell>
        <mxCell id="s3AQ3x3ffBdiTEU-oynQ-161" value="" style="shape=table;startSize=0;container=1;collapsible=0;childLayout=tableLayout;fontSize=9;" vertex="1" parent="1">
          <mxGeometry x="269.5" y="13" width="21" height="186" as="geometry" />
        </mxCell>
        <mxCell id="s3AQ3x3ffBdiTEU-oynQ-162" value="" style="shape=tableRow;horizontal=0;startSize=0;swimlaneHead=0;swimlaneBody=0;strokeColor=inherit;top=0;left=0;bottom=0;right=0;collapsible=0;dropTarget=0;fillColor=none;points=[[0,0.5],[1,0.5]];portConstraint=eastwest;fontSize=16;" vertex="1" parent="s3AQ3x3ffBdiTEU-oynQ-161">
          <mxGeometry width="21" height="31" as="geometry" />
        </mxCell>
        <mxCell id="s3AQ3x3ffBdiTEU-oynQ-163" value="A" style="shape=partialRectangle;html=1;whiteSpace=wrap;connectable=0;strokeColor=inherit;overflow=hidden;fillColor=none;top=0;left=0;bottom=0;right=0;pointerEvents=1;fontSize=12;" vertex="1" parent="s3AQ3x3ffBdiTEU-oynQ-162">
          <mxGeometry width="21" height="31" as="geometry">
            <mxRectangle width="21" height="31" as="alternateBounds" />
          </mxGeometry>
        </mxCell>
        <mxCell id="s3AQ3x3ffBdiTEU-oynQ-164" style="shape=tableRow;horizontal=0;startSize=0;swimlaneHead=0;swimlaneBody=0;strokeColor=inherit;top=0;left=0;bottom=0;right=0;collapsible=0;dropTarget=0;fillColor=none;points=[[0,0.5],[1,0.5]];portConstraint=eastwest;fontSize=16;" vertex="1" parent="s3AQ3x3ffBdiTEU-oynQ-161">
          <mxGeometry y="31" width="21" height="31" as="geometry" />
        </mxCell>
        <mxCell id="s3AQ3x3ffBdiTEU-oynQ-165" value="B" style="shape=partialRectangle;html=1;whiteSpace=wrap;connectable=0;strokeColor=inherit;overflow=hidden;fillColor=none;top=0;left=0;bottom=0;right=0;pointerEvents=1;fontSize=12;" vertex="1" parent="s3AQ3x3ffBdiTEU-oynQ-164">
          <mxGeometry width="21" height="31" as="geometry">
            <mxRectangle width="21" height="31" as="alternateBounds" />
          </mxGeometry>
        </mxCell>
        <mxCell id="s3AQ3x3ffBdiTEU-oynQ-166" style="shape=tableRow;horizontal=0;startSize=0;swimlaneHead=0;swimlaneBody=0;strokeColor=inherit;top=0;left=0;bottom=0;right=0;collapsible=0;dropTarget=0;fillColor=none;points=[[0,0.5],[1,0.5]];portConstraint=eastwest;fontSize=16;" vertex="1" parent="s3AQ3x3ffBdiTEU-oynQ-161">
          <mxGeometry y="62" width="21" height="31" as="geometry" />
        </mxCell>
        <mxCell id="s3AQ3x3ffBdiTEU-oynQ-167" value="C" style="shape=partialRectangle;html=1;whiteSpace=wrap;connectable=0;strokeColor=inherit;overflow=hidden;fillColor=none;top=0;left=0;bottom=0;right=0;pointerEvents=1;fontSize=12;" vertex="1" parent="s3AQ3x3ffBdiTEU-oynQ-166">
          <mxGeometry width="21" height="31" as="geometry">
            <mxRectangle width="21" height="31" as="alternateBounds" />
          </mxGeometry>
        </mxCell>
        <mxCell id="s3AQ3x3ffBdiTEU-oynQ-168" style="shape=tableRow;horizontal=0;startSize=0;swimlaneHead=0;swimlaneBody=0;strokeColor=inherit;top=0;left=0;bottom=0;right=0;collapsible=0;dropTarget=0;fillColor=none;points=[[0,0.5],[1,0.5]];portConstraint=eastwest;fontSize=16;" vertex="1" parent="s3AQ3x3ffBdiTEU-oynQ-161">
          <mxGeometry y="93" width="21" height="31" as="geometry" />
        </mxCell>
        <mxCell id="s3AQ3x3ffBdiTEU-oynQ-169" value="D" style="shape=partialRectangle;html=1;whiteSpace=wrap;connectable=0;strokeColor=inherit;overflow=hidden;fillColor=none;top=0;left=0;bottom=0;right=0;pointerEvents=1;fontSize=12;" vertex="1" parent="s3AQ3x3ffBdiTEU-oynQ-168">
          <mxGeometry width="21" height="31" as="geometry">
            <mxRectangle width="21" height="31" as="alternateBounds" />
          </mxGeometry>
        </mxCell>
        <mxCell id="s3AQ3x3ffBdiTEU-oynQ-170" style="shape=tableRow;horizontal=0;startSize=0;swimlaneHead=0;swimlaneBody=0;strokeColor=inherit;top=0;left=0;bottom=0;right=0;collapsible=0;dropTarget=0;fillColor=none;points=[[0,0.5],[1,0.5]];portConstraint=eastwest;fontSize=16;" vertex="1" parent="s3AQ3x3ffBdiTEU-oynQ-161">
          <mxGeometry y="124" width="21" height="31" as="geometry" />
        </mxCell>
        <mxCell id="s3AQ3x3ffBdiTEU-oynQ-171" style="shape=partialRectangle;html=1;whiteSpace=wrap;connectable=0;strokeColor=inherit;overflow=hidden;fillColor=none;top=0;left=0;bottom=0;right=0;pointerEvents=1;fontSize=12;" vertex="1" parent="s3AQ3x3ffBdiTEU-oynQ-170">
          <mxGeometry width="21" height="31" as="geometry">
            <mxRectangle width="21" height="31" as="alternateBounds" />
          </mxGeometry>
        </mxCell>
        <mxCell id="s3AQ3x3ffBdiTEU-oynQ-172" style="shape=tableRow;horizontal=0;startSize=0;swimlaneHead=0;swimlaneBody=0;strokeColor=inherit;top=0;left=0;bottom=0;right=0;collapsible=0;dropTarget=0;fillColor=none;points=[[0,0.5],[1,0.5]];portConstraint=eastwest;fontSize=16;" vertex="1" parent="s3AQ3x3ffBdiTEU-oynQ-161">
          <mxGeometry y="155" width="21" height="31" as="geometry" />
        </mxCell>
        <mxCell id="s3AQ3x3ffBdiTEU-oynQ-173" style="shape=partialRectangle;html=1;whiteSpace=wrap;connectable=0;strokeColor=inherit;overflow=hidden;fillColor=none;top=0;left=0;bottom=0;right=0;pointerEvents=1;fontSize=12;" vertex="1" parent="s3AQ3x3ffBdiTEU-oynQ-172">
          <mxGeometry width="21" height="31" as="geometry">
            <mxRectangle width="21" height="31" as="alternateBounds" />
          </mxGeometry>
        </mxCell>
        <mxCell id="s3AQ3x3ffBdiTEU-oynQ-174" value="" style="shape=table;startSize=0;container=1;collapsible=0;childLayout=tableLayout;fontSize=9;" vertex="1" parent="1">
          <mxGeometry x="299.5" y="13" width="21" height="186" as="geometry" />
        </mxCell>
        <mxCell id="s3AQ3x3ffBdiTEU-oynQ-175" value="" style="shape=tableRow;horizontal=0;startSize=0;swimlaneHead=0;swimlaneBody=0;strokeColor=inherit;top=0;left=0;bottom=0;right=0;collapsible=0;dropTarget=0;fillColor=none;points=[[0,0.5],[1,0.5]];portConstraint=eastwest;fontSize=16;" vertex="1" parent="s3AQ3x3ffBdiTEU-oynQ-174">
          <mxGeometry width="21" height="31" as="geometry" />
        </mxCell>
        <mxCell id="s3AQ3x3ffBdiTEU-oynQ-176" value="A" style="shape=partialRectangle;html=1;whiteSpace=wrap;connectable=0;strokeColor=inherit;overflow=hidden;fillColor=none;top=0;left=0;bottom=0;right=0;pointerEvents=1;fontSize=12;" vertex="1" parent="s3AQ3x3ffBdiTEU-oynQ-175">
          <mxGeometry width="21" height="31" as="geometry">
            <mxRectangle width="21" height="31" as="alternateBounds" />
          </mxGeometry>
        </mxCell>
        <mxCell id="s3AQ3x3ffBdiTEU-oynQ-177" style="shape=tableRow;horizontal=0;startSize=0;swimlaneHead=0;swimlaneBody=0;strokeColor=inherit;top=0;left=0;bottom=0;right=0;collapsible=0;dropTarget=0;fillColor=none;points=[[0,0.5],[1,0.5]];portConstraint=eastwest;fontSize=16;" vertex="1" parent="s3AQ3x3ffBdiTEU-oynQ-174">
          <mxGeometry y="31" width="21" height="31" as="geometry" />
        </mxCell>
        <mxCell id="s3AQ3x3ffBdiTEU-oynQ-178" value="B" style="shape=partialRectangle;html=1;whiteSpace=wrap;connectable=0;strokeColor=inherit;overflow=hidden;fillColor=none;top=0;left=0;bottom=0;right=0;pointerEvents=1;fontSize=12;" vertex="1" parent="s3AQ3x3ffBdiTEU-oynQ-177">
          <mxGeometry width="21" height="31" as="geometry">
            <mxRectangle width="21" height="31" as="alternateBounds" />
          </mxGeometry>
        </mxCell>
        <mxCell id="s3AQ3x3ffBdiTEU-oynQ-179" style="shape=tableRow;horizontal=0;startSize=0;swimlaneHead=0;swimlaneBody=0;strokeColor=inherit;top=0;left=0;bottom=0;right=0;collapsible=0;dropTarget=0;fillColor=none;points=[[0,0.5],[1,0.5]];portConstraint=eastwest;fontSize=16;" vertex="1" parent="s3AQ3x3ffBdiTEU-oynQ-174">
          <mxGeometry y="62" width="21" height="31" as="geometry" />
        </mxCell>
        <mxCell id="s3AQ3x3ffBdiTEU-oynQ-180" value="C" style="shape=partialRectangle;html=1;whiteSpace=wrap;connectable=0;strokeColor=inherit;overflow=hidden;fillColor=none;top=0;left=0;bottom=0;right=0;pointerEvents=1;fontSize=12;" vertex="1" parent="s3AQ3x3ffBdiTEU-oynQ-179">
          <mxGeometry width="21" height="31" as="geometry">
            <mxRectangle width="21" height="31" as="alternateBounds" />
          </mxGeometry>
        </mxCell>
        <mxCell id="s3AQ3x3ffBdiTEU-oynQ-181" style="shape=tableRow;horizontal=0;startSize=0;swimlaneHead=0;swimlaneBody=0;strokeColor=inherit;top=0;left=0;bottom=0;right=0;collapsible=0;dropTarget=0;fillColor=none;points=[[0,0.5],[1,0.5]];portConstraint=eastwest;fontSize=16;" vertex="1" parent="s3AQ3x3ffBdiTEU-oynQ-174">
          <mxGeometry y="93" width="21" height="31" as="geometry" />
        </mxCell>
        <mxCell id="s3AQ3x3ffBdiTEU-oynQ-182" value="D" style="shape=partialRectangle;html=1;whiteSpace=wrap;connectable=0;strokeColor=inherit;overflow=hidden;fillColor=none;top=0;left=0;bottom=0;right=0;pointerEvents=1;fontSize=12;" vertex="1" parent="s3AQ3x3ffBdiTEU-oynQ-181">
          <mxGeometry width="21" height="31" as="geometry">
            <mxRectangle width="21" height="31" as="alternateBounds" />
          </mxGeometry>
        </mxCell>
        <mxCell id="s3AQ3x3ffBdiTEU-oynQ-183" style="shape=tableRow;horizontal=0;startSize=0;swimlaneHead=0;swimlaneBody=0;strokeColor=inherit;top=0;left=0;bottom=0;right=0;collapsible=0;dropTarget=0;fillColor=none;points=[[0,0.5],[1,0.5]];portConstraint=eastwest;fontSize=16;" vertex="1" parent="s3AQ3x3ffBdiTEU-oynQ-174">
          <mxGeometry y="124" width="21" height="31" as="geometry" />
        </mxCell>
        <mxCell id="s3AQ3x3ffBdiTEU-oynQ-184" value="&lt;div&gt;F1&lt;/div&gt;" style="shape=partialRectangle;html=1;whiteSpace=wrap;connectable=0;strokeColor=inherit;overflow=hidden;fillColor=none;top=0;left=0;bottom=0;right=0;pointerEvents=1;fontSize=12;" vertex="1" parent="s3AQ3x3ffBdiTEU-oynQ-183">
          <mxGeometry width="21" height="31" as="geometry">
            <mxRectangle width="21" height="31" as="alternateBounds" />
          </mxGeometry>
        </mxCell>
        <mxCell id="s3AQ3x3ffBdiTEU-oynQ-185" style="shape=tableRow;horizontal=0;startSize=0;swimlaneHead=0;swimlaneBody=0;strokeColor=inherit;top=0;left=0;bottom=0;right=0;collapsible=0;dropTarget=0;fillColor=none;points=[[0,0.5],[1,0.5]];portConstraint=eastwest;fontSize=16;" vertex="1" parent="s3AQ3x3ffBdiTEU-oynQ-174">
          <mxGeometry y="155" width="21" height="31" as="geometry" />
        </mxCell>
        <mxCell id="s3AQ3x3ffBdiTEU-oynQ-186" style="shape=partialRectangle;html=1;whiteSpace=wrap;connectable=0;strokeColor=inherit;overflow=hidden;fillColor=none;top=0;left=0;bottom=0;right=0;pointerEvents=1;fontSize=12;" vertex="1" parent="s3AQ3x3ffBdiTEU-oynQ-185">
          <mxGeometry width="21" height="31" as="geometry">
            <mxRectangle width="21" height="31" as="alternateBounds" />
          </mxGeometry>
        </mxCell>
        <mxCell id="s3AQ3x3ffBdiTEU-oynQ-187" value="" style="shape=table;startSize=0;container=1;collapsible=0;childLayout=tableLayout;fontSize=9;" vertex="1" parent="1">
          <mxGeometry x="320.5" y="13" width="21" height="186" as="geometry" />
        </mxCell>
        <mxCell id="s3AQ3x3ffBdiTEU-oynQ-188" value="" style="shape=tableRow;horizontal=0;startSize=0;swimlaneHead=0;swimlaneBody=0;strokeColor=inherit;top=0;left=0;bottom=0;right=0;collapsible=0;dropTarget=0;fillColor=none;points=[[0,0.5],[1,0.5]];portConstraint=eastwest;fontSize=16;" vertex="1" parent="s3AQ3x3ffBdiTEU-oynQ-187">
          <mxGeometry width="21" height="31" as="geometry" />
        </mxCell>
        <mxCell id="s3AQ3x3ffBdiTEU-oynQ-189" value="A" style="shape=partialRectangle;html=1;whiteSpace=wrap;connectable=0;strokeColor=inherit;overflow=hidden;fillColor=none;top=0;left=0;bottom=0;right=0;pointerEvents=1;fontSize=12;" vertex="1" parent="s3AQ3x3ffBdiTEU-oynQ-188">
          <mxGeometry width="21" height="31" as="geometry">
            <mxRectangle width="21" height="31" as="alternateBounds" />
          </mxGeometry>
        </mxCell>
        <mxCell id="s3AQ3x3ffBdiTEU-oynQ-190" style="shape=tableRow;horizontal=0;startSize=0;swimlaneHead=0;swimlaneBody=0;strokeColor=inherit;top=0;left=0;bottom=0;right=0;collapsible=0;dropTarget=0;fillColor=none;points=[[0,0.5],[1,0.5]];portConstraint=eastwest;fontSize=16;" vertex="1" parent="s3AQ3x3ffBdiTEU-oynQ-187">
          <mxGeometry y="31" width="21" height="31" as="geometry" />
        </mxCell>
        <mxCell id="s3AQ3x3ffBdiTEU-oynQ-191" value="B" style="shape=partialRectangle;html=1;whiteSpace=wrap;connectable=0;strokeColor=inherit;overflow=hidden;fillColor=none;top=0;left=0;bottom=0;right=0;pointerEvents=1;fontSize=12;" vertex="1" parent="s3AQ3x3ffBdiTEU-oynQ-190">
          <mxGeometry width="21" height="31" as="geometry">
            <mxRectangle width="21" height="31" as="alternateBounds" />
          </mxGeometry>
        </mxCell>
        <mxCell id="s3AQ3x3ffBdiTEU-oynQ-192" style="shape=tableRow;horizontal=0;startSize=0;swimlaneHead=0;swimlaneBody=0;strokeColor=inherit;top=0;left=0;bottom=0;right=0;collapsible=0;dropTarget=0;fillColor=none;points=[[0,0.5],[1,0.5]];portConstraint=eastwest;fontSize=16;" vertex="1" parent="s3AQ3x3ffBdiTEU-oynQ-187">
          <mxGeometry y="62" width="21" height="31" as="geometry" />
        </mxCell>
        <mxCell id="s3AQ3x3ffBdiTEU-oynQ-193" value="C" style="shape=partialRectangle;html=1;whiteSpace=wrap;connectable=0;strokeColor=inherit;overflow=hidden;fillColor=none;top=0;left=0;bottom=0;right=0;pointerEvents=1;fontSize=12;" vertex="1" parent="s3AQ3x3ffBdiTEU-oynQ-192">
          <mxGeometry width="21" height="31" as="geometry">
            <mxRectangle width="21" height="31" as="alternateBounds" />
          </mxGeometry>
        </mxCell>
        <mxCell id="s3AQ3x3ffBdiTEU-oynQ-194" style="shape=tableRow;horizontal=0;startSize=0;swimlaneHead=0;swimlaneBody=0;strokeColor=inherit;top=0;left=0;bottom=0;right=0;collapsible=0;dropTarget=0;fillColor=none;points=[[0,0.5],[1,0.5]];portConstraint=eastwest;fontSize=16;" vertex="1" parent="s3AQ3x3ffBdiTEU-oynQ-187">
          <mxGeometry y="93" width="21" height="31" as="geometry" />
        </mxCell>
        <mxCell id="s3AQ3x3ffBdiTEU-oynQ-195" value="D" style="shape=partialRectangle;html=1;whiteSpace=wrap;connectable=0;strokeColor=inherit;overflow=hidden;fillColor=none;top=0;left=0;bottom=0;right=0;pointerEvents=1;fontSize=12;" vertex="1" parent="s3AQ3x3ffBdiTEU-oynQ-194">
          <mxGeometry width="21" height="31" as="geometry">
            <mxRectangle width="21" height="31" as="alternateBounds" />
          </mxGeometry>
        </mxCell>
        <mxCell id="s3AQ3x3ffBdiTEU-oynQ-196" style="shape=tableRow;horizontal=0;startSize=0;swimlaneHead=0;swimlaneBody=0;strokeColor=inherit;top=0;left=0;bottom=0;right=0;collapsible=0;dropTarget=0;fillColor=none;points=[[0,0.5],[1,0.5]];portConstraint=eastwest;fontSize=16;" vertex="1" parent="s3AQ3x3ffBdiTEU-oynQ-187">
          <mxGeometry y="124" width="21" height="31" as="geometry" />
        </mxCell>
        <mxCell id="s3AQ3x3ffBdiTEU-oynQ-197" value="&lt;div&gt;F2&lt;/div&gt;" style="shape=partialRectangle;html=1;whiteSpace=wrap;connectable=0;strokeColor=inherit;overflow=hidden;fillColor=none;top=0;left=0;bottom=0;right=0;pointerEvents=1;fontSize=12;" vertex="1" parent="s3AQ3x3ffBdiTEU-oynQ-196">
          <mxGeometry width="21" height="31" as="geometry">
            <mxRectangle width="21" height="31" as="alternateBounds" />
          </mxGeometry>
        </mxCell>
        <mxCell id="s3AQ3x3ffBdiTEU-oynQ-198" style="shape=tableRow;horizontal=0;startSize=0;swimlaneHead=0;swimlaneBody=0;strokeColor=inherit;top=0;left=0;bottom=0;right=0;collapsible=0;dropTarget=0;fillColor=none;points=[[0,0.5],[1,0.5]];portConstraint=eastwest;fontSize=16;" vertex="1" parent="s3AQ3x3ffBdiTEU-oynQ-187">
          <mxGeometry y="155" width="21" height="31" as="geometry" />
        </mxCell>
        <mxCell id="s3AQ3x3ffBdiTEU-oynQ-199" style="shape=partialRectangle;html=1;whiteSpace=wrap;connectable=0;strokeColor=inherit;overflow=hidden;fillColor=none;top=0;left=0;bottom=0;right=0;pointerEvents=1;fontSize=12;" vertex="1" parent="s3AQ3x3ffBdiTEU-oynQ-198">
          <mxGeometry width="21" height="31" as="geometry">
            <mxRectangle width="21" height="31" as="alternateBounds" />
          </mxGeometry>
        </mxCell>
        <mxCell id="s3AQ3x3ffBdiTEU-oynQ-200" value="" style="shape=table;startSize=0;container=1;collapsible=0;childLayout=tableLayout;fontSize=9;" vertex="1" parent="1">
          <mxGeometry x="350" y="13" width="21" height="186" as="geometry" />
        </mxCell>
        <mxCell id="s3AQ3x3ffBdiTEU-oynQ-201" value="" style="shape=tableRow;horizontal=0;startSize=0;swimlaneHead=0;swimlaneBody=0;strokeColor=inherit;top=0;left=0;bottom=0;right=0;collapsible=0;dropTarget=0;fillColor=none;points=[[0,0.5],[1,0.5]];portConstraint=eastwest;fontSize=16;" vertex="1" parent="s3AQ3x3ffBdiTEU-oynQ-200">
          <mxGeometry width="21" height="31" as="geometry" />
        </mxCell>
        <mxCell id="s3AQ3x3ffBdiTEU-oynQ-202" value="A" style="shape=partialRectangle;html=1;whiteSpace=wrap;connectable=0;strokeColor=inherit;overflow=hidden;fillColor=none;top=0;left=0;bottom=0;right=0;pointerEvents=1;fontSize=12;" vertex="1" parent="s3AQ3x3ffBdiTEU-oynQ-201">
          <mxGeometry width="21" height="31" as="geometry">
            <mxRectangle width="21" height="31" as="alternateBounds" />
          </mxGeometry>
        </mxCell>
        <mxCell id="s3AQ3x3ffBdiTEU-oynQ-203" style="shape=tableRow;horizontal=0;startSize=0;swimlaneHead=0;swimlaneBody=0;strokeColor=inherit;top=0;left=0;bottom=0;right=0;collapsible=0;dropTarget=0;fillColor=none;points=[[0,0.5],[1,0.5]];portConstraint=eastwest;fontSize=16;" vertex="1" parent="s3AQ3x3ffBdiTEU-oynQ-200">
          <mxGeometry y="31" width="21" height="31" as="geometry" />
        </mxCell>
        <mxCell id="s3AQ3x3ffBdiTEU-oynQ-204" value="B" style="shape=partialRectangle;html=1;whiteSpace=wrap;connectable=0;strokeColor=inherit;overflow=hidden;fillColor=none;top=0;left=0;bottom=0;right=0;pointerEvents=1;fontSize=12;" vertex="1" parent="s3AQ3x3ffBdiTEU-oynQ-203">
          <mxGeometry width="21" height="31" as="geometry">
            <mxRectangle width="21" height="31" as="alternateBounds" />
          </mxGeometry>
        </mxCell>
        <mxCell id="s3AQ3x3ffBdiTEU-oynQ-205" style="shape=tableRow;horizontal=0;startSize=0;swimlaneHead=0;swimlaneBody=0;strokeColor=inherit;top=0;left=0;bottom=0;right=0;collapsible=0;dropTarget=0;fillColor=none;points=[[0,0.5],[1,0.5]];portConstraint=eastwest;fontSize=16;" vertex="1" parent="s3AQ3x3ffBdiTEU-oynQ-200">
          <mxGeometry y="62" width="21" height="31" as="geometry" />
        </mxCell>
        <mxCell id="s3AQ3x3ffBdiTEU-oynQ-206" value="C" style="shape=partialRectangle;html=1;whiteSpace=wrap;connectable=0;strokeColor=inherit;overflow=hidden;fillColor=none;top=0;left=0;bottom=0;right=0;pointerEvents=1;fontSize=12;" vertex="1" parent="s3AQ3x3ffBdiTEU-oynQ-205">
          <mxGeometry width="21" height="31" as="geometry">
            <mxRectangle width="21" height="31" as="alternateBounds" />
          </mxGeometry>
        </mxCell>
        <mxCell id="s3AQ3x3ffBdiTEU-oynQ-207" style="shape=tableRow;horizontal=0;startSize=0;swimlaneHead=0;swimlaneBody=0;strokeColor=inherit;top=0;left=0;bottom=0;right=0;collapsible=0;dropTarget=0;fillColor=none;points=[[0,0.5],[1,0.5]];portConstraint=eastwest;fontSize=16;" vertex="1" parent="s3AQ3x3ffBdiTEU-oynQ-200">
          <mxGeometry y="93" width="21" height="31" as="geometry" />
        </mxCell>
        <mxCell id="s3AQ3x3ffBdiTEU-oynQ-208" value="D" style="shape=partialRectangle;html=1;whiteSpace=wrap;connectable=0;strokeColor=inherit;overflow=hidden;fillColor=none;top=0;left=0;bottom=0;right=0;pointerEvents=1;fontSize=12;" vertex="1" parent="s3AQ3x3ffBdiTEU-oynQ-207">
          <mxGeometry width="21" height="31" as="geometry">
            <mxRectangle width="21" height="31" as="alternateBounds" />
          </mxGeometry>
        </mxCell>
        <mxCell id="s3AQ3x3ffBdiTEU-oynQ-209" style="shape=tableRow;horizontal=0;startSize=0;swimlaneHead=0;swimlaneBody=0;strokeColor=inherit;top=0;left=0;bottom=0;right=0;collapsible=0;dropTarget=0;fillColor=none;points=[[0,0.5],[1,0.5]];portConstraint=eastwest;fontSize=16;" vertex="1" parent="s3AQ3x3ffBdiTEU-oynQ-200">
          <mxGeometry y="124" width="21" height="31" as="geometry" />
        </mxCell>
        <mxCell id="s3AQ3x3ffBdiTEU-oynQ-210" value="&lt;div&gt;F2&lt;/div&gt;" style="shape=partialRectangle;html=1;whiteSpace=wrap;connectable=0;strokeColor=inherit;overflow=hidden;fillColor=none;top=0;left=0;bottom=0;right=0;pointerEvents=1;fontSize=12;" vertex="1" parent="s3AQ3x3ffBdiTEU-oynQ-209">
          <mxGeometry width="21" height="31" as="geometry">
            <mxRectangle width="21" height="31" as="alternateBounds" />
          </mxGeometry>
        </mxCell>
        <mxCell id="s3AQ3x3ffBdiTEU-oynQ-211" style="shape=tableRow;horizontal=0;startSize=0;swimlaneHead=0;swimlaneBody=0;strokeColor=inherit;top=0;left=0;bottom=0;right=0;collapsible=0;dropTarget=0;fillColor=none;points=[[0,0.5],[1,0.5]];portConstraint=eastwest;fontSize=16;" vertex="1" parent="s3AQ3x3ffBdiTEU-oynQ-200">
          <mxGeometry y="155" width="21" height="31" as="geometry" />
        </mxCell>
        <mxCell id="s3AQ3x3ffBdiTEU-oynQ-212" style="shape=partialRectangle;html=1;whiteSpace=wrap;connectable=0;strokeColor=inherit;overflow=hidden;fillColor=none;top=0;left=0;bottom=0;right=0;pointerEvents=1;fontSize=12;" vertex="1" parent="s3AQ3x3ffBdiTEU-oynQ-211">
          <mxGeometry width="21" height="31" as="geometry">
            <mxRectangle width="21" height="31" as="alternateBounds" />
          </mxGeometry>
        </mxCell>
        <mxCell id="s3AQ3x3ffBdiTEU-oynQ-213" value="" style="shape=table;startSize=0;container=1;collapsible=0;childLayout=tableLayout;fontSize=9;" vertex="1" parent="1">
          <mxGeometry x="389.5" y="13" width="21" height="186" as="geometry" />
        </mxCell>
        <mxCell id="s3AQ3x3ffBdiTEU-oynQ-214" value="" style="shape=tableRow;horizontal=0;startSize=0;swimlaneHead=0;swimlaneBody=0;strokeColor=inherit;top=0;left=0;bottom=0;right=0;collapsible=0;dropTarget=0;fillColor=none;points=[[0,0.5],[1,0.5]];portConstraint=eastwest;fontSize=16;" vertex="1" parent="s3AQ3x3ffBdiTEU-oynQ-213">
          <mxGeometry width="21" height="31" as="geometry" />
        </mxCell>
        <mxCell id="s3AQ3x3ffBdiTEU-oynQ-215" value="A" style="shape=partialRectangle;html=1;whiteSpace=wrap;connectable=0;strokeColor=inherit;overflow=hidden;fillColor=none;top=0;left=0;bottom=0;right=0;pointerEvents=1;fontSize=12;" vertex="1" parent="s3AQ3x3ffBdiTEU-oynQ-214">
          <mxGeometry width="21" height="31" as="geometry">
            <mxRectangle width="21" height="31" as="alternateBounds" />
          </mxGeometry>
        </mxCell>
        <mxCell id="s3AQ3x3ffBdiTEU-oynQ-216" style="shape=tableRow;horizontal=0;startSize=0;swimlaneHead=0;swimlaneBody=0;strokeColor=inherit;top=0;left=0;bottom=0;right=0;collapsible=0;dropTarget=0;fillColor=none;points=[[0,0.5],[1,0.5]];portConstraint=eastwest;fontSize=16;" vertex="1" parent="s3AQ3x3ffBdiTEU-oynQ-213">
          <mxGeometry y="31" width="21" height="31" as="geometry" />
        </mxCell>
        <mxCell id="s3AQ3x3ffBdiTEU-oynQ-217" value="B" style="shape=partialRectangle;html=1;whiteSpace=wrap;connectable=0;strokeColor=inherit;overflow=hidden;fillColor=none;top=0;left=0;bottom=0;right=0;pointerEvents=1;fontSize=12;" vertex="1" parent="s3AQ3x3ffBdiTEU-oynQ-216">
          <mxGeometry width="21" height="31" as="geometry">
            <mxRectangle width="21" height="31" as="alternateBounds" />
          </mxGeometry>
        </mxCell>
        <mxCell id="s3AQ3x3ffBdiTEU-oynQ-218" style="shape=tableRow;horizontal=0;startSize=0;swimlaneHead=0;swimlaneBody=0;strokeColor=inherit;top=0;left=0;bottom=0;right=0;collapsible=0;dropTarget=0;fillColor=none;points=[[0,0.5],[1,0.5]];portConstraint=eastwest;fontSize=16;" vertex="1" parent="s3AQ3x3ffBdiTEU-oynQ-213">
          <mxGeometry y="62" width="21" height="31" as="geometry" />
        </mxCell>
        <mxCell id="s3AQ3x3ffBdiTEU-oynQ-219" value="C" style="shape=partialRectangle;html=1;whiteSpace=wrap;connectable=0;strokeColor=inherit;overflow=hidden;fillColor=none;top=0;left=0;bottom=0;right=0;pointerEvents=1;fontSize=12;" vertex="1" parent="s3AQ3x3ffBdiTEU-oynQ-218">
          <mxGeometry width="21" height="31" as="geometry">
            <mxRectangle width="21" height="31" as="alternateBounds" />
          </mxGeometry>
        </mxCell>
        <mxCell id="s3AQ3x3ffBdiTEU-oynQ-220" style="shape=tableRow;horizontal=0;startSize=0;swimlaneHead=0;swimlaneBody=0;strokeColor=inherit;top=0;left=0;bottom=0;right=0;collapsible=0;dropTarget=0;fillColor=none;points=[[0,0.5],[1,0.5]];portConstraint=eastwest;fontSize=16;" vertex="1" parent="s3AQ3x3ffBdiTEU-oynQ-213">
          <mxGeometry y="93" width="21" height="31" as="geometry" />
        </mxCell>
        <mxCell id="s3AQ3x3ffBdiTEU-oynQ-221" value="D" style="shape=partialRectangle;html=1;whiteSpace=wrap;connectable=0;strokeColor=inherit;overflow=hidden;fillColor=none;top=0;left=0;bottom=0;right=0;pointerEvents=1;fontSize=12;" vertex="1" parent="s3AQ3x3ffBdiTEU-oynQ-220">
          <mxGeometry width="21" height="31" as="geometry">
            <mxRectangle width="21" height="31" as="alternateBounds" />
          </mxGeometry>
        </mxCell>
        <mxCell id="s3AQ3x3ffBdiTEU-oynQ-222" style="shape=tableRow;horizontal=0;startSize=0;swimlaneHead=0;swimlaneBody=0;strokeColor=inherit;top=0;left=0;bottom=0;right=0;collapsible=0;dropTarget=0;fillColor=none;points=[[0,0.5],[1,0.5]];portConstraint=eastwest;fontSize=16;" vertex="1" parent="s3AQ3x3ffBdiTEU-oynQ-213">
          <mxGeometry y="124" width="21" height="31" as="geometry" />
        </mxCell>
        <mxCell id="s3AQ3x3ffBdiTEU-oynQ-223" value="&lt;div&gt;F2&lt;/div&gt;" style="shape=partialRectangle;html=1;whiteSpace=wrap;connectable=0;strokeColor=inherit;overflow=hidden;fillColor=none;top=0;left=0;bottom=0;right=0;pointerEvents=1;fontSize=12;" vertex="1" parent="s3AQ3x3ffBdiTEU-oynQ-222">
          <mxGeometry width="21" height="31" as="geometry">
            <mxRectangle width="21" height="31" as="alternateBounds" />
          </mxGeometry>
        </mxCell>
        <mxCell id="s3AQ3x3ffBdiTEU-oynQ-224" style="shape=tableRow;horizontal=0;startSize=0;swimlaneHead=0;swimlaneBody=0;strokeColor=inherit;top=0;left=0;bottom=0;right=0;collapsible=0;dropTarget=0;fillColor=none;points=[[0,0.5],[1,0.5]];portConstraint=eastwest;fontSize=16;" vertex="1" parent="s3AQ3x3ffBdiTEU-oynQ-213">
          <mxGeometry y="155" width="21" height="31" as="geometry" />
        </mxCell>
        <mxCell id="s3AQ3x3ffBdiTEU-oynQ-225" value="G" style="shape=partialRectangle;html=1;whiteSpace=wrap;connectable=0;strokeColor=inherit;overflow=hidden;fillColor=none;top=0;left=0;bottom=0;right=0;pointerEvents=1;fontSize=12;" vertex="1" parent="s3AQ3x3ffBdiTEU-oynQ-224">
          <mxGeometry width="21" height="31" as="geometry">
            <mxRectangle width="21" height="31" as="alternateBounds" />
          </mxGeometry>
        </mxCell>
        <mxCell id="s3AQ3x3ffBdiTEU-oynQ-226" value="" style="shape=table;startSize=0;container=1;collapsible=0;childLayout=tableLayout;fontSize=9;" vertex="1" parent="1">
          <mxGeometry x="429.5" y="13" width="21" height="186" as="geometry" />
        </mxCell>
        <mxCell id="s3AQ3x3ffBdiTEU-oynQ-227" value="" style="shape=tableRow;horizontal=0;startSize=0;swimlaneHead=0;swimlaneBody=0;strokeColor=inherit;top=0;left=0;bottom=0;right=0;collapsible=0;dropTarget=0;fillColor=none;points=[[0,0.5],[1,0.5]];portConstraint=eastwest;fontSize=16;" vertex="1" parent="s3AQ3x3ffBdiTEU-oynQ-226">
          <mxGeometry width="21" height="31" as="geometry" />
        </mxCell>
        <mxCell id="s3AQ3x3ffBdiTEU-oynQ-228" value="A" style="shape=partialRectangle;html=1;whiteSpace=wrap;connectable=0;strokeColor=inherit;overflow=hidden;fillColor=none;top=0;left=0;bottom=0;right=0;pointerEvents=1;fontSize=12;" vertex="1" parent="s3AQ3x3ffBdiTEU-oynQ-227">
          <mxGeometry width="21" height="31" as="geometry">
            <mxRectangle width="21" height="31" as="alternateBounds" />
          </mxGeometry>
        </mxCell>
        <mxCell id="s3AQ3x3ffBdiTEU-oynQ-229" style="shape=tableRow;horizontal=0;startSize=0;swimlaneHead=0;swimlaneBody=0;strokeColor=inherit;top=0;left=0;bottom=0;right=0;collapsible=0;dropTarget=0;fillColor=none;points=[[0,0.5],[1,0.5]];portConstraint=eastwest;fontSize=16;" vertex="1" parent="s3AQ3x3ffBdiTEU-oynQ-226">
          <mxGeometry y="31" width="21" height="31" as="geometry" />
        </mxCell>
        <mxCell id="s3AQ3x3ffBdiTEU-oynQ-230" value="B" style="shape=partialRectangle;html=1;whiteSpace=wrap;connectable=0;strokeColor=inherit;overflow=hidden;fillColor=none;top=0;left=0;bottom=0;right=0;pointerEvents=1;fontSize=12;" vertex="1" parent="s3AQ3x3ffBdiTEU-oynQ-229">
          <mxGeometry width="21" height="31" as="geometry">
            <mxRectangle width="21" height="31" as="alternateBounds" />
          </mxGeometry>
        </mxCell>
        <mxCell id="s3AQ3x3ffBdiTEU-oynQ-231" style="shape=tableRow;horizontal=0;startSize=0;swimlaneHead=0;swimlaneBody=0;strokeColor=inherit;top=0;left=0;bottom=0;right=0;collapsible=0;dropTarget=0;fillColor=none;points=[[0,0.5],[1,0.5]];portConstraint=eastwest;fontSize=16;" vertex="1" parent="s3AQ3x3ffBdiTEU-oynQ-226">
          <mxGeometry y="62" width="21" height="31" as="geometry" />
        </mxCell>
        <mxCell id="s3AQ3x3ffBdiTEU-oynQ-232" value="C" style="shape=partialRectangle;html=1;whiteSpace=wrap;connectable=0;strokeColor=inherit;overflow=hidden;fillColor=none;top=0;left=0;bottom=0;right=0;pointerEvents=1;fontSize=12;" vertex="1" parent="s3AQ3x3ffBdiTEU-oynQ-231">
          <mxGeometry width="21" height="31" as="geometry">
            <mxRectangle width="21" height="31" as="alternateBounds" />
          </mxGeometry>
        </mxCell>
        <mxCell id="s3AQ3x3ffBdiTEU-oynQ-233" style="shape=tableRow;horizontal=0;startSize=0;swimlaneHead=0;swimlaneBody=0;strokeColor=inherit;top=0;left=0;bottom=0;right=0;collapsible=0;dropTarget=0;fillColor=none;points=[[0,0.5],[1,0.5]];portConstraint=eastwest;fontSize=16;" vertex="1" parent="s3AQ3x3ffBdiTEU-oynQ-226">
          <mxGeometry y="93" width="21" height="31" as="geometry" />
        </mxCell>
        <mxCell id="s3AQ3x3ffBdiTEU-oynQ-234" value="D" style="shape=partialRectangle;html=1;whiteSpace=wrap;connectable=0;strokeColor=inherit;overflow=hidden;fillColor=none;top=0;left=0;bottom=0;right=0;pointerEvents=1;fontSize=12;" vertex="1" parent="s3AQ3x3ffBdiTEU-oynQ-233">
          <mxGeometry width="21" height="31" as="geometry">
            <mxRectangle width="21" height="31" as="alternateBounds" />
          </mxGeometry>
        </mxCell>
        <mxCell id="s3AQ3x3ffBdiTEU-oynQ-235" style="shape=tableRow;horizontal=0;startSize=0;swimlaneHead=0;swimlaneBody=0;strokeColor=inherit;top=0;left=0;bottom=0;right=0;collapsible=0;dropTarget=0;fillColor=none;points=[[0,0.5],[1,0.5]];portConstraint=eastwest;fontSize=16;" vertex="1" parent="s3AQ3x3ffBdiTEU-oynQ-226">
          <mxGeometry y="124" width="21" height="31" as="geometry" />
        </mxCell>
        <mxCell id="s3AQ3x3ffBdiTEU-oynQ-236" value="&lt;div&gt;F2&lt;/div&gt;" style="shape=partialRectangle;html=1;whiteSpace=wrap;connectable=0;strokeColor=inherit;overflow=hidden;fillColor=none;top=0;left=0;bottom=0;right=0;pointerEvents=1;fontSize=12;" vertex="1" parent="s3AQ3x3ffBdiTEU-oynQ-235">
          <mxGeometry width="21" height="31" as="geometry">
            <mxRectangle width="21" height="31" as="alternateBounds" />
          </mxGeometry>
        </mxCell>
        <mxCell id="s3AQ3x3ffBdiTEU-oynQ-237" style="shape=tableRow;horizontal=0;startSize=0;swimlaneHead=0;swimlaneBody=0;strokeColor=inherit;top=0;left=0;bottom=0;right=0;collapsible=0;dropTarget=0;fillColor=none;points=[[0,0.5],[1,0.5]];portConstraint=eastwest;fontSize=16;" vertex="1" parent="s3AQ3x3ffBdiTEU-oynQ-226">
          <mxGeometry y="155" width="21" height="31" as="geometry" />
        </mxCell>
        <mxCell id="s3AQ3x3ffBdiTEU-oynQ-238" value="G" style="shape=partialRectangle;html=1;whiteSpace=wrap;connectable=0;strokeColor=inherit;overflow=hidden;fillColor=none;top=0;left=0;bottom=0;right=0;pointerEvents=1;fontSize=12;" vertex="1" parent="s3AQ3x3ffBdiTEU-oynQ-237">
          <mxGeometry width="21" height="31" as="geometry">
            <mxRectangle width="21" height="31" as="alternateBounds" />
          </mxGeometry>
        </mxCell>
        <mxCell id="s3AQ3x3ffBdiTEU-oynQ-239" value="" style="shape=table;startSize=0;container=1;collapsible=0;childLayout=tableLayout;fontSize=9;" vertex="1" parent="1">
          <mxGeometry x="469.5" y="13" width="21" height="186" as="geometry" />
        </mxCell>
        <mxCell id="s3AQ3x3ffBdiTEU-oynQ-240" value="" style="shape=tableRow;horizontal=0;startSize=0;swimlaneHead=0;swimlaneBody=0;strokeColor=inherit;top=0;left=0;bottom=0;right=0;collapsible=0;dropTarget=0;fillColor=none;points=[[0,0.5],[1,0.5]];portConstraint=eastwest;fontSize=16;" vertex="1" parent="s3AQ3x3ffBdiTEU-oynQ-239">
          <mxGeometry width="21" height="31" as="geometry" />
        </mxCell>
        <mxCell id="s3AQ3x3ffBdiTEU-oynQ-241" value="A" style="shape=partialRectangle;html=1;whiteSpace=wrap;connectable=0;strokeColor=inherit;overflow=hidden;fillColor=none;top=0;left=0;bottom=0;right=0;pointerEvents=1;fontSize=12;" vertex="1" parent="s3AQ3x3ffBdiTEU-oynQ-240">
          <mxGeometry width="21" height="31" as="geometry">
            <mxRectangle width="21" height="31" as="alternateBounds" />
          </mxGeometry>
        </mxCell>
        <mxCell id="s3AQ3x3ffBdiTEU-oynQ-242" style="shape=tableRow;horizontal=0;startSize=0;swimlaneHead=0;swimlaneBody=0;strokeColor=inherit;top=0;left=0;bottom=0;right=0;collapsible=0;dropTarget=0;fillColor=none;points=[[0,0.5],[1,0.5]];portConstraint=eastwest;fontSize=16;" vertex="1" parent="s3AQ3x3ffBdiTEU-oynQ-239">
          <mxGeometry y="31" width="21" height="31" as="geometry" />
        </mxCell>
        <mxCell id="s3AQ3x3ffBdiTEU-oynQ-243" value="B" style="shape=partialRectangle;html=1;whiteSpace=wrap;connectable=0;strokeColor=inherit;overflow=hidden;fillColor=none;top=0;left=0;bottom=0;right=0;pointerEvents=1;fontSize=12;" vertex="1" parent="s3AQ3x3ffBdiTEU-oynQ-242">
          <mxGeometry width="21" height="31" as="geometry">
            <mxRectangle width="21" height="31" as="alternateBounds" />
          </mxGeometry>
        </mxCell>
        <mxCell id="s3AQ3x3ffBdiTEU-oynQ-244" style="shape=tableRow;horizontal=0;startSize=0;swimlaneHead=0;swimlaneBody=0;strokeColor=inherit;top=0;left=0;bottom=0;right=0;collapsible=0;dropTarget=0;fillColor=none;points=[[0,0.5],[1,0.5]];portConstraint=eastwest;fontSize=16;" vertex="1" parent="s3AQ3x3ffBdiTEU-oynQ-239">
          <mxGeometry y="62" width="21" height="31" as="geometry" />
        </mxCell>
        <mxCell id="s3AQ3x3ffBdiTEU-oynQ-245" value="C" style="shape=partialRectangle;html=1;whiteSpace=wrap;connectable=0;strokeColor=inherit;overflow=hidden;fillColor=none;top=0;left=0;bottom=0;right=0;pointerEvents=1;fontSize=12;" vertex="1" parent="s3AQ3x3ffBdiTEU-oynQ-244">
          <mxGeometry width="21" height="31" as="geometry">
            <mxRectangle width="21" height="31" as="alternateBounds" />
          </mxGeometry>
        </mxCell>
        <mxCell id="s3AQ3x3ffBdiTEU-oynQ-246" style="shape=tableRow;horizontal=0;startSize=0;swimlaneHead=0;swimlaneBody=0;strokeColor=inherit;top=0;left=0;bottom=0;right=0;collapsible=0;dropTarget=0;fillColor=none;points=[[0,0.5],[1,0.5]];portConstraint=eastwest;fontSize=16;" vertex="1" parent="s3AQ3x3ffBdiTEU-oynQ-239">
          <mxGeometry y="93" width="21" height="31" as="geometry" />
        </mxCell>
        <mxCell id="s3AQ3x3ffBdiTEU-oynQ-247" value="D" style="shape=partialRectangle;html=1;whiteSpace=wrap;connectable=0;strokeColor=inherit;overflow=hidden;fillColor=none;top=0;left=0;bottom=0;right=0;pointerEvents=1;fontSize=12;" vertex="1" parent="s3AQ3x3ffBdiTEU-oynQ-246">
          <mxGeometry width="21" height="31" as="geometry">
            <mxRectangle width="21" height="31" as="alternateBounds" />
          </mxGeometry>
        </mxCell>
        <mxCell id="s3AQ3x3ffBdiTEU-oynQ-248" style="shape=tableRow;horizontal=0;startSize=0;swimlaneHead=0;swimlaneBody=0;strokeColor=inherit;top=0;left=0;bottom=0;right=0;collapsible=0;dropTarget=0;fillColor=none;points=[[0,0.5],[1,0.5]];portConstraint=eastwest;fontSize=16;" vertex="1" parent="s3AQ3x3ffBdiTEU-oynQ-239">
          <mxGeometry y="124" width="21" height="31" as="geometry" />
        </mxCell>
        <mxCell id="s3AQ3x3ffBdiTEU-oynQ-249" value="&lt;div&gt;F2&lt;/div&gt;" style="shape=partialRectangle;html=1;whiteSpace=wrap;connectable=0;strokeColor=inherit;overflow=hidden;fillColor=none;top=0;left=0;bottom=0;right=0;pointerEvents=1;fontSize=12;" vertex="1" parent="s3AQ3x3ffBdiTEU-oynQ-248">
          <mxGeometry width="21" height="31" as="geometry">
            <mxRectangle width="21" height="31" as="alternateBounds" />
          </mxGeometry>
        </mxCell>
        <mxCell id="s3AQ3x3ffBdiTEU-oynQ-250" style="shape=tableRow;horizontal=0;startSize=0;swimlaneHead=0;swimlaneBody=0;strokeColor=inherit;top=0;left=0;bottom=0;right=0;collapsible=0;dropTarget=0;fillColor=none;points=[[0,0.5],[1,0.5]];portConstraint=eastwest;fontSize=16;" vertex="1" parent="s3AQ3x3ffBdiTEU-oynQ-239">
          <mxGeometry y="155" width="21" height="31" as="geometry" />
        </mxCell>
        <mxCell id="s3AQ3x3ffBdiTEU-oynQ-251" value="G" style="shape=partialRectangle;html=1;whiteSpace=wrap;connectable=0;strokeColor=inherit;overflow=hidden;fillColor=none;top=0;left=0;bottom=0;right=0;pointerEvents=1;fontSize=12;" vertex="1" parent="s3AQ3x3ffBdiTEU-oynQ-250">
          <mxGeometry width="21" height="31" as="geometry">
            <mxRectangle width="21" height="31" as="alternateBounds" />
          </mxGeometry>
        </mxCell>
        <mxCell id="s3AQ3x3ffBdiTEU-oynQ-252" value="" style="shape=table;startSize=0;container=1;collapsible=0;childLayout=tableLayout;fontSize=9;" vertex="1" parent="1">
          <mxGeometry x="509.5" y="13" width="21" height="186" as="geometry" />
        </mxCell>
        <mxCell id="s3AQ3x3ffBdiTEU-oynQ-253" value="" style="shape=tableRow;horizontal=0;startSize=0;swimlaneHead=0;swimlaneBody=0;strokeColor=inherit;top=0;left=0;bottom=0;right=0;collapsible=0;dropTarget=0;fillColor=none;points=[[0,0.5],[1,0.5]];portConstraint=eastwest;fontSize=16;" vertex="1" parent="s3AQ3x3ffBdiTEU-oynQ-252">
          <mxGeometry width="21" height="31" as="geometry" />
        </mxCell>
        <mxCell id="s3AQ3x3ffBdiTEU-oynQ-254" value="A" style="shape=partialRectangle;html=1;whiteSpace=wrap;connectable=0;strokeColor=inherit;overflow=hidden;fillColor=none;top=0;left=0;bottom=0;right=0;pointerEvents=1;fontSize=12;" vertex="1" parent="s3AQ3x3ffBdiTEU-oynQ-253">
          <mxGeometry width="21" height="31" as="geometry">
            <mxRectangle width="21" height="31" as="alternateBounds" />
          </mxGeometry>
        </mxCell>
        <mxCell id="s3AQ3x3ffBdiTEU-oynQ-255" style="shape=tableRow;horizontal=0;startSize=0;swimlaneHead=0;swimlaneBody=0;strokeColor=inherit;top=0;left=0;bottom=0;right=0;collapsible=0;dropTarget=0;fillColor=none;points=[[0,0.5],[1,0.5]];portConstraint=eastwest;fontSize=16;" vertex="1" parent="s3AQ3x3ffBdiTEU-oynQ-252">
          <mxGeometry y="31" width="21" height="31" as="geometry" />
        </mxCell>
        <mxCell id="s3AQ3x3ffBdiTEU-oynQ-256" value="B" style="shape=partialRectangle;html=1;whiteSpace=wrap;connectable=0;strokeColor=inherit;overflow=hidden;fillColor=none;top=0;left=0;bottom=0;right=0;pointerEvents=1;fontSize=12;" vertex="1" parent="s3AQ3x3ffBdiTEU-oynQ-255">
          <mxGeometry width="21" height="31" as="geometry">
            <mxRectangle width="21" height="31" as="alternateBounds" />
          </mxGeometry>
        </mxCell>
        <mxCell id="s3AQ3x3ffBdiTEU-oynQ-257" style="shape=tableRow;horizontal=0;startSize=0;swimlaneHead=0;swimlaneBody=0;strokeColor=inherit;top=0;left=0;bottom=0;right=0;collapsible=0;dropTarget=0;fillColor=none;points=[[0,0.5],[1,0.5]];portConstraint=eastwest;fontSize=16;" vertex="1" parent="s3AQ3x3ffBdiTEU-oynQ-252">
          <mxGeometry y="62" width="21" height="31" as="geometry" />
        </mxCell>
        <mxCell id="s3AQ3x3ffBdiTEU-oynQ-258" value="C" style="shape=partialRectangle;html=1;whiteSpace=wrap;connectable=0;strokeColor=inherit;overflow=hidden;fillColor=none;top=0;left=0;bottom=0;right=0;pointerEvents=1;fontSize=12;" vertex="1" parent="s3AQ3x3ffBdiTEU-oynQ-257">
          <mxGeometry width="21" height="31" as="geometry">
            <mxRectangle width="21" height="31" as="alternateBounds" />
          </mxGeometry>
        </mxCell>
        <mxCell id="s3AQ3x3ffBdiTEU-oynQ-259" style="shape=tableRow;horizontal=0;startSize=0;swimlaneHead=0;swimlaneBody=0;strokeColor=inherit;top=0;left=0;bottom=0;right=0;collapsible=0;dropTarget=0;fillColor=none;points=[[0,0.5],[1,0.5]];portConstraint=eastwest;fontSize=16;" vertex="1" parent="s3AQ3x3ffBdiTEU-oynQ-252">
          <mxGeometry y="93" width="21" height="31" as="geometry" />
        </mxCell>
        <mxCell id="s3AQ3x3ffBdiTEU-oynQ-260" value="D" style="shape=partialRectangle;html=1;whiteSpace=wrap;connectable=0;strokeColor=inherit;overflow=hidden;fillColor=none;top=0;left=0;bottom=0;right=0;pointerEvents=1;fontSize=12;" vertex="1" parent="s3AQ3x3ffBdiTEU-oynQ-259">
          <mxGeometry width="21" height="31" as="geometry">
            <mxRectangle width="21" height="31" as="alternateBounds" />
          </mxGeometry>
        </mxCell>
        <mxCell id="s3AQ3x3ffBdiTEU-oynQ-261" style="shape=tableRow;horizontal=0;startSize=0;swimlaneHead=0;swimlaneBody=0;strokeColor=inherit;top=0;left=0;bottom=0;right=0;collapsible=0;dropTarget=0;fillColor=none;points=[[0,0.5],[1,0.5]];portConstraint=eastwest;fontSize=16;" vertex="1" parent="s3AQ3x3ffBdiTEU-oynQ-252">
          <mxGeometry y="124" width="21" height="31" as="geometry" />
        </mxCell>
        <mxCell id="s3AQ3x3ffBdiTEU-oynQ-262" value="&lt;div&gt;F2&lt;/div&gt;" style="shape=partialRectangle;html=1;whiteSpace=wrap;connectable=0;strokeColor=inherit;overflow=hidden;fillColor=none;top=0;left=0;bottom=0;right=0;pointerEvents=1;fontSize=12;" vertex="1" parent="s3AQ3x3ffBdiTEU-oynQ-261">
          <mxGeometry width="21" height="31" as="geometry">
            <mxRectangle width="21" height="31" as="alternateBounds" />
          </mxGeometry>
        </mxCell>
        <mxCell id="s3AQ3x3ffBdiTEU-oynQ-263" style="shape=tableRow;horizontal=0;startSize=0;swimlaneHead=0;swimlaneBody=0;strokeColor=inherit;top=0;left=0;bottom=0;right=0;collapsible=0;dropTarget=0;fillColor=none;points=[[0,0.5],[1,0.5]];portConstraint=eastwest;fontSize=16;" vertex="1" parent="s3AQ3x3ffBdiTEU-oynQ-252">
          <mxGeometry y="155" width="21" height="31" as="geometry" />
        </mxCell>
        <mxCell id="s3AQ3x3ffBdiTEU-oynQ-264" value="G" style="shape=partialRectangle;html=1;whiteSpace=wrap;connectable=0;strokeColor=inherit;overflow=hidden;fillColor=none;top=0;left=0;bottom=0;right=0;pointerEvents=1;fontSize=12;" vertex="1" parent="s3AQ3x3ffBdiTEU-oynQ-263">
          <mxGeometry width="21" height="31" as="geometry">
            <mxRectangle width="21" height="31" as="alternateBounds" />
          </mxGeometry>
        </mxCell>
        <mxCell id="s3AQ3x3ffBdiTEU-oynQ-265" value="" style="shape=table;startSize=0;container=1;collapsible=0;childLayout=tableLayout;fontSize=9;" vertex="1" parent="1">
          <mxGeometry x="549.5" y="13" width="21" height="186" as="geometry" />
        </mxCell>
        <mxCell id="s3AQ3x3ffBdiTEU-oynQ-266" value="" style="shape=tableRow;horizontal=0;startSize=0;swimlaneHead=0;swimlaneBody=0;strokeColor=inherit;top=0;left=0;bottom=0;right=0;collapsible=0;dropTarget=0;fillColor=none;points=[[0,0.5],[1,0.5]];portConstraint=eastwest;fontSize=16;" vertex="1" parent="s3AQ3x3ffBdiTEU-oynQ-265">
          <mxGeometry width="21" height="31" as="geometry" />
        </mxCell>
        <mxCell id="s3AQ3x3ffBdiTEU-oynQ-267" value="A" style="shape=partialRectangle;html=1;whiteSpace=wrap;connectable=0;strokeColor=inherit;overflow=hidden;fillColor=none;top=0;left=0;bottom=0;right=0;pointerEvents=1;fontSize=12;" vertex="1" parent="s3AQ3x3ffBdiTEU-oynQ-266">
          <mxGeometry width="21" height="31" as="geometry">
            <mxRectangle width="21" height="31" as="alternateBounds" />
          </mxGeometry>
        </mxCell>
        <mxCell id="s3AQ3x3ffBdiTEU-oynQ-268" style="shape=tableRow;horizontal=0;startSize=0;swimlaneHead=0;swimlaneBody=0;strokeColor=inherit;top=0;left=0;bottom=0;right=0;collapsible=0;dropTarget=0;fillColor=none;points=[[0,0.5],[1,0.5]];portConstraint=eastwest;fontSize=16;" vertex="1" parent="s3AQ3x3ffBdiTEU-oynQ-265">
          <mxGeometry y="31" width="21" height="31" as="geometry" />
        </mxCell>
        <mxCell id="s3AQ3x3ffBdiTEU-oynQ-269" value="B" style="shape=partialRectangle;html=1;whiteSpace=wrap;connectable=0;strokeColor=inherit;overflow=hidden;fillColor=none;top=0;left=0;bottom=0;right=0;pointerEvents=1;fontSize=12;" vertex="1" parent="s3AQ3x3ffBdiTEU-oynQ-268">
          <mxGeometry width="21" height="31" as="geometry">
            <mxRectangle width="21" height="31" as="alternateBounds" />
          </mxGeometry>
        </mxCell>
        <mxCell id="s3AQ3x3ffBdiTEU-oynQ-270" style="shape=tableRow;horizontal=0;startSize=0;swimlaneHead=0;swimlaneBody=0;strokeColor=inherit;top=0;left=0;bottom=0;right=0;collapsible=0;dropTarget=0;fillColor=none;points=[[0,0.5],[1,0.5]];portConstraint=eastwest;fontSize=16;" vertex="1" parent="s3AQ3x3ffBdiTEU-oynQ-265">
          <mxGeometry y="62" width="21" height="31" as="geometry" />
        </mxCell>
        <mxCell id="s3AQ3x3ffBdiTEU-oynQ-271" value="C" style="shape=partialRectangle;html=1;whiteSpace=wrap;connectable=0;strokeColor=inherit;overflow=hidden;fillColor=none;top=0;left=0;bottom=0;right=0;pointerEvents=1;fontSize=12;" vertex="1" parent="s3AQ3x3ffBdiTEU-oynQ-270">
          <mxGeometry width="21" height="31" as="geometry">
            <mxRectangle width="21" height="31" as="alternateBounds" />
          </mxGeometry>
        </mxCell>
        <mxCell id="s3AQ3x3ffBdiTEU-oynQ-272" style="shape=tableRow;horizontal=0;startSize=0;swimlaneHead=0;swimlaneBody=0;strokeColor=inherit;top=0;left=0;bottom=0;right=0;collapsible=0;dropTarget=0;fillColor=none;points=[[0,0.5],[1,0.5]];portConstraint=eastwest;fontSize=16;" vertex="1" parent="s3AQ3x3ffBdiTEU-oynQ-265">
          <mxGeometry y="93" width="21" height="31" as="geometry" />
        </mxCell>
        <mxCell id="s3AQ3x3ffBdiTEU-oynQ-273" value="D" style="shape=partialRectangle;html=1;whiteSpace=wrap;connectable=0;strokeColor=inherit;overflow=hidden;fillColor=none;top=0;left=0;bottom=0;right=0;pointerEvents=1;fontSize=12;" vertex="1" parent="s3AQ3x3ffBdiTEU-oynQ-272">
          <mxGeometry width="21" height="31" as="geometry">
            <mxRectangle width="21" height="31" as="alternateBounds" />
          </mxGeometry>
        </mxCell>
        <mxCell id="s3AQ3x3ffBdiTEU-oynQ-274" style="shape=tableRow;horizontal=0;startSize=0;swimlaneHead=0;swimlaneBody=0;strokeColor=inherit;top=0;left=0;bottom=0;right=0;collapsible=0;dropTarget=0;fillColor=none;points=[[0,0.5],[1,0.5]];portConstraint=eastwest;fontSize=16;" vertex="1" parent="s3AQ3x3ffBdiTEU-oynQ-265">
          <mxGeometry y="124" width="21" height="31" as="geometry" />
        </mxCell>
        <mxCell id="s3AQ3x3ffBdiTEU-oynQ-275" value="&lt;div&gt;F2&lt;/div&gt;" style="shape=partialRectangle;html=1;whiteSpace=wrap;connectable=0;strokeColor=inherit;overflow=hidden;fillColor=none;top=0;left=0;bottom=0;right=0;pointerEvents=1;fontSize=12;" vertex="1" parent="s3AQ3x3ffBdiTEU-oynQ-274">
          <mxGeometry width="21" height="31" as="geometry">
            <mxRectangle width="21" height="31" as="alternateBounds" />
          </mxGeometry>
        </mxCell>
        <mxCell id="s3AQ3x3ffBdiTEU-oynQ-276" style="shape=tableRow;horizontal=0;startSize=0;swimlaneHead=0;swimlaneBody=0;strokeColor=inherit;top=0;left=0;bottom=0;right=0;collapsible=0;dropTarget=0;fillColor=none;points=[[0,0.5],[1,0.5]];portConstraint=eastwest;fontSize=16;" vertex="1" parent="s3AQ3x3ffBdiTEU-oynQ-265">
          <mxGeometry y="155" width="21" height="31" as="geometry" />
        </mxCell>
        <mxCell id="s3AQ3x3ffBdiTEU-oynQ-277" value="G" style="shape=partialRectangle;html=1;whiteSpace=wrap;connectable=0;strokeColor=inherit;overflow=hidden;fillColor=none;top=0;left=0;bottom=0;right=0;pointerEvents=1;fontSize=12;" vertex="1" parent="s3AQ3x3ffBdiTEU-oynQ-276">
          <mxGeometry width="21" height="31" as="geometry">
            <mxRectangle width="21" height="31" as="alternateBounds" />
          </mxGeometry>
        </mxCell>
        <mxCell id="s3AQ3x3ffBdiTEU-oynQ-278" value="" style="shape=table;startSize=0;container=1;collapsible=0;childLayout=tableLayout;fontSize=9;" vertex="1" parent="1">
          <mxGeometry x="65" y="335" width="21" height="186" as="geometry" />
        </mxCell>
        <mxCell id="s3AQ3x3ffBdiTEU-oynQ-279" value="" style="shape=tableRow;horizontal=0;startSize=0;swimlaneHead=0;swimlaneBody=0;strokeColor=inherit;top=0;left=0;bottom=0;right=0;collapsible=0;dropTarget=0;fillColor=none;points=[[0,0.5],[1,0.5]];portConstraint=eastwest;fontSize=16;" vertex="1" parent="s3AQ3x3ffBdiTEU-oynQ-278">
          <mxGeometry width="21" height="31" as="geometry" />
        </mxCell>
        <mxCell id="s3AQ3x3ffBdiTEU-oynQ-280" value="" style="shape=partialRectangle;html=1;whiteSpace=wrap;connectable=0;strokeColor=inherit;overflow=hidden;fillColor=none;top=0;left=0;bottom=0;right=0;pointerEvents=1;fontSize=12;" vertex="1" parent="s3AQ3x3ffBdiTEU-oynQ-279">
          <mxGeometry width="21" height="31" as="geometry">
            <mxRectangle width="21" height="31" as="alternateBounds" />
          </mxGeometry>
        </mxCell>
        <mxCell id="s3AQ3x3ffBdiTEU-oynQ-281" style="shape=tableRow;horizontal=0;startSize=0;swimlaneHead=0;swimlaneBody=0;strokeColor=inherit;top=0;left=0;bottom=0;right=0;collapsible=0;dropTarget=0;fillColor=none;points=[[0,0.5],[1,0.5]];portConstraint=eastwest;fontSize=16;" vertex="1" parent="s3AQ3x3ffBdiTEU-oynQ-278">
          <mxGeometry y="31" width="21" height="31" as="geometry" />
        </mxCell>
        <mxCell id="s3AQ3x3ffBdiTEU-oynQ-282" style="shape=partialRectangle;html=1;whiteSpace=wrap;connectable=0;strokeColor=inherit;overflow=hidden;fillColor=none;top=0;left=0;bottom=0;right=0;pointerEvents=1;fontSize=12;" vertex="1" parent="s3AQ3x3ffBdiTEU-oynQ-281">
          <mxGeometry width="21" height="31" as="geometry">
            <mxRectangle width="21" height="31" as="alternateBounds" />
          </mxGeometry>
        </mxCell>
        <mxCell id="s3AQ3x3ffBdiTEU-oynQ-283" style="shape=tableRow;horizontal=0;startSize=0;swimlaneHead=0;swimlaneBody=0;strokeColor=inherit;top=0;left=0;bottom=0;right=0;collapsible=0;dropTarget=0;fillColor=none;points=[[0,0.5],[1,0.5]];portConstraint=eastwest;fontSize=16;" vertex="1" parent="s3AQ3x3ffBdiTEU-oynQ-278">
          <mxGeometry y="62" width="21" height="31" as="geometry" />
        </mxCell>
        <mxCell id="s3AQ3x3ffBdiTEU-oynQ-284" style="shape=partialRectangle;html=1;whiteSpace=wrap;connectable=0;strokeColor=inherit;overflow=hidden;fillColor=none;top=0;left=0;bottom=0;right=0;pointerEvents=1;fontSize=12;" vertex="1" parent="s3AQ3x3ffBdiTEU-oynQ-283">
          <mxGeometry width="21" height="31" as="geometry">
            <mxRectangle width="21" height="31" as="alternateBounds" />
          </mxGeometry>
        </mxCell>
        <mxCell id="s3AQ3x3ffBdiTEU-oynQ-285" style="shape=tableRow;horizontal=0;startSize=0;swimlaneHead=0;swimlaneBody=0;strokeColor=inherit;top=0;left=0;bottom=0;right=0;collapsible=0;dropTarget=0;fillColor=none;points=[[0,0.5],[1,0.5]];portConstraint=eastwest;fontSize=16;" vertex="1" parent="s3AQ3x3ffBdiTEU-oynQ-278">
          <mxGeometry y="93" width="21" height="31" as="geometry" />
        </mxCell>
        <mxCell id="s3AQ3x3ffBdiTEU-oynQ-286" style="shape=partialRectangle;html=1;whiteSpace=wrap;connectable=0;strokeColor=inherit;overflow=hidden;fillColor=none;top=0;left=0;bottom=0;right=0;pointerEvents=1;fontSize=12;" vertex="1" parent="s3AQ3x3ffBdiTEU-oynQ-285">
          <mxGeometry width="21" height="31" as="geometry">
            <mxRectangle width="21" height="31" as="alternateBounds" />
          </mxGeometry>
        </mxCell>
        <mxCell id="s3AQ3x3ffBdiTEU-oynQ-287" style="shape=tableRow;horizontal=0;startSize=0;swimlaneHead=0;swimlaneBody=0;strokeColor=inherit;top=0;left=0;bottom=0;right=0;collapsible=0;dropTarget=0;fillColor=none;points=[[0,0.5],[1,0.5]];portConstraint=eastwest;fontSize=16;" vertex="1" parent="s3AQ3x3ffBdiTEU-oynQ-278">
          <mxGeometry y="124" width="21" height="31" as="geometry" />
        </mxCell>
        <mxCell id="s3AQ3x3ffBdiTEU-oynQ-288" style="shape=partialRectangle;html=1;whiteSpace=wrap;connectable=0;strokeColor=inherit;overflow=hidden;fillColor=none;top=0;left=0;bottom=0;right=0;pointerEvents=1;fontSize=12;" vertex="1" parent="s3AQ3x3ffBdiTEU-oynQ-287">
          <mxGeometry width="21" height="31" as="geometry">
            <mxRectangle width="21" height="31" as="alternateBounds" />
          </mxGeometry>
        </mxCell>
        <mxCell id="s3AQ3x3ffBdiTEU-oynQ-289" style="shape=tableRow;horizontal=0;startSize=0;swimlaneHead=0;swimlaneBody=0;strokeColor=inherit;top=0;left=0;bottom=0;right=0;collapsible=0;dropTarget=0;fillColor=none;points=[[0,0.5],[1,0.5]];portConstraint=eastwest;fontSize=16;" vertex="1" parent="s3AQ3x3ffBdiTEU-oynQ-278">
          <mxGeometry y="155" width="21" height="31" as="geometry" />
        </mxCell>
        <mxCell id="s3AQ3x3ffBdiTEU-oynQ-290" style="shape=partialRectangle;html=1;whiteSpace=wrap;connectable=0;strokeColor=inherit;overflow=hidden;fillColor=none;top=0;left=0;bottom=0;right=0;pointerEvents=1;fontSize=12;" vertex="1" parent="s3AQ3x3ffBdiTEU-oynQ-289">
          <mxGeometry width="21" height="31" as="geometry">
            <mxRectangle width="21" height="31" as="alternateBounds" />
          </mxGeometry>
        </mxCell>
        <mxCell id="s3AQ3x3ffBdiTEU-oynQ-304" value="" style="shape=table;startSize=0;container=1;collapsible=0;childLayout=tableLayout;fontSize=9;" vertex="1" parent="1">
          <mxGeometry x="109.5" y="335" width="21" height="186" as="geometry" />
        </mxCell>
        <mxCell id="s3AQ3x3ffBdiTEU-oynQ-305" value="" style="shape=tableRow;horizontal=0;startSize=0;swimlaneHead=0;swimlaneBody=0;strokeColor=inherit;top=0;left=0;bottom=0;right=0;collapsible=0;dropTarget=0;fillColor=none;points=[[0,0.5],[1,0.5]];portConstraint=eastwest;fontSize=16;" vertex="1" parent="s3AQ3x3ffBdiTEU-oynQ-304">
          <mxGeometry width="21" height="31" as="geometry" />
        </mxCell>
        <mxCell id="s3AQ3x3ffBdiTEU-oynQ-306" value="A" style="shape=partialRectangle;html=1;whiteSpace=wrap;connectable=0;strokeColor=inherit;overflow=hidden;fillColor=none;top=0;left=0;bottom=0;right=0;pointerEvents=1;fontSize=12;" vertex="1" parent="s3AQ3x3ffBdiTEU-oynQ-305">
          <mxGeometry width="21" height="31" as="geometry">
            <mxRectangle width="21" height="31" as="alternateBounds" />
          </mxGeometry>
        </mxCell>
        <mxCell id="s3AQ3x3ffBdiTEU-oynQ-307" style="shape=tableRow;horizontal=0;startSize=0;swimlaneHead=0;swimlaneBody=0;strokeColor=inherit;top=0;left=0;bottom=0;right=0;collapsible=0;dropTarget=0;fillColor=none;points=[[0,0.5],[1,0.5]];portConstraint=eastwest;fontSize=16;" vertex="1" parent="s3AQ3x3ffBdiTEU-oynQ-304">
          <mxGeometry y="31" width="21" height="31" as="geometry" />
        </mxCell>
        <mxCell id="s3AQ3x3ffBdiTEU-oynQ-308" style="shape=partialRectangle;html=1;whiteSpace=wrap;connectable=0;strokeColor=inherit;overflow=hidden;fillColor=none;top=0;left=0;bottom=0;right=0;pointerEvents=1;fontSize=12;" vertex="1" parent="s3AQ3x3ffBdiTEU-oynQ-307">
          <mxGeometry width="21" height="31" as="geometry">
            <mxRectangle width="21" height="31" as="alternateBounds" />
          </mxGeometry>
        </mxCell>
        <mxCell id="s3AQ3x3ffBdiTEU-oynQ-309" style="shape=tableRow;horizontal=0;startSize=0;swimlaneHead=0;swimlaneBody=0;strokeColor=inherit;top=0;left=0;bottom=0;right=0;collapsible=0;dropTarget=0;fillColor=none;points=[[0,0.5],[1,0.5]];portConstraint=eastwest;fontSize=16;" vertex="1" parent="s3AQ3x3ffBdiTEU-oynQ-304">
          <mxGeometry y="62" width="21" height="31" as="geometry" />
        </mxCell>
        <mxCell id="s3AQ3x3ffBdiTEU-oynQ-310" style="shape=partialRectangle;html=1;whiteSpace=wrap;connectable=0;strokeColor=inherit;overflow=hidden;fillColor=none;top=0;left=0;bottom=0;right=0;pointerEvents=1;fontSize=12;" vertex="1" parent="s3AQ3x3ffBdiTEU-oynQ-309">
          <mxGeometry width="21" height="31" as="geometry">
            <mxRectangle width="21" height="31" as="alternateBounds" />
          </mxGeometry>
        </mxCell>
        <mxCell id="s3AQ3x3ffBdiTEU-oynQ-311" style="shape=tableRow;horizontal=0;startSize=0;swimlaneHead=0;swimlaneBody=0;strokeColor=inherit;top=0;left=0;bottom=0;right=0;collapsible=0;dropTarget=0;fillColor=none;points=[[0,0.5],[1,0.5]];portConstraint=eastwest;fontSize=16;" vertex="1" parent="s3AQ3x3ffBdiTEU-oynQ-304">
          <mxGeometry y="93" width="21" height="31" as="geometry" />
        </mxCell>
        <mxCell id="s3AQ3x3ffBdiTEU-oynQ-312" style="shape=partialRectangle;html=1;whiteSpace=wrap;connectable=0;strokeColor=inherit;overflow=hidden;fillColor=none;top=0;left=0;bottom=0;right=0;pointerEvents=1;fontSize=12;" vertex="1" parent="s3AQ3x3ffBdiTEU-oynQ-311">
          <mxGeometry width="21" height="31" as="geometry">
            <mxRectangle width="21" height="31" as="alternateBounds" />
          </mxGeometry>
        </mxCell>
        <mxCell id="s3AQ3x3ffBdiTEU-oynQ-313" style="shape=tableRow;horizontal=0;startSize=0;swimlaneHead=0;swimlaneBody=0;strokeColor=inherit;top=0;left=0;bottom=0;right=0;collapsible=0;dropTarget=0;fillColor=none;points=[[0,0.5],[1,0.5]];portConstraint=eastwest;fontSize=16;" vertex="1" parent="s3AQ3x3ffBdiTEU-oynQ-304">
          <mxGeometry y="124" width="21" height="31" as="geometry" />
        </mxCell>
        <mxCell id="s3AQ3x3ffBdiTEU-oynQ-314" style="shape=partialRectangle;html=1;whiteSpace=wrap;connectable=0;strokeColor=inherit;overflow=hidden;fillColor=none;top=0;left=0;bottom=0;right=0;pointerEvents=1;fontSize=12;" vertex="1" parent="s3AQ3x3ffBdiTEU-oynQ-313">
          <mxGeometry width="21" height="31" as="geometry">
            <mxRectangle width="21" height="31" as="alternateBounds" />
          </mxGeometry>
        </mxCell>
        <mxCell id="s3AQ3x3ffBdiTEU-oynQ-315" style="shape=tableRow;horizontal=0;startSize=0;swimlaneHead=0;swimlaneBody=0;strokeColor=inherit;top=0;left=0;bottom=0;right=0;collapsible=0;dropTarget=0;fillColor=none;points=[[0,0.5],[1,0.5]];portConstraint=eastwest;fontSize=16;" vertex="1" parent="s3AQ3x3ffBdiTEU-oynQ-304">
          <mxGeometry y="155" width="21" height="31" as="geometry" />
        </mxCell>
        <mxCell id="s3AQ3x3ffBdiTEU-oynQ-316" style="shape=partialRectangle;html=1;whiteSpace=wrap;connectable=0;strokeColor=inherit;overflow=hidden;fillColor=none;top=0;left=0;bottom=0;right=0;pointerEvents=1;fontSize=12;" vertex="1" parent="s3AQ3x3ffBdiTEU-oynQ-315">
          <mxGeometry width="21" height="31" as="geometry">
            <mxRectangle width="21" height="31" as="alternateBounds" />
          </mxGeometry>
        </mxCell>
        <mxCell id="s3AQ3x3ffBdiTEU-oynQ-317" value="" style="shape=table;startSize=0;container=1;collapsible=0;childLayout=tableLayout;fontSize=9;" vertex="1" parent="1">
          <mxGeometry x="149.5" y="335" width="21" height="186" as="geometry" />
        </mxCell>
        <mxCell id="s3AQ3x3ffBdiTEU-oynQ-318" value="" style="shape=tableRow;horizontal=0;startSize=0;swimlaneHead=0;swimlaneBody=0;strokeColor=inherit;top=0;left=0;bottom=0;right=0;collapsible=0;dropTarget=0;fillColor=none;points=[[0,0.5],[1,0.5]];portConstraint=eastwest;fontSize=16;" vertex="1" parent="s3AQ3x3ffBdiTEU-oynQ-317">
          <mxGeometry width="21" height="31" as="geometry" />
        </mxCell>
        <mxCell id="s3AQ3x3ffBdiTEU-oynQ-319" value="A" style="shape=partialRectangle;html=1;whiteSpace=wrap;connectable=0;strokeColor=inherit;overflow=hidden;fillColor=none;top=0;left=0;bottom=0;right=0;pointerEvents=1;fontSize=12;" vertex="1" parent="s3AQ3x3ffBdiTEU-oynQ-318">
          <mxGeometry width="21" height="31" as="geometry">
            <mxRectangle width="21" height="31" as="alternateBounds" />
          </mxGeometry>
        </mxCell>
        <mxCell id="s3AQ3x3ffBdiTEU-oynQ-320" style="shape=tableRow;horizontal=0;startSize=0;swimlaneHead=0;swimlaneBody=0;strokeColor=inherit;top=0;left=0;bottom=0;right=0;collapsible=0;dropTarget=0;fillColor=none;points=[[0,0.5],[1,0.5]];portConstraint=eastwest;fontSize=16;" vertex="1" parent="s3AQ3x3ffBdiTEU-oynQ-317">
          <mxGeometry y="31" width="21" height="31" as="geometry" />
        </mxCell>
        <mxCell id="s3AQ3x3ffBdiTEU-oynQ-321" value="C" style="shape=partialRectangle;html=1;whiteSpace=wrap;connectable=0;strokeColor=inherit;overflow=hidden;fillColor=none;top=0;left=0;bottom=0;right=0;pointerEvents=1;fontSize=12;" vertex="1" parent="s3AQ3x3ffBdiTEU-oynQ-320">
          <mxGeometry width="21" height="31" as="geometry">
            <mxRectangle width="21" height="31" as="alternateBounds" />
          </mxGeometry>
        </mxCell>
        <mxCell id="s3AQ3x3ffBdiTEU-oynQ-322" style="shape=tableRow;horizontal=0;startSize=0;swimlaneHead=0;swimlaneBody=0;strokeColor=inherit;top=0;left=0;bottom=0;right=0;collapsible=0;dropTarget=0;fillColor=none;points=[[0,0.5],[1,0.5]];portConstraint=eastwest;fontSize=16;" vertex="1" parent="s3AQ3x3ffBdiTEU-oynQ-317">
          <mxGeometry y="62" width="21" height="31" as="geometry" />
        </mxCell>
        <mxCell id="s3AQ3x3ffBdiTEU-oynQ-323" style="shape=partialRectangle;html=1;whiteSpace=wrap;connectable=0;strokeColor=inherit;overflow=hidden;fillColor=none;top=0;left=0;bottom=0;right=0;pointerEvents=1;fontSize=12;" vertex="1" parent="s3AQ3x3ffBdiTEU-oynQ-322">
          <mxGeometry width="21" height="31" as="geometry">
            <mxRectangle width="21" height="31" as="alternateBounds" />
          </mxGeometry>
        </mxCell>
        <mxCell id="s3AQ3x3ffBdiTEU-oynQ-324" style="shape=tableRow;horizontal=0;startSize=0;swimlaneHead=0;swimlaneBody=0;strokeColor=inherit;top=0;left=0;bottom=0;right=0;collapsible=0;dropTarget=0;fillColor=none;points=[[0,0.5],[1,0.5]];portConstraint=eastwest;fontSize=16;" vertex="1" parent="s3AQ3x3ffBdiTEU-oynQ-317">
          <mxGeometry y="93" width="21" height="31" as="geometry" />
        </mxCell>
        <mxCell id="s3AQ3x3ffBdiTEU-oynQ-325" style="shape=partialRectangle;html=1;whiteSpace=wrap;connectable=0;strokeColor=inherit;overflow=hidden;fillColor=none;top=0;left=0;bottom=0;right=0;pointerEvents=1;fontSize=12;" vertex="1" parent="s3AQ3x3ffBdiTEU-oynQ-324">
          <mxGeometry width="21" height="31" as="geometry">
            <mxRectangle width="21" height="31" as="alternateBounds" />
          </mxGeometry>
        </mxCell>
        <mxCell id="s3AQ3x3ffBdiTEU-oynQ-326" style="shape=tableRow;horizontal=0;startSize=0;swimlaneHead=0;swimlaneBody=0;strokeColor=inherit;top=0;left=0;bottom=0;right=0;collapsible=0;dropTarget=0;fillColor=none;points=[[0,0.5],[1,0.5]];portConstraint=eastwest;fontSize=16;" vertex="1" parent="s3AQ3x3ffBdiTEU-oynQ-317">
          <mxGeometry y="124" width="21" height="31" as="geometry" />
        </mxCell>
        <mxCell id="s3AQ3x3ffBdiTEU-oynQ-327" style="shape=partialRectangle;html=1;whiteSpace=wrap;connectable=0;strokeColor=inherit;overflow=hidden;fillColor=none;top=0;left=0;bottom=0;right=0;pointerEvents=1;fontSize=12;" vertex="1" parent="s3AQ3x3ffBdiTEU-oynQ-326">
          <mxGeometry width="21" height="31" as="geometry">
            <mxRectangle width="21" height="31" as="alternateBounds" />
          </mxGeometry>
        </mxCell>
        <mxCell id="s3AQ3x3ffBdiTEU-oynQ-328" style="shape=tableRow;horizontal=0;startSize=0;swimlaneHead=0;swimlaneBody=0;strokeColor=inherit;top=0;left=0;bottom=0;right=0;collapsible=0;dropTarget=0;fillColor=none;points=[[0,0.5],[1,0.5]];portConstraint=eastwest;fontSize=16;" vertex="1" parent="s3AQ3x3ffBdiTEU-oynQ-317">
          <mxGeometry y="155" width="21" height="31" as="geometry" />
        </mxCell>
        <mxCell id="s3AQ3x3ffBdiTEU-oynQ-329" style="shape=partialRectangle;html=1;whiteSpace=wrap;connectable=0;strokeColor=inherit;overflow=hidden;fillColor=none;top=0;left=0;bottom=0;right=0;pointerEvents=1;fontSize=12;" vertex="1" parent="s3AQ3x3ffBdiTEU-oynQ-328">
          <mxGeometry width="21" height="31" as="geometry">
            <mxRectangle width="21" height="31" as="alternateBounds" />
          </mxGeometry>
        </mxCell>
        <mxCell id="s3AQ3x3ffBdiTEU-oynQ-330" value="" style="shape=table;startSize=0;container=1;collapsible=0;childLayout=tableLayout;fontSize=9;" vertex="1" parent="1">
          <mxGeometry x="189.5" y="335" width="21" height="186" as="geometry" />
        </mxCell>
        <mxCell id="s3AQ3x3ffBdiTEU-oynQ-331" value="" style="shape=tableRow;horizontal=0;startSize=0;swimlaneHead=0;swimlaneBody=0;strokeColor=inherit;top=0;left=0;bottom=0;right=0;collapsible=0;dropTarget=0;fillColor=none;points=[[0,0.5],[1,0.5]];portConstraint=eastwest;fontSize=16;" vertex="1" parent="s3AQ3x3ffBdiTEU-oynQ-330">
          <mxGeometry width="21" height="31" as="geometry" />
        </mxCell>
        <mxCell id="s3AQ3x3ffBdiTEU-oynQ-332" value="A" style="shape=partialRectangle;html=1;whiteSpace=wrap;connectable=0;strokeColor=inherit;overflow=hidden;fillColor=none;top=0;left=0;bottom=0;right=0;pointerEvents=1;fontSize=12;" vertex="1" parent="s3AQ3x3ffBdiTEU-oynQ-331">
          <mxGeometry width="21" height="31" as="geometry">
            <mxRectangle width="21" height="31" as="alternateBounds" />
          </mxGeometry>
        </mxCell>
        <mxCell id="s3AQ3x3ffBdiTEU-oynQ-333" style="shape=tableRow;horizontal=0;startSize=0;swimlaneHead=0;swimlaneBody=0;strokeColor=inherit;top=0;left=0;bottom=0;right=0;collapsible=0;dropTarget=0;fillColor=none;points=[[0,0.5],[1,0.5]];portConstraint=eastwest;fontSize=16;" vertex="1" parent="s3AQ3x3ffBdiTEU-oynQ-330">
          <mxGeometry y="31" width="21" height="31" as="geometry" />
        </mxCell>
        <mxCell id="s3AQ3x3ffBdiTEU-oynQ-334" value="C" style="shape=partialRectangle;html=1;whiteSpace=wrap;connectable=0;strokeColor=inherit;overflow=hidden;fillColor=none;top=0;left=0;bottom=0;right=0;pointerEvents=1;fontSize=12;" vertex="1" parent="s3AQ3x3ffBdiTEU-oynQ-333">
          <mxGeometry width="21" height="31" as="geometry">
            <mxRectangle width="21" height="31" as="alternateBounds" />
          </mxGeometry>
        </mxCell>
        <mxCell id="s3AQ3x3ffBdiTEU-oynQ-335" style="shape=tableRow;horizontal=0;startSize=0;swimlaneHead=0;swimlaneBody=0;strokeColor=inherit;top=0;left=0;bottom=0;right=0;collapsible=0;dropTarget=0;fillColor=none;points=[[0,0.5],[1,0.5]];portConstraint=eastwest;fontSize=16;" vertex="1" parent="s3AQ3x3ffBdiTEU-oynQ-330">
          <mxGeometry y="62" width="21" height="31" as="geometry" />
        </mxCell>
        <mxCell id="s3AQ3x3ffBdiTEU-oynQ-336" style="shape=partialRectangle;html=1;whiteSpace=wrap;connectable=0;strokeColor=inherit;overflow=hidden;fillColor=none;top=0;left=0;bottom=0;right=0;pointerEvents=1;fontSize=12;" vertex="1" parent="s3AQ3x3ffBdiTEU-oynQ-335">
          <mxGeometry width="21" height="31" as="geometry">
            <mxRectangle width="21" height="31" as="alternateBounds" />
          </mxGeometry>
        </mxCell>
        <mxCell id="s3AQ3x3ffBdiTEU-oynQ-337" style="shape=tableRow;horizontal=0;startSize=0;swimlaneHead=0;swimlaneBody=0;strokeColor=inherit;top=0;left=0;bottom=0;right=0;collapsible=0;dropTarget=0;fillColor=none;points=[[0,0.5],[1,0.5]];portConstraint=eastwest;fontSize=16;" vertex="1" parent="s3AQ3x3ffBdiTEU-oynQ-330">
          <mxGeometry y="93" width="21" height="31" as="geometry" />
        </mxCell>
        <mxCell id="s3AQ3x3ffBdiTEU-oynQ-338" style="shape=partialRectangle;html=1;whiteSpace=wrap;connectable=0;strokeColor=inherit;overflow=hidden;fillColor=none;top=0;left=0;bottom=0;right=0;pointerEvents=1;fontSize=12;" vertex="1" parent="s3AQ3x3ffBdiTEU-oynQ-337">
          <mxGeometry width="21" height="31" as="geometry">
            <mxRectangle width="21" height="31" as="alternateBounds" />
          </mxGeometry>
        </mxCell>
        <mxCell id="s3AQ3x3ffBdiTEU-oynQ-339" style="shape=tableRow;horizontal=0;startSize=0;swimlaneHead=0;swimlaneBody=0;strokeColor=inherit;top=0;left=0;bottom=0;right=0;collapsible=0;dropTarget=0;fillColor=none;points=[[0,0.5],[1,0.5]];portConstraint=eastwest;fontSize=16;" vertex="1" parent="s3AQ3x3ffBdiTEU-oynQ-330">
          <mxGeometry y="124" width="21" height="31" as="geometry" />
        </mxCell>
        <mxCell id="s3AQ3x3ffBdiTEU-oynQ-340" style="shape=partialRectangle;html=1;whiteSpace=wrap;connectable=0;strokeColor=inherit;overflow=hidden;fillColor=none;top=0;left=0;bottom=0;right=0;pointerEvents=1;fontSize=12;" vertex="1" parent="s3AQ3x3ffBdiTEU-oynQ-339">
          <mxGeometry width="21" height="31" as="geometry">
            <mxRectangle width="21" height="31" as="alternateBounds" />
          </mxGeometry>
        </mxCell>
        <mxCell id="s3AQ3x3ffBdiTEU-oynQ-341" style="shape=tableRow;horizontal=0;startSize=0;swimlaneHead=0;swimlaneBody=0;strokeColor=inherit;top=0;left=0;bottom=0;right=0;collapsible=0;dropTarget=0;fillColor=none;points=[[0,0.5],[1,0.5]];portConstraint=eastwest;fontSize=16;" vertex="1" parent="s3AQ3x3ffBdiTEU-oynQ-330">
          <mxGeometry y="155" width="21" height="31" as="geometry" />
        </mxCell>
        <mxCell id="s3AQ3x3ffBdiTEU-oynQ-342" style="shape=partialRectangle;html=1;whiteSpace=wrap;connectable=0;strokeColor=inherit;overflow=hidden;fillColor=none;top=0;left=0;bottom=0;right=0;pointerEvents=1;fontSize=12;" vertex="1" parent="s3AQ3x3ffBdiTEU-oynQ-341">
          <mxGeometry width="21" height="31" as="geometry">
            <mxRectangle width="21" height="31" as="alternateBounds" />
          </mxGeometry>
        </mxCell>
        <mxCell id="s3AQ3x3ffBdiTEU-oynQ-344" value="" style="shape=table;startSize=0;container=1;collapsible=0;childLayout=tableLayout;fontSize=9;" vertex="1" parent="1">
          <mxGeometry x="229.5" y="335" width="21" height="186" as="geometry" />
        </mxCell>
        <mxCell id="s3AQ3x3ffBdiTEU-oynQ-345" value="" style="shape=tableRow;horizontal=0;startSize=0;swimlaneHead=0;swimlaneBody=0;strokeColor=inherit;top=0;left=0;bottom=0;right=0;collapsible=0;dropTarget=0;fillColor=none;points=[[0,0.5],[1,0.5]];portConstraint=eastwest;fontSize=16;" vertex="1" parent="s3AQ3x3ffBdiTEU-oynQ-344">
          <mxGeometry width="21" height="31" as="geometry" />
        </mxCell>
        <mxCell id="s3AQ3x3ffBdiTEU-oynQ-346" value="A" style="shape=partialRectangle;html=1;whiteSpace=wrap;connectable=0;strokeColor=inherit;overflow=hidden;fillColor=none;top=0;left=0;bottom=0;right=0;pointerEvents=1;fontSize=12;" vertex="1" parent="s3AQ3x3ffBdiTEU-oynQ-345">
          <mxGeometry width="21" height="31" as="geometry">
            <mxRectangle width="21" height="31" as="alternateBounds" />
          </mxGeometry>
        </mxCell>
        <mxCell id="s3AQ3x3ffBdiTEU-oynQ-347" style="shape=tableRow;horizontal=0;startSize=0;swimlaneHead=0;swimlaneBody=0;strokeColor=inherit;top=0;left=0;bottom=0;right=0;collapsible=0;dropTarget=0;fillColor=none;points=[[0,0.5],[1,0.5]];portConstraint=eastwest;fontSize=16;" vertex="1" parent="s3AQ3x3ffBdiTEU-oynQ-344">
          <mxGeometry y="31" width="21" height="31" as="geometry" />
        </mxCell>
        <mxCell id="s3AQ3x3ffBdiTEU-oynQ-348" value="C" style="shape=partialRectangle;html=1;whiteSpace=wrap;connectable=0;strokeColor=inherit;overflow=hidden;fillColor=none;top=0;left=0;bottom=0;right=0;pointerEvents=1;fontSize=12;" vertex="1" parent="s3AQ3x3ffBdiTEU-oynQ-347">
          <mxGeometry width="21" height="31" as="geometry">
            <mxRectangle width="21" height="31" as="alternateBounds" />
          </mxGeometry>
        </mxCell>
        <mxCell id="s3AQ3x3ffBdiTEU-oynQ-349" style="shape=tableRow;horizontal=0;startSize=0;swimlaneHead=0;swimlaneBody=0;strokeColor=inherit;top=0;left=0;bottom=0;right=0;collapsible=0;dropTarget=0;fillColor=none;points=[[0,0.5],[1,0.5]];portConstraint=eastwest;fontSize=16;" vertex="1" parent="s3AQ3x3ffBdiTEU-oynQ-344">
          <mxGeometry y="62" width="21" height="31" as="geometry" />
        </mxCell>
        <mxCell id="s3AQ3x3ffBdiTEU-oynQ-350" style="shape=partialRectangle;html=1;whiteSpace=wrap;connectable=0;strokeColor=inherit;overflow=hidden;fillColor=none;top=0;left=0;bottom=0;right=0;pointerEvents=1;fontSize=12;" vertex="1" parent="s3AQ3x3ffBdiTEU-oynQ-349">
          <mxGeometry width="21" height="31" as="geometry">
            <mxRectangle width="21" height="31" as="alternateBounds" />
          </mxGeometry>
        </mxCell>
        <mxCell id="s3AQ3x3ffBdiTEU-oynQ-351" style="shape=tableRow;horizontal=0;startSize=0;swimlaneHead=0;swimlaneBody=0;strokeColor=inherit;top=0;left=0;bottom=0;right=0;collapsible=0;dropTarget=0;fillColor=none;points=[[0,0.5],[1,0.5]];portConstraint=eastwest;fontSize=16;" vertex="1" parent="s3AQ3x3ffBdiTEU-oynQ-344">
          <mxGeometry y="93" width="21" height="31" as="geometry" />
        </mxCell>
        <mxCell id="s3AQ3x3ffBdiTEU-oynQ-352" style="shape=partialRectangle;html=1;whiteSpace=wrap;connectable=0;strokeColor=inherit;overflow=hidden;fillColor=none;top=0;left=0;bottom=0;right=0;pointerEvents=1;fontSize=12;" vertex="1" parent="s3AQ3x3ffBdiTEU-oynQ-351">
          <mxGeometry width="21" height="31" as="geometry">
            <mxRectangle width="21" height="31" as="alternateBounds" />
          </mxGeometry>
        </mxCell>
        <mxCell id="s3AQ3x3ffBdiTEU-oynQ-353" style="shape=tableRow;horizontal=0;startSize=0;swimlaneHead=0;swimlaneBody=0;strokeColor=inherit;top=0;left=0;bottom=0;right=0;collapsible=0;dropTarget=0;fillColor=none;points=[[0,0.5],[1,0.5]];portConstraint=eastwest;fontSize=16;" vertex="1" parent="s3AQ3x3ffBdiTEU-oynQ-344">
          <mxGeometry y="124" width="21" height="31" as="geometry" />
        </mxCell>
        <mxCell id="s3AQ3x3ffBdiTEU-oynQ-354" style="shape=partialRectangle;html=1;whiteSpace=wrap;connectable=0;strokeColor=inherit;overflow=hidden;fillColor=none;top=0;left=0;bottom=0;right=0;pointerEvents=1;fontSize=12;" vertex="1" parent="s3AQ3x3ffBdiTEU-oynQ-353">
          <mxGeometry width="21" height="31" as="geometry">
            <mxRectangle width="21" height="31" as="alternateBounds" />
          </mxGeometry>
        </mxCell>
        <mxCell id="s3AQ3x3ffBdiTEU-oynQ-355" style="shape=tableRow;horizontal=0;startSize=0;swimlaneHead=0;swimlaneBody=0;strokeColor=inherit;top=0;left=0;bottom=0;right=0;collapsible=0;dropTarget=0;fillColor=none;points=[[0,0.5],[1,0.5]];portConstraint=eastwest;fontSize=16;" vertex="1" parent="s3AQ3x3ffBdiTEU-oynQ-344">
          <mxGeometry y="155" width="21" height="31" as="geometry" />
        </mxCell>
        <mxCell id="s3AQ3x3ffBdiTEU-oynQ-356" style="shape=partialRectangle;html=1;whiteSpace=wrap;connectable=0;strokeColor=inherit;overflow=hidden;fillColor=none;top=0;left=0;bottom=0;right=0;pointerEvents=1;fontSize=12;" vertex="1" parent="s3AQ3x3ffBdiTEU-oynQ-355">
          <mxGeometry width="21" height="31" as="geometry">
            <mxRectangle width="21" height="31" as="alternateBounds" />
          </mxGeometry>
        </mxCell>
        <mxCell id="s3AQ3x3ffBdiTEU-oynQ-357" value="" style="shape=table;startSize=0;container=1;collapsible=0;childLayout=tableLayout;fontSize=9;" vertex="1" parent="1">
          <mxGeometry x="269.5" y="335" width="21" height="186" as="geometry" />
        </mxCell>
        <mxCell id="s3AQ3x3ffBdiTEU-oynQ-358" value="" style="shape=tableRow;horizontal=0;startSize=0;swimlaneHead=0;swimlaneBody=0;strokeColor=inherit;top=0;left=0;bottom=0;right=0;collapsible=0;dropTarget=0;fillColor=none;points=[[0,0.5],[1,0.5]];portConstraint=eastwest;fontSize=16;" vertex="1" parent="s3AQ3x3ffBdiTEU-oynQ-357">
          <mxGeometry width="21" height="31" as="geometry" />
        </mxCell>
        <mxCell id="s3AQ3x3ffBdiTEU-oynQ-359" value="A" style="shape=partialRectangle;html=1;whiteSpace=wrap;connectable=0;strokeColor=inherit;overflow=hidden;fillColor=none;top=0;left=0;bottom=0;right=0;pointerEvents=1;fontSize=12;" vertex="1" parent="s3AQ3x3ffBdiTEU-oynQ-358">
          <mxGeometry width="21" height="31" as="geometry">
            <mxRectangle width="21" height="31" as="alternateBounds" />
          </mxGeometry>
        </mxCell>
        <mxCell id="s3AQ3x3ffBdiTEU-oynQ-360" style="shape=tableRow;horizontal=0;startSize=0;swimlaneHead=0;swimlaneBody=0;strokeColor=inherit;top=0;left=0;bottom=0;right=0;collapsible=0;dropTarget=0;fillColor=none;points=[[0,0.5],[1,0.5]];portConstraint=eastwest;fontSize=16;" vertex="1" parent="s3AQ3x3ffBdiTEU-oynQ-357">
          <mxGeometry y="31" width="21" height="31" as="geometry" />
        </mxCell>
        <mxCell id="s3AQ3x3ffBdiTEU-oynQ-361" value="C" style="shape=partialRectangle;html=1;whiteSpace=wrap;connectable=0;strokeColor=inherit;overflow=hidden;fillColor=none;top=0;left=0;bottom=0;right=0;pointerEvents=1;fontSize=12;" vertex="1" parent="s3AQ3x3ffBdiTEU-oynQ-360">
          <mxGeometry width="21" height="31" as="geometry">
            <mxRectangle width="21" height="31" as="alternateBounds" />
          </mxGeometry>
        </mxCell>
        <mxCell id="s3AQ3x3ffBdiTEU-oynQ-362" style="shape=tableRow;horizontal=0;startSize=0;swimlaneHead=0;swimlaneBody=0;strokeColor=inherit;top=0;left=0;bottom=0;right=0;collapsible=0;dropTarget=0;fillColor=none;points=[[0,0.5],[1,0.5]];portConstraint=eastwest;fontSize=16;" vertex="1" parent="s3AQ3x3ffBdiTEU-oynQ-357">
          <mxGeometry y="62" width="21" height="31" as="geometry" />
        </mxCell>
        <mxCell id="s3AQ3x3ffBdiTEU-oynQ-363" value="E" style="shape=partialRectangle;html=1;whiteSpace=wrap;connectable=0;strokeColor=inherit;overflow=hidden;fillColor=none;top=0;left=0;bottom=0;right=0;pointerEvents=1;fontSize=12;" vertex="1" parent="s3AQ3x3ffBdiTEU-oynQ-362">
          <mxGeometry width="21" height="31" as="geometry">
            <mxRectangle width="21" height="31" as="alternateBounds" />
          </mxGeometry>
        </mxCell>
        <mxCell id="s3AQ3x3ffBdiTEU-oynQ-364" style="shape=tableRow;horizontal=0;startSize=0;swimlaneHead=0;swimlaneBody=0;strokeColor=inherit;top=0;left=0;bottom=0;right=0;collapsible=0;dropTarget=0;fillColor=none;points=[[0,0.5],[1,0.5]];portConstraint=eastwest;fontSize=16;" vertex="1" parent="s3AQ3x3ffBdiTEU-oynQ-357">
          <mxGeometry y="93" width="21" height="31" as="geometry" />
        </mxCell>
        <mxCell id="s3AQ3x3ffBdiTEU-oynQ-365" style="shape=partialRectangle;html=1;whiteSpace=wrap;connectable=0;strokeColor=inherit;overflow=hidden;fillColor=none;top=0;left=0;bottom=0;right=0;pointerEvents=1;fontSize=12;" vertex="1" parent="s3AQ3x3ffBdiTEU-oynQ-364">
          <mxGeometry width="21" height="31" as="geometry">
            <mxRectangle width="21" height="31" as="alternateBounds" />
          </mxGeometry>
        </mxCell>
        <mxCell id="s3AQ3x3ffBdiTEU-oynQ-366" style="shape=tableRow;horizontal=0;startSize=0;swimlaneHead=0;swimlaneBody=0;strokeColor=inherit;top=0;left=0;bottom=0;right=0;collapsible=0;dropTarget=0;fillColor=none;points=[[0,0.5],[1,0.5]];portConstraint=eastwest;fontSize=16;" vertex="1" parent="s3AQ3x3ffBdiTEU-oynQ-357">
          <mxGeometry y="124" width="21" height="31" as="geometry" />
        </mxCell>
        <mxCell id="s3AQ3x3ffBdiTEU-oynQ-367" style="shape=partialRectangle;html=1;whiteSpace=wrap;connectable=0;strokeColor=inherit;overflow=hidden;fillColor=none;top=0;left=0;bottom=0;right=0;pointerEvents=1;fontSize=12;" vertex="1" parent="s3AQ3x3ffBdiTEU-oynQ-366">
          <mxGeometry width="21" height="31" as="geometry">
            <mxRectangle width="21" height="31" as="alternateBounds" />
          </mxGeometry>
        </mxCell>
        <mxCell id="s3AQ3x3ffBdiTEU-oynQ-368" style="shape=tableRow;horizontal=0;startSize=0;swimlaneHead=0;swimlaneBody=0;strokeColor=inherit;top=0;left=0;bottom=0;right=0;collapsible=0;dropTarget=0;fillColor=none;points=[[0,0.5],[1,0.5]];portConstraint=eastwest;fontSize=16;" vertex="1" parent="s3AQ3x3ffBdiTEU-oynQ-357">
          <mxGeometry y="155" width="21" height="31" as="geometry" />
        </mxCell>
        <mxCell id="s3AQ3x3ffBdiTEU-oynQ-369" style="shape=partialRectangle;html=1;whiteSpace=wrap;connectable=0;strokeColor=inherit;overflow=hidden;fillColor=none;top=0;left=0;bottom=0;right=0;pointerEvents=1;fontSize=12;" vertex="1" parent="s3AQ3x3ffBdiTEU-oynQ-368">
          <mxGeometry width="21" height="31" as="geometry">
            <mxRectangle width="21" height="31" as="alternateBounds" />
          </mxGeometry>
        </mxCell>
        <mxCell id="s3AQ3x3ffBdiTEU-oynQ-370" value="" style="shape=table;startSize=0;container=1;collapsible=0;childLayout=tableLayout;fontSize=9;" vertex="1" parent="1">
          <mxGeometry x="309.5" y="335" width="21" height="186" as="geometry" />
        </mxCell>
        <mxCell id="s3AQ3x3ffBdiTEU-oynQ-371" value="" style="shape=tableRow;horizontal=0;startSize=0;swimlaneHead=0;swimlaneBody=0;strokeColor=inherit;top=0;left=0;bottom=0;right=0;collapsible=0;dropTarget=0;fillColor=none;points=[[0,0.5],[1,0.5]];portConstraint=eastwest;fontSize=16;" vertex="1" parent="s3AQ3x3ffBdiTEU-oynQ-370">
          <mxGeometry width="21" height="31" as="geometry" />
        </mxCell>
        <mxCell id="s3AQ3x3ffBdiTEU-oynQ-372" value="A" style="shape=partialRectangle;html=1;whiteSpace=wrap;connectable=0;strokeColor=inherit;overflow=hidden;fillColor=none;top=0;left=0;bottom=0;right=0;pointerEvents=1;fontSize=12;" vertex="1" parent="s3AQ3x3ffBdiTEU-oynQ-371">
          <mxGeometry width="21" height="31" as="geometry">
            <mxRectangle width="21" height="31" as="alternateBounds" />
          </mxGeometry>
        </mxCell>
        <mxCell id="s3AQ3x3ffBdiTEU-oynQ-373" style="shape=tableRow;horizontal=0;startSize=0;swimlaneHead=0;swimlaneBody=0;strokeColor=inherit;top=0;left=0;bottom=0;right=0;collapsible=0;dropTarget=0;fillColor=none;points=[[0,0.5],[1,0.5]];portConstraint=eastwest;fontSize=16;" vertex="1" parent="s3AQ3x3ffBdiTEU-oynQ-370">
          <mxGeometry y="31" width="21" height="31" as="geometry" />
        </mxCell>
        <mxCell id="s3AQ3x3ffBdiTEU-oynQ-374" value="C" style="shape=partialRectangle;html=1;whiteSpace=wrap;connectable=0;strokeColor=inherit;overflow=hidden;fillColor=none;top=0;left=0;bottom=0;right=0;pointerEvents=1;fontSize=12;" vertex="1" parent="s3AQ3x3ffBdiTEU-oynQ-373">
          <mxGeometry width="21" height="31" as="geometry">
            <mxRectangle width="21" height="31" as="alternateBounds" />
          </mxGeometry>
        </mxCell>
        <mxCell id="s3AQ3x3ffBdiTEU-oynQ-375" style="shape=tableRow;horizontal=0;startSize=0;swimlaneHead=0;swimlaneBody=0;strokeColor=inherit;top=0;left=0;bottom=0;right=0;collapsible=0;dropTarget=0;fillColor=none;points=[[0,0.5],[1,0.5]];portConstraint=eastwest;fontSize=16;" vertex="1" parent="s3AQ3x3ffBdiTEU-oynQ-370">
          <mxGeometry y="62" width="21" height="31" as="geometry" />
        </mxCell>
        <mxCell id="s3AQ3x3ffBdiTEU-oynQ-376" value="E" style="shape=partialRectangle;html=1;whiteSpace=wrap;connectable=0;strokeColor=inherit;overflow=hidden;fillColor=none;top=0;left=0;bottom=0;right=0;pointerEvents=1;fontSize=12;" vertex="1" parent="s3AQ3x3ffBdiTEU-oynQ-375">
          <mxGeometry width="21" height="31" as="geometry">
            <mxRectangle width="21" height="31" as="alternateBounds" />
          </mxGeometry>
        </mxCell>
        <mxCell id="s3AQ3x3ffBdiTEU-oynQ-377" style="shape=tableRow;horizontal=0;startSize=0;swimlaneHead=0;swimlaneBody=0;strokeColor=inherit;top=0;left=0;bottom=0;right=0;collapsible=0;dropTarget=0;fillColor=none;points=[[0,0.5],[1,0.5]];portConstraint=eastwest;fontSize=16;" vertex="1" parent="s3AQ3x3ffBdiTEU-oynQ-370">
          <mxGeometry y="93" width="21" height="31" as="geometry" />
        </mxCell>
        <mxCell id="s3AQ3x3ffBdiTEU-oynQ-378" style="shape=partialRectangle;html=1;whiteSpace=wrap;connectable=0;strokeColor=inherit;overflow=hidden;fillColor=none;top=0;left=0;bottom=0;right=0;pointerEvents=1;fontSize=12;" vertex="1" parent="s3AQ3x3ffBdiTEU-oynQ-377">
          <mxGeometry width="21" height="31" as="geometry">
            <mxRectangle width="21" height="31" as="alternateBounds" />
          </mxGeometry>
        </mxCell>
        <mxCell id="s3AQ3x3ffBdiTEU-oynQ-379" style="shape=tableRow;horizontal=0;startSize=0;swimlaneHead=0;swimlaneBody=0;strokeColor=inherit;top=0;left=0;bottom=0;right=0;collapsible=0;dropTarget=0;fillColor=none;points=[[0,0.5],[1,0.5]];portConstraint=eastwest;fontSize=16;" vertex="1" parent="s3AQ3x3ffBdiTEU-oynQ-370">
          <mxGeometry y="124" width="21" height="31" as="geometry" />
        </mxCell>
        <mxCell id="s3AQ3x3ffBdiTEU-oynQ-380" style="shape=partialRectangle;html=1;whiteSpace=wrap;connectable=0;strokeColor=inherit;overflow=hidden;fillColor=none;top=0;left=0;bottom=0;right=0;pointerEvents=1;fontSize=12;" vertex="1" parent="s3AQ3x3ffBdiTEU-oynQ-379">
          <mxGeometry width="21" height="31" as="geometry">
            <mxRectangle width="21" height="31" as="alternateBounds" />
          </mxGeometry>
        </mxCell>
        <mxCell id="s3AQ3x3ffBdiTEU-oynQ-381" style="shape=tableRow;horizontal=0;startSize=0;swimlaneHead=0;swimlaneBody=0;strokeColor=inherit;top=0;left=0;bottom=0;right=0;collapsible=0;dropTarget=0;fillColor=none;points=[[0,0.5],[1,0.5]];portConstraint=eastwest;fontSize=16;" vertex="1" parent="s3AQ3x3ffBdiTEU-oynQ-370">
          <mxGeometry y="155" width="21" height="31" as="geometry" />
        </mxCell>
        <mxCell id="s3AQ3x3ffBdiTEU-oynQ-382" style="shape=partialRectangle;html=1;whiteSpace=wrap;connectable=0;strokeColor=inherit;overflow=hidden;fillColor=none;top=0;left=0;bottom=0;right=0;pointerEvents=1;fontSize=12;" vertex="1" parent="s3AQ3x3ffBdiTEU-oynQ-381">
          <mxGeometry width="21" height="31" as="geometry">
            <mxRectangle width="21" height="31" as="alternateBounds" />
          </mxGeometry>
        </mxCell>
        <mxCell id="s3AQ3x3ffBdiTEU-oynQ-383" value="" style="shape=table;startSize=0;container=1;collapsible=0;childLayout=tableLayout;fontSize=9;" vertex="1" parent="1">
          <mxGeometry x="349.5" y="335" width="21" height="186" as="geometry" />
        </mxCell>
        <mxCell id="s3AQ3x3ffBdiTEU-oynQ-384" value="" style="shape=tableRow;horizontal=0;startSize=0;swimlaneHead=0;swimlaneBody=0;strokeColor=inherit;top=0;left=0;bottom=0;right=0;collapsible=0;dropTarget=0;fillColor=none;points=[[0,0.5],[1,0.5]];portConstraint=eastwest;fontSize=16;" vertex="1" parent="s3AQ3x3ffBdiTEU-oynQ-383">
          <mxGeometry width="21" height="31" as="geometry" />
        </mxCell>
        <mxCell id="s3AQ3x3ffBdiTEU-oynQ-385" value="A" style="shape=partialRectangle;html=1;whiteSpace=wrap;connectable=0;strokeColor=inherit;overflow=hidden;fillColor=none;top=0;left=0;bottom=0;right=0;pointerEvents=1;fontSize=12;" vertex="1" parent="s3AQ3x3ffBdiTEU-oynQ-384">
          <mxGeometry width="21" height="31" as="geometry">
            <mxRectangle width="21" height="31" as="alternateBounds" />
          </mxGeometry>
        </mxCell>
        <mxCell id="s3AQ3x3ffBdiTEU-oynQ-386" style="shape=tableRow;horizontal=0;startSize=0;swimlaneHead=0;swimlaneBody=0;strokeColor=inherit;top=0;left=0;bottom=0;right=0;collapsible=0;dropTarget=0;fillColor=none;points=[[0,0.5],[1,0.5]];portConstraint=eastwest;fontSize=16;" vertex="1" parent="s3AQ3x3ffBdiTEU-oynQ-383">
          <mxGeometry y="31" width="21" height="31" as="geometry" />
        </mxCell>
        <mxCell id="s3AQ3x3ffBdiTEU-oynQ-387" value="C" style="shape=partialRectangle;html=1;whiteSpace=wrap;connectable=0;strokeColor=inherit;overflow=hidden;fillColor=none;top=0;left=0;bottom=0;right=0;pointerEvents=1;fontSize=12;" vertex="1" parent="s3AQ3x3ffBdiTEU-oynQ-386">
          <mxGeometry width="21" height="31" as="geometry">
            <mxRectangle width="21" height="31" as="alternateBounds" />
          </mxGeometry>
        </mxCell>
        <mxCell id="s3AQ3x3ffBdiTEU-oynQ-388" style="shape=tableRow;horizontal=0;startSize=0;swimlaneHead=0;swimlaneBody=0;strokeColor=inherit;top=0;left=0;bottom=0;right=0;collapsible=0;dropTarget=0;fillColor=none;points=[[0,0.5],[1,0.5]];portConstraint=eastwest;fontSize=16;" vertex="1" parent="s3AQ3x3ffBdiTEU-oynQ-383">
          <mxGeometry y="62" width="21" height="31" as="geometry" />
        </mxCell>
        <mxCell id="s3AQ3x3ffBdiTEU-oynQ-389" value="E" style="shape=partialRectangle;html=1;whiteSpace=wrap;connectable=0;strokeColor=inherit;overflow=hidden;fillColor=none;top=0;left=0;bottom=0;right=0;pointerEvents=1;fontSize=12;" vertex="1" parent="s3AQ3x3ffBdiTEU-oynQ-388">
          <mxGeometry width="21" height="31" as="geometry">
            <mxRectangle width="21" height="31" as="alternateBounds" />
          </mxGeometry>
        </mxCell>
        <mxCell id="s3AQ3x3ffBdiTEU-oynQ-390" style="shape=tableRow;horizontal=0;startSize=0;swimlaneHead=0;swimlaneBody=0;strokeColor=inherit;top=0;left=0;bottom=0;right=0;collapsible=0;dropTarget=0;fillColor=none;points=[[0,0.5],[1,0.5]];portConstraint=eastwest;fontSize=16;" vertex="1" parent="s3AQ3x3ffBdiTEU-oynQ-383">
          <mxGeometry y="93" width="21" height="31" as="geometry" />
        </mxCell>
        <mxCell id="s3AQ3x3ffBdiTEU-oynQ-391" value="F" style="shape=partialRectangle;html=1;whiteSpace=wrap;connectable=0;strokeColor=inherit;overflow=hidden;fillColor=none;top=0;left=0;bottom=0;right=0;pointerEvents=1;fontSize=12;" vertex="1" parent="s3AQ3x3ffBdiTEU-oynQ-390">
          <mxGeometry width="21" height="31" as="geometry">
            <mxRectangle width="21" height="31" as="alternateBounds" />
          </mxGeometry>
        </mxCell>
        <mxCell id="s3AQ3x3ffBdiTEU-oynQ-392" style="shape=tableRow;horizontal=0;startSize=0;swimlaneHead=0;swimlaneBody=0;strokeColor=inherit;top=0;left=0;bottom=0;right=0;collapsible=0;dropTarget=0;fillColor=none;points=[[0,0.5],[1,0.5]];portConstraint=eastwest;fontSize=16;" vertex="1" parent="s3AQ3x3ffBdiTEU-oynQ-383">
          <mxGeometry y="124" width="21" height="31" as="geometry" />
        </mxCell>
        <mxCell id="s3AQ3x3ffBdiTEU-oynQ-393" style="shape=partialRectangle;html=1;whiteSpace=wrap;connectable=0;strokeColor=inherit;overflow=hidden;fillColor=none;top=0;left=0;bottom=0;right=0;pointerEvents=1;fontSize=12;" vertex="1" parent="s3AQ3x3ffBdiTEU-oynQ-392">
          <mxGeometry width="21" height="31" as="geometry">
            <mxRectangle width="21" height="31" as="alternateBounds" />
          </mxGeometry>
        </mxCell>
        <mxCell id="s3AQ3x3ffBdiTEU-oynQ-394" style="shape=tableRow;horizontal=0;startSize=0;swimlaneHead=0;swimlaneBody=0;strokeColor=inherit;top=0;left=0;bottom=0;right=0;collapsible=0;dropTarget=0;fillColor=none;points=[[0,0.5],[1,0.5]];portConstraint=eastwest;fontSize=16;" vertex="1" parent="s3AQ3x3ffBdiTEU-oynQ-383">
          <mxGeometry y="155" width="21" height="31" as="geometry" />
        </mxCell>
        <mxCell id="s3AQ3x3ffBdiTEU-oynQ-395" style="shape=partialRectangle;html=1;whiteSpace=wrap;connectable=0;strokeColor=inherit;overflow=hidden;fillColor=none;top=0;left=0;bottom=0;right=0;pointerEvents=1;fontSize=12;" vertex="1" parent="s3AQ3x3ffBdiTEU-oynQ-394">
          <mxGeometry width="21" height="31" as="geometry">
            <mxRectangle width="21" height="31" as="alternateBounds" />
          </mxGeometry>
        </mxCell>
        <mxCell id="s3AQ3x3ffBdiTEU-oynQ-397" value="" style="shape=table;startSize=0;container=1;collapsible=0;childLayout=tableLayout;fontSize=9;" vertex="1" parent="1">
          <mxGeometry x="389.5" y="335" width="21" height="186" as="geometry" />
        </mxCell>
        <mxCell id="s3AQ3x3ffBdiTEU-oynQ-398" value="" style="shape=tableRow;horizontal=0;startSize=0;swimlaneHead=0;swimlaneBody=0;strokeColor=inherit;top=0;left=0;bottom=0;right=0;collapsible=0;dropTarget=0;fillColor=none;points=[[0,0.5],[1,0.5]];portConstraint=eastwest;fontSize=16;" vertex="1" parent="s3AQ3x3ffBdiTEU-oynQ-397">
          <mxGeometry width="21" height="31" as="geometry" />
        </mxCell>
        <mxCell id="s3AQ3x3ffBdiTEU-oynQ-399" value="A" style="shape=partialRectangle;html=1;whiteSpace=wrap;connectable=0;strokeColor=inherit;overflow=hidden;fillColor=none;top=0;left=0;bottom=0;right=0;pointerEvents=1;fontSize=12;" vertex="1" parent="s3AQ3x3ffBdiTEU-oynQ-398">
          <mxGeometry width="21" height="31" as="geometry">
            <mxRectangle width="21" height="31" as="alternateBounds" />
          </mxGeometry>
        </mxCell>
        <mxCell id="s3AQ3x3ffBdiTEU-oynQ-400" style="shape=tableRow;horizontal=0;startSize=0;swimlaneHead=0;swimlaneBody=0;strokeColor=inherit;top=0;left=0;bottom=0;right=0;collapsible=0;dropTarget=0;fillColor=none;points=[[0,0.5],[1,0.5]];portConstraint=eastwest;fontSize=16;" vertex="1" parent="s3AQ3x3ffBdiTEU-oynQ-397">
          <mxGeometry y="31" width="21" height="31" as="geometry" />
        </mxCell>
        <mxCell id="s3AQ3x3ffBdiTEU-oynQ-401" value="C" style="shape=partialRectangle;html=1;whiteSpace=wrap;connectable=0;strokeColor=inherit;overflow=hidden;fillColor=none;top=0;left=0;bottom=0;right=0;pointerEvents=1;fontSize=12;" vertex="1" parent="s3AQ3x3ffBdiTEU-oynQ-400">
          <mxGeometry width="21" height="31" as="geometry">
            <mxRectangle width="21" height="31" as="alternateBounds" />
          </mxGeometry>
        </mxCell>
        <mxCell id="s3AQ3x3ffBdiTEU-oynQ-402" style="shape=tableRow;horizontal=0;startSize=0;swimlaneHead=0;swimlaneBody=0;strokeColor=inherit;top=0;left=0;bottom=0;right=0;collapsible=0;dropTarget=0;fillColor=none;points=[[0,0.5],[1,0.5]];portConstraint=eastwest;fontSize=16;" vertex="1" parent="s3AQ3x3ffBdiTEU-oynQ-397">
          <mxGeometry y="62" width="21" height="31" as="geometry" />
        </mxCell>
        <mxCell id="s3AQ3x3ffBdiTEU-oynQ-403" value="E" style="shape=partialRectangle;html=1;whiteSpace=wrap;connectable=0;strokeColor=inherit;overflow=hidden;fillColor=none;top=0;left=0;bottom=0;right=0;pointerEvents=1;fontSize=12;" vertex="1" parent="s3AQ3x3ffBdiTEU-oynQ-402">
          <mxGeometry width="21" height="31" as="geometry">
            <mxRectangle width="21" height="31" as="alternateBounds" />
          </mxGeometry>
        </mxCell>
        <mxCell id="s3AQ3x3ffBdiTEU-oynQ-404" style="shape=tableRow;horizontal=0;startSize=0;swimlaneHead=0;swimlaneBody=0;strokeColor=inherit;top=0;left=0;bottom=0;right=0;collapsible=0;dropTarget=0;fillColor=none;points=[[0,0.5],[1,0.5]];portConstraint=eastwest;fontSize=16;" vertex="1" parent="s3AQ3x3ffBdiTEU-oynQ-397">
          <mxGeometry y="93" width="21" height="31" as="geometry" />
        </mxCell>
        <mxCell id="s3AQ3x3ffBdiTEU-oynQ-405" value="F" style="shape=partialRectangle;html=1;whiteSpace=wrap;connectable=0;strokeColor=inherit;overflow=hidden;fillColor=none;top=0;left=0;bottom=0;right=0;pointerEvents=1;fontSize=12;" vertex="1" parent="s3AQ3x3ffBdiTEU-oynQ-404">
          <mxGeometry width="21" height="31" as="geometry">
            <mxRectangle width="21" height="31" as="alternateBounds" />
          </mxGeometry>
        </mxCell>
        <mxCell id="s3AQ3x3ffBdiTEU-oynQ-406" style="shape=tableRow;horizontal=0;startSize=0;swimlaneHead=0;swimlaneBody=0;strokeColor=inherit;top=0;left=0;bottom=0;right=0;collapsible=0;dropTarget=0;fillColor=none;points=[[0,0.5],[1,0.5]];portConstraint=eastwest;fontSize=16;" vertex="1" parent="s3AQ3x3ffBdiTEU-oynQ-397">
          <mxGeometry y="124" width="21" height="31" as="geometry" />
        </mxCell>
        <mxCell id="s3AQ3x3ffBdiTEU-oynQ-407" style="shape=partialRectangle;html=1;whiteSpace=wrap;connectable=0;strokeColor=inherit;overflow=hidden;fillColor=none;top=0;left=0;bottom=0;right=0;pointerEvents=1;fontSize=12;" vertex="1" parent="s3AQ3x3ffBdiTEU-oynQ-406">
          <mxGeometry width="21" height="31" as="geometry">
            <mxRectangle width="21" height="31" as="alternateBounds" />
          </mxGeometry>
        </mxCell>
        <mxCell id="s3AQ3x3ffBdiTEU-oynQ-408" style="shape=tableRow;horizontal=0;startSize=0;swimlaneHead=0;swimlaneBody=0;strokeColor=inherit;top=0;left=0;bottom=0;right=0;collapsible=0;dropTarget=0;fillColor=none;points=[[0,0.5],[1,0.5]];portConstraint=eastwest;fontSize=16;" vertex="1" parent="s3AQ3x3ffBdiTEU-oynQ-397">
          <mxGeometry y="155" width="21" height="31" as="geometry" />
        </mxCell>
        <mxCell id="s3AQ3x3ffBdiTEU-oynQ-409" style="shape=partialRectangle;html=1;whiteSpace=wrap;connectable=0;strokeColor=inherit;overflow=hidden;fillColor=none;top=0;left=0;bottom=0;right=0;pointerEvents=1;fontSize=12;" vertex="1" parent="s3AQ3x3ffBdiTEU-oynQ-408">
          <mxGeometry width="21" height="31" as="geometry">
            <mxRectangle width="21" height="31" as="alternateBounds" />
          </mxGeometry>
        </mxCell>
        <mxCell id="s3AQ3x3ffBdiTEU-oynQ-410" value="" style="shape=table;startSize=0;container=1;collapsible=0;childLayout=tableLayout;fontSize=9;" vertex="1" parent="1">
          <mxGeometry x="419.5" y="335" width="21" height="186" as="geometry" />
        </mxCell>
        <mxCell id="s3AQ3x3ffBdiTEU-oynQ-411" value="" style="shape=tableRow;horizontal=0;startSize=0;swimlaneHead=0;swimlaneBody=0;strokeColor=inherit;top=0;left=0;bottom=0;right=0;collapsible=0;dropTarget=0;fillColor=none;points=[[0,0.5],[1,0.5]];portConstraint=eastwest;fontSize=16;" vertex="1" parent="s3AQ3x3ffBdiTEU-oynQ-410">
          <mxGeometry width="21" height="31" as="geometry" />
        </mxCell>
        <mxCell id="s3AQ3x3ffBdiTEU-oynQ-412" value="A" style="shape=partialRectangle;html=1;whiteSpace=wrap;connectable=0;strokeColor=inherit;overflow=hidden;fillColor=none;top=0;left=0;bottom=0;right=0;pointerEvents=1;fontSize=12;" vertex="1" parent="s3AQ3x3ffBdiTEU-oynQ-411">
          <mxGeometry width="21" height="31" as="geometry">
            <mxRectangle width="21" height="31" as="alternateBounds" />
          </mxGeometry>
        </mxCell>
        <mxCell id="s3AQ3x3ffBdiTEU-oynQ-413" style="shape=tableRow;horizontal=0;startSize=0;swimlaneHead=0;swimlaneBody=0;strokeColor=inherit;top=0;left=0;bottom=0;right=0;collapsible=0;dropTarget=0;fillColor=none;points=[[0,0.5],[1,0.5]];portConstraint=eastwest;fontSize=16;" vertex="1" parent="s3AQ3x3ffBdiTEU-oynQ-410">
          <mxGeometry y="31" width="21" height="31" as="geometry" />
        </mxCell>
        <mxCell id="s3AQ3x3ffBdiTEU-oynQ-414" value="C" style="shape=partialRectangle;html=1;whiteSpace=wrap;connectable=0;strokeColor=inherit;overflow=hidden;fillColor=none;top=0;left=0;bottom=0;right=0;pointerEvents=1;fontSize=12;" vertex="1" parent="s3AQ3x3ffBdiTEU-oynQ-413">
          <mxGeometry width="21" height="31" as="geometry">
            <mxRectangle width="21" height="31" as="alternateBounds" />
          </mxGeometry>
        </mxCell>
        <mxCell id="s3AQ3x3ffBdiTEU-oynQ-415" style="shape=tableRow;horizontal=0;startSize=0;swimlaneHead=0;swimlaneBody=0;strokeColor=inherit;top=0;left=0;bottom=0;right=0;collapsible=0;dropTarget=0;fillColor=none;points=[[0,0.5],[1,0.5]];portConstraint=eastwest;fontSize=16;" vertex="1" parent="s3AQ3x3ffBdiTEU-oynQ-410">
          <mxGeometry y="62" width="21" height="31" as="geometry" />
        </mxCell>
        <mxCell id="s3AQ3x3ffBdiTEU-oynQ-416" value="E" style="shape=partialRectangle;html=1;whiteSpace=wrap;connectable=0;strokeColor=inherit;overflow=hidden;fillColor=none;top=0;left=0;bottom=0;right=0;pointerEvents=1;fontSize=12;" vertex="1" parent="s3AQ3x3ffBdiTEU-oynQ-415">
          <mxGeometry width="21" height="31" as="geometry">
            <mxRectangle width="21" height="31" as="alternateBounds" />
          </mxGeometry>
        </mxCell>
        <mxCell id="s3AQ3x3ffBdiTEU-oynQ-417" style="shape=tableRow;horizontal=0;startSize=0;swimlaneHead=0;swimlaneBody=0;strokeColor=inherit;top=0;left=0;bottom=0;right=0;collapsible=0;dropTarget=0;fillColor=none;points=[[0,0.5],[1,0.5]];portConstraint=eastwest;fontSize=16;" vertex="1" parent="s3AQ3x3ffBdiTEU-oynQ-410">
          <mxGeometry y="93" width="21" height="31" as="geometry" />
        </mxCell>
        <mxCell id="s3AQ3x3ffBdiTEU-oynQ-418" value="F" style="shape=partialRectangle;html=1;whiteSpace=wrap;connectable=0;strokeColor=inherit;overflow=hidden;fillColor=none;top=0;left=0;bottom=0;right=0;pointerEvents=1;fontSize=12;" vertex="1" parent="s3AQ3x3ffBdiTEU-oynQ-417">
          <mxGeometry width="21" height="31" as="geometry">
            <mxRectangle width="21" height="31" as="alternateBounds" />
          </mxGeometry>
        </mxCell>
        <mxCell id="s3AQ3x3ffBdiTEU-oynQ-419" style="shape=tableRow;horizontal=0;startSize=0;swimlaneHead=0;swimlaneBody=0;strokeColor=inherit;top=0;left=0;bottom=0;right=0;collapsible=0;dropTarget=0;fillColor=none;points=[[0,0.5],[1,0.5]];portConstraint=eastwest;fontSize=16;" vertex="1" parent="s3AQ3x3ffBdiTEU-oynQ-410">
          <mxGeometry y="124" width="21" height="31" as="geometry" />
        </mxCell>
        <mxCell id="s3AQ3x3ffBdiTEU-oynQ-420" value="G1" style="shape=partialRectangle;html=1;whiteSpace=wrap;connectable=0;strokeColor=inherit;overflow=hidden;fillColor=none;top=0;left=0;bottom=0;right=0;pointerEvents=1;fontSize=12;" vertex="1" parent="s3AQ3x3ffBdiTEU-oynQ-419">
          <mxGeometry width="21" height="31" as="geometry">
            <mxRectangle width="21" height="31" as="alternateBounds" />
          </mxGeometry>
        </mxCell>
        <mxCell id="s3AQ3x3ffBdiTEU-oynQ-421" style="shape=tableRow;horizontal=0;startSize=0;swimlaneHead=0;swimlaneBody=0;strokeColor=inherit;top=0;left=0;bottom=0;right=0;collapsible=0;dropTarget=0;fillColor=none;points=[[0,0.5],[1,0.5]];portConstraint=eastwest;fontSize=16;" vertex="1" parent="s3AQ3x3ffBdiTEU-oynQ-410">
          <mxGeometry y="155" width="21" height="31" as="geometry" />
        </mxCell>
        <mxCell id="s3AQ3x3ffBdiTEU-oynQ-422" style="shape=partialRectangle;html=1;whiteSpace=wrap;connectable=0;strokeColor=inherit;overflow=hidden;fillColor=none;top=0;left=0;bottom=0;right=0;pointerEvents=1;fontSize=12;" vertex="1" parent="s3AQ3x3ffBdiTEU-oynQ-421">
          <mxGeometry width="21" height="31" as="geometry">
            <mxRectangle width="21" height="31" as="alternateBounds" />
          </mxGeometry>
        </mxCell>
        <mxCell id="s3AQ3x3ffBdiTEU-oynQ-423" value="" style="shape=table;startSize=0;container=1;collapsible=0;childLayout=tableLayout;fontSize=9;" vertex="1" parent="1">
          <mxGeometry x="440.5" y="335" width="21" height="186" as="geometry" />
        </mxCell>
        <mxCell id="s3AQ3x3ffBdiTEU-oynQ-424" value="" style="shape=tableRow;horizontal=0;startSize=0;swimlaneHead=0;swimlaneBody=0;strokeColor=inherit;top=0;left=0;bottom=0;right=0;collapsible=0;dropTarget=0;fillColor=none;points=[[0,0.5],[1,0.5]];portConstraint=eastwest;fontSize=16;" vertex="1" parent="s3AQ3x3ffBdiTEU-oynQ-423">
          <mxGeometry width="21" height="31" as="geometry" />
        </mxCell>
        <mxCell id="s3AQ3x3ffBdiTEU-oynQ-425" value="A" style="shape=partialRectangle;html=1;whiteSpace=wrap;connectable=0;strokeColor=inherit;overflow=hidden;fillColor=none;top=0;left=0;bottom=0;right=0;pointerEvents=1;fontSize=12;" vertex="1" parent="s3AQ3x3ffBdiTEU-oynQ-424">
          <mxGeometry width="21" height="31" as="geometry">
            <mxRectangle width="21" height="31" as="alternateBounds" />
          </mxGeometry>
        </mxCell>
        <mxCell id="s3AQ3x3ffBdiTEU-oynQ-426" style="shape=tableRow;horizontal=0;startSize=0;swimlaneHead=0;swimlaneBody=0;strokeColor=inherit;top=0;left=0;bottom=0;right=0;collapsible=0;dropTarget=0;fillColor=none;points=[[0,0.5],[1,0.5]];portConstraint=eastwest;fontSize=16;" vertex="1" parent="s3AQ3x3ffBdiTEU-oynQ-423">
          <mxGeometry y="31" width="21" height="31" as="geometry" />
        </mxCell>
        <mxCell id="s3AQ3x3ffBdiTEU-oynQ-427" value="C" style="shape=partialRectangle;html=1;whiteSpace=wrap;connectable=0;strokeColor=inherit;overflow=hidden;fillColor=none;top=0;left=0;bottom=0;right=0;pointerEvents=1;fontSize=12;" vertex="1" parent="s3AQ3x3ffBdiTEU-oynQ-426">
          <mxGeometry width="21" height="31" as="geometry">
            <mxRectangle width="21" height="31" as="alternateBounds" />
          </mxGeometry>
        </mxCell>
        <mxCell id="s3AQ3x3ffBdiTEU-oynQ-428" style="shape=tableRow;horizontal=0;startSize=0;swimlaneHead=0;swimlaneBody=0;strokeColor=inherit;top=0;left=0;bottom=0;right=0;collapsible=0;dropTarget=0;fillColor=none;points=[[0,0.5],[1,0.5]];portConstraint=eastwest;fontSize=16;" vertex="1" parent="s3AQ3x3ffBdiTEU-oynQ-423">
          <mxGeometry y="62" width="21" height="31" as="geometry" />
        </mxCell>
        <mxCell id="s3AQ3x3ffBdiTEU-oynQ-429" value="E" style="shape=partialRectangle;html=1;whiteSpace=wrap;connectable=0;strokeColor=inherit;overflow=hidden;fillColor=none;top=0;left=0;bottom=0;right=0;pointerEvents=1;fontSize=12;" vertex="1" parent="s3AQ3x3ffBdiTEU-oynQ-428">
          <mxGeometry width="21" height="31" as="geometry">
            <mxRectangle width="21" height="31" as="alternateBounds" />
          </mxGeometry>
        </mxCell>
        <mxCell id="s3AQ3x3ffBdiTEU-oynQ-430" style="shape=tableRow;horizontal=0;startSize=0;swimlaneHead=0;swimlaneBody=0;strokeColor=inherit;top=0;left=0;bottom=0;right=0;collapsible=0;dropTarget=0;fillColor=none;points=[[0,0.5],[1,0.5]];portConstraint=eastwest;fontSize=16;" vertex="1" parent="s3AQ3x3ffBdiTEU-oynQ-423">
          <mxGeometry y="93" width="21" height="31" as="geometry" />
        </mxCell>
        <mxCell id="s3AQ3x3ffBdiTEU-oynQ-431" value="F" style="shape=partialRectangle;html=1;whiteSpace=wrap;connectable=0;strokeColor=inherit;overflow=hidden;fillColor=none;top=0;left=0;bottom=0;right=0;pointerEvents=1;fontSize=12;" vertex="1" parent="s3AQ3x3ffBdiTEU-oynQ-430">
          <mxGeometry width="21" height="31" as="geometry">
            <mxRectangle width="21" height="31" as="alternateBounds" />
          </mxGeometry>
        </mxCell>
        <mxCell id="s3AQ3x3ffBdiTEU-oynQ-432" style="shape=tableRow;horizontal=0;startSize=0;swimlaneHead=0;swimlaneBody=0;strokeColor=inherit;top=0;left=0;bottom=0;right=0;collapsible=0;dropTarget=0;fillColor=none;points=[[0,0.5],[1,0.5]];portConstraint=eastwest;fontSize=16;" vertex="1" parent="s3AQ3x3ffBdiTEU-oynQ-423">
          <mxGeometry y="124" width="21" height="31" as="geometry" />
        </mxCell>
        <mxCell id="s3AQ3x3ffBdiTEU-oynQ-433" value="G2" style="shape=partialRectangle;html=1;whiteSpace=wrap;connectable=0;strokeColor=inherit;overflow=hidden;fillColor=none;top=0;left=0;bottom=0;right=0;pointerEvents=1;fontSize=12;" vertex="1" parent="s3AQ3x3ffBdiTEU-oynQ-432">
          <mxGeometry width="21" height="31" as="geometry">
            <mxRectangle width="21" height="31" as="alternateBounds" />
          </mxGeometry>
        </mxCell>
        <mxCell id="s3AQ3x3ffBdiTEU-oynQ-434" style="shape=tableRow;horizontal=0;startSize=0;swimlaneHead=0;swimlaneBody=0;strokeColor=inherit;top=0;left=0;bottom=0;right=0;collapsible=0;dropTarget=0;fillColor=none;points=[[0,0.5],[1,0.5]];portConstraint=eastwest;fontSize=16;" vertex="1" parent="s3AQ3x3ffBdiTEU-oynQ-423">
          <mxGeometry y="155" width="21" height="31" as="geometry" />
        </mxCell>
        <mxCell id="s3AQ3x3ffBdiTEU-oynQ-435" style="shape=partialRectangle;html=1;whiteSpace=wrap;connectable=0;strokeColor=inherit;overflow=hidden;fillColor=none;top=0;left=0;bottom=0;right=0;pointerEvents=1;fontSize=12;" vertex="1" parent="s3AQ3x3ffBdiTEU-oynQ-434">
          <mxGeometry width="21" height="31" as="geometry">
            <mxRectangle width="21" height="31" as="alternateBounds" />
          </mxGeometry>
        </mxCell>
        <mxCell id="s3AQ3x3ffBdiTEU-oynQ-436" value="" style="shape=table;startSize=0;container=1;collapsible=0;childLayout=tableLayout;fontSize=9;" vertex="1" parent="1">
          <mxGeometry x="469.5" y="335" width="21" height="186" as="geometry" />
        </mxCell>
        <mxCell id="s3AQ3x3ffBdiTEU-oynQ-437" value="" style="shape=tableRow;horizontal=0;startSize=0;swimlaneHead=0;swimlaneBody=0;strokeColor=inherit;top=0;left=0;bottom=0;right=0;collapsible=0;dropTarget=0;fillColor=none;points=[[0,0.5],[1,0.5]];portConstraint=eastwest;fontSize=16;" vertex="1" parent="s3AQ3x3ffBdiTEU-oynQ-436">
          <mxGeometry width="21" height="31" as="geometry" />
        </mxCell>
        <mxCell id="s3AQ3x3ffBdiTEU-oynQ-438" value="A" style="shape=partialRectangle;html=1;whiteSpace=wrap;connectable=0;strokeColor=inherit;overflow=hidden;fillColor=none;top=0;left=0;bottom=0;right=0;pointerEvents=1;fontSize=12;" vertex="1" parent="s3AQ3x3ffBdiTEU-oynQ-437">
          <mxGeometry width="21" height="31" as="geometry">
            <mxRectangle width="21" height="31" as="alternateBounds" />
          </mxGeometry>
        </mxCell>
        <mxCell id="s3AQ3x3ffBdiTEU-oynQ-439" style="shape=tableRow;horizontal=0;startSize=0;swimlaneHead=0;swimlaneBody=0;strokeColor=inherit;top=0;left=0;bottom=0;right=0;collapsible=0;dropTarget=0;fillColor=none;points=[[0,0.5],[1,0.5]];portConstraint=eastwest;fontSize=16;" vertex="1" parent="s3AQ3x3ffBdiTEU-oynQ-436">
          <mxGeometry y="31" width="21" height="31" as="geometry" />
        </mxCell>
        <mxCell id="s3AQ3x3ffBdiTEU-oynQ-440" value="C" style="shape=partialRectangle;html=1;whiteSpace=wrap;connectable=0;strokeColor=inherit;overflow=hidden;fillColor=none;top=0;left=0;bottom=0;right=0;pointerEvents=1;fontSize=12;" vertex="1" parent="s3AQ3x3ffBdiTEU-oynQ-439">
          <mxGeometry width="21" height="31" as="geometry">
            <mxRectangle width="21" height="31" as="alternateBounds" />
          </mxGeometry>
        </mxCell>
        <mxCell id="s3AQ3x3ffBdiTEU-oynQ-441" style="shape=tableRow;horizontal=0;startSize=0;swimlaneHead=0;swimlaneBody=0;strokeColor=inherit;top=0;left=0;bottom=0;right=0;collapsible=0;dropTarget=0;fillColor=none;points=[[0,0.5],[1,0.5]];portConstraint=eastwest;fontSize=16;" vertex="1" parent="s3AQ3x3ffBdiTEU-oynQ-436">
          <mxGeometry y="62" width="21" height="31" as="geometry" />
        </mxCell>
        <mxCell id="s3AQ3x3ffBdiTEU-oynQ-442" value="E" style="shape=partialRectangle;html=1;whiteSpace=wrap;connectable=0;strokeColor=inherit;overflow=hidden;fillColor=none;top=0;left=0;bottom=0;right=0;pointerEvents=1;fontSize=12;" vertex="1" parent="s3AQ3x3ffBdiTEU-oynQ-441">
          <mxGeometry width="21" height="31" as="geometry">
            <mxRectangle width="21" height="31" as="alternateBounds" />
          </mxGeometry>
        </mxCell>
        <mxCell id="s3AQ3x3ffBdiTEU-oynQ-443" style="shape=tableRow;horizontal=0;startSize=0;swimlaneHead=0;swimlaneBody=0;strokeColor=inherit;top=0;left=0;bottom=0;right=0;collapsible=0;dropTarget=0;fillColor=none;points=[[0,0.5],[1,0.5]];portConstraint=eastwest;fontSize=16;" vertex="1" parent="s3AQ3x3ffBdiTEU-oynQ-436">
          <mxGeometry y="93" width="21" height="31" as="geometry" />
        </mxCell>
        <mxCell id="s3AQ3x3ffBdiTEU-oynQ-444" value="F" style="shape=partialRectangle;html=1;whiteSpace=wrap;connectable=0;strokeColor=inherit;overflow=hidden;fillColor=none;top=0;left=0;bottom=0;right=0;pointerEvents=1;fontSize=12;" vertex="1" parent="s3AQ3x3ffBdiTEU-oynQ-443">
          <mxGeometry width="21" height="31" as="geometry">
            <mxRectangle width="21" height="31" as="alternateBounds" />
          </mxGeometry>
        </mxCell>
        <mxCell id="s3AQ3x3ffBdiTEU-oynQ-445" style="shape=tableRow;horizontal=0;startSize=0;swimlaneHead=0;swimlaneBody=0;strokeColor=inherit;top=0;left=0;bottom=0;right=0;collapsible=0;dropTarget=0;fillColor=none;points=[[0,0.5],[1,0.5]];portConstraint=eastwest;fontSize=16;" vertex="1" parent="s3AQ3x3ffBdiTEU-oynQ-436">
          <mxGeometry y="124" width="21" height="31" as="geometry" />
        </mxCell>
        <mxCell id="s3AQ3x3ffBdiTEU-oynQ-446" value="G2" style="shape=partialRectangle;html=1;whiteSpace=wrap;connectable=0;strokeColor=inherit;overflow=hidden;fillColor=none;top=0;left=0;bottom=0;right=0;pointerEvents=1;fontSize=12;" vertex="1" parent="s3AQ3x3ffBdiTEU-oynQ-445">
          <mxGeometry width="21" height="31" as="geometry">
            <mxRectangle width="21" height="31" as="alternateBounds" />
          </mxGeometry>
        </mxCell>
        <mxCell id="s3AQ3x3ffBdiTEU-oynQ-447" style="shape=tableRow;horizontal=0;startSize=0;swimlaneHead=0;swimlaneBody=0;strokeColor=inherit;top=0;left=0;bottom=0;right=0;collapsible=0;dropTarget=0;fillColor=none;points=[[0,0.5],[1,0.5]];portConstraint=eastwest;fontSize=16;" vertex="1" parent="s3AQ3x3ffBdiTEU-oynQ-436">
          <mxGeometry y="155" width="21" height="31" as="geometry" />
        </mxCell>
        <mxCell id="s3AQ3x3ffBdiTEU-oynQ-448" style="shape=partialRectangle;html=1;whiteSpace=wrap;connectable=0;strokeColor=inherit;overflow=hidden;fillColor=none;top=0;left=0;bottom=0;right=0;pointerEvents=1;fontSize=12;" vertex="1" parent="s3AQ3x3ffBdiTEU-oynQ-447">
          <mxGeometry width="21" height="31" as="geometry">
            <mxRectangle width="21" height="31" as="alternateBounds" />
          </mxGeometry>
        </mxCell>
        <mxCell id="s3AQ3x3ffBdiTEU-oynQ-449" value="" style="shape=table;startSize=0;container=1;collapsible=0;childLayout=tableLayout;fontSize=9;" vertex="1" parent="1">
          <mxGeometry x="509.5" y="335" width="21" height="186" as="geometry" />
        </mxCell>
        <mxCell id="s3AQ3x3ffBdiTEU-oynQ-450" value="" style="shape=tableRow;horizontal=0;startSize=0;swimlaneHead=0;swimlaneBody=0;strokeColor=inherit;top=0;left=0;bottom=0;right=0;collapsible=0;dropTarget=0;fillColor=none;points=[[0,0.5],[1,0.5]];portConstraint=eastwest;fontSize=16;" vertex="1" parent="s3AQ3x3ffBdiTEU-oynQ-449">
          <mxGeometry width="21" height="31" as="geometry" />
        </mxCell>
        <mxCell id="s3AQ3x3ffBdiTEU-oynQ-451" value="A" style="shape=partialRectangle;html=1;whiteSpace=wrap;connectable=0;strokeColor=inherit;overflow=hidden;fillColor=none;top=0;left=0;bottom=0;right=0;pointerEvents=1;fontSize=12;" vertex="1" parent="s3AQ3x3ffBdiTEU-oynQ-450">
          <mxGeometry width="21" height="31" as="geometry">
            <mxRectangle width="21" height="31" as="alternateBounds" />
          </mxGeometry>
        </mxCell>
        <mxCell id="s3AQ3x3ffBdiTEU-oynQ-452" style="shape=tableRow;horizontal=0;startSize=0;swimlaneHead=0;swimlaneBody=0;strokeColor=inherit;top=0;left=0;bottom=0;right=0;collapsible=0;dropTarget=0;fillColor=none;points=[[0,0.5],[1,0.5]];portConstraint=eastwest;fontSize=16;" vertex="1" parent="s3AQ3x3ffBdiTEU-oynQ-449">
          <mxGeometry y="31" width="21" height="31" as="geometry" />
        </mxCell>
        <mxCell id="s3AQ3x3ffBdiTEU-oynQ-453" value="C" style="shape=partialRectangle;html=1;whiteSpace=wrap;connectable=0;strokeColor=inherit;overflow=hidden;fillColor=none;top=0;left=0;bottom=0;right=0;pointerEvents=1;fontSize=12;" vertex="1" parent="s3AQ3x3ffBdiTEU-oynQ-452">
          <mxGeometry width="21" height="31" as="geometry">
            <mxRectangle width="21" height="31" as="alternateBounds" />
          </mxGeometry>
        </mxCell>
        <mxCell id="s3AQ3x3ffBdiTEU-oynQ-454" style="shape=tableRow;horizontal=0;startSize=0;swimlaneHead=0;swimlaneBody=0;strokeColor=inherit;top=0;left=0;bottom=0;right=0;collapsible=0;dropTarget=0;fillColor=none;points=[[0,0.5],[1,0.5]];portConstraint=eastwest;fontSize=16;" vertex="1" parent="s3AQ3x3ffBdiTEU-oynQ-449">
          <mxGeometry y="62" width="21" height="31" as="geometry" />
        </mxCell>
        <mxCell id="s3AQ3x3ffBdiTEU-oynQ-455" value="E" style="shape=partialRectangle;html=1;whiteSpace=wrap;connectable=0;strokeColor=inherit;overflow=hidden;fillColor=none;top=0;left=0;bottom=0;right=0;pointerEvents=1;fontSize=12;" vertex="1" parent="s3AQ3x3ffBdiTEU-oynQ-454">
          <mxGeometry width="21" height="31" as="geometry">
            <mxRectangle width="21" height="31" as="alternateBounds" />
          </mxGeometry>
        </mxCell>
        <mxCell id="s3AQ3x3ffBdiTEU-oynQ-456" style="shape=tableRow;horizontal=0;startSize=0;swimlaneHead=0;swimlaneBody=0;strokeColor=inherit;top=0;left=0;bottom=0;right=0;collapsible=0;dropTarget=0;fillColor=none;points=[[0,0.5],[1,0.5]];portConstraint=eastwest;fontSize=16;" vertex="1" parent="s3AQ3x3ffBdiTEU-oynQ-449">
          <mxGeometry y="93" width="21" height="31" as="geometry" />
        </mxCell>
        <mxCell id="s3AQ3x3ffBdiTEU-oynQ-457" value="F" style="shape=partialRectangle;html=1;whiteSpace=wrap;connectable=0;strokeColor=inherit;overflow=hidden;fillColor=none;top=0;left=0;bottom=0;right=0;pointerEvents=1;fontSize=12;" vertex="1" parent="s3AQ3x3ffBdiTEU-oynQ-456">
          <mxGeometry width="21" height="31" as="geometry">
            <mxRectangle width="21" height="31" as="alternateBounds" />
          </mxGeometry>
        </mxCell>
        <mxCell id="s3AQ3x3ffBdiTEU-oynQ-458" style="shape=tableRow;horizontal=0;startSize=0;swimlaneHead=0;swimlaneBody=0;strokeColor=inherit;top=0;left=0;bottom=0;right=0;collapsible=0;dropTarget=0;fillColor=none;points=[[0,0.5],[1,0.5]];portConstraint=eastwest;fontSize=16;" vertex="1" parent="s3AQ3x3ffBdiTEU-oynQ-449">
          <mxGeometry y="124" width="21" height="31" as="geometry" />
        </mxCell>
        <mxCell id="s3AQ3x3ffBdiTEU-oynQ-459" value="G2" style="shape=partialRectangle;html=1;whiteSpace=wrap;connectable=0;strokeColor=inherit;overflow=hidden;fillColor=none;top=0;left=0;bottom=0;right=0;pointerEvents=1;fontSize=12;" vertex="1" parent="s3AQ3x3ffBdiTEU-oynQ-458">
          <mxGeometry width="21" height="31" as="geometry">
            <mxRectangle width="21" height="31" as="alternateBounds" />
          </mxGeometry>
        </mxCell>
        <mxCell id="s3AQ3x3ffBdiTEU-oynQ-460" style="shape=tableRow;horizontal=0;startSize=0;swimlaneHead=0;swimlaneBody=0;strokeColor=inherit;top=0;left=0;bottom=0;right=0;collapsible=0;dropTarget=0;fillColor=none;points=[[0,0.5],[1,0.5]];portConstraint=eastwest;fontSize=16;" vertex="1" parent="s3AQ3x3ffBdiTEU-oynQ-449">
          <mxGeometry y="155" width="21" height="31" as="geometry" />
        </mxCell>
        <mxCell id="s3AQ3x3ffBdiTEU-oynQ-461" style="shape=partialRectangle;html=1;whiteSpace=wrap;connectable=0;strokeColor=inherit;overflow=hidden;fillColor=none;top=0;left=0;bottom=0;right=0;pointerEvents=1;fontSize=12;" vertex="1" parent="s3AQ3x3ffBdiTEU-oynQ-460">
          <mxGeometry width="21" height="31" as="geometry">
            <mxRectangle width="21" height="31" as="alternateBounds" />
          </mxGeometry>
        </mxCell>
        <mxCell id="s3AQ3x3ffBdiTEU-oynQ-462" value="" style="shape=table;startSize=0;container=1;collapsible=0;childLayout=tableLayout;fontSize=9;" vertex="1" parent="1">
          <mxGeometry x="549.5" y="335" width="21" height="186" as="geometry" />
        </mxCell>
        <mxCell id="s3AQ3x3ffBdiTEU-oynQ-463" value="" style="shape=tableRow;horizontal=0;startSize=0;swimlaneHead=0;swimlaneBody=0;strokeColor=inherit;top=0;left=0;bottom=0;right=0;collapsible=0;dropTarget=0;fillColor=none;points=[[0,0.5],[1,0.5]];portConstraint=eastwest;fontSize=16;" vertex="1" parent="s3AQ3x3ffBdiTEU-oynQ-462">
          <mxGeometry width="21" height="31" as="geometry" />
        </mxCell>
        <mxCell id="s3AQ3x3ffBdiTEU-oynQ-464" value="A" style="shape=partialRectangle;html=1;whiteSpace=wrap;connectable=0;strokeColor=inherit;overflow=hidden;fillColor=none;top=0;left=0;bottom=0;right=0;pointerEvents=1;fontSize=12;" vertex="1" parent="s3AQ3x3ffBdiTEU-oynQ-463">
          <mxGeometry width="21" height="31" as="geometry">
            <mxRectangle width="21" height="31" as="alternateBounds" />
          </mxGeometry>
        </mxCell>
        <mxCell id="s3AQ3x3ffBdiTEU-oynQ-465" style="shape=tableRow;horizontal=0;startSize=0;swimlaneHead=0;swimlaneBody=0;strokeColor=inherit;top=0;left=0;bottom=0;right=0;collapsible=0;dropTarget=0;fillColor=none;points=[[0,0.5],[1,0.5]];portConstraint=eastwest;fontSize=16;" vertex="1" parent="s3AQ3x3ffBdiTEU-oynQ-462">
          <mxGeometry y="31" width="21" height="31" as="geometry" />
        </mxCell>
        <mxCell id="s3AQ3x3ffBdiTEU-oynQ-466" value="C" style="shape=partialRectangle;html=1;whiteSpace=wrap;connectable=0;strokeColor=inherit;overflow=hidden;fillColor=none;top=0;left=0;bottom=0;right=0;pointerEvents=1;fontSize=12;" vertex="1" parent="s3AQ3x3ffBdiTEU-oynQ-465">
          <mxGeometry width="21" height="31" as="geometry">
            <mxRectangle width="21" height="31" as="alternateBounds" />
          </mxGeometry>
        </mxCell>
        <mxCell id="s3AQ3x3ffBdiTEU-oynQ-467" style="shape=tableRow;horizontal=0;startSize=0;swimlaneHead=0;swimlaneBody=0;strokeColor=inherit;top=0;left=0;bottom=0;right=0;collapsible=0;dropTarget=0;fillColor=none;points=[[0,0.5],[1,0.5]];portConstraint=eastwest;fontSize=16;" vertex="1" parent="s3AQ3x3ffBdiTEU-oynQ-462">
          <mxGeometry y="62" width="21" height="31" as="geometry" />
        </mxCell>
        <mxCell id="s3AQ3x3ffBdiTEU-oynQ-468" value="E" style="shape=partialRectangle;html=1;whiteSpace=wrap;connectable=0;strokeColor=inherit;overflow=hidden;fillColor=none;top=0;left=0;bottom=0;right=0;pointerEvents=1;fontSize=12;" vertex="1" parent="s3AQ3x3ffBdiTEU-oynQ-467">
          <mxGeometry width="21" height="31" as="geometry">
            <mxRectangle width="21" height="31" as="alternateBounds" />
          </mxGeometry>
        </mxCell>
        <mxCell id="s3AQ3x3ffBdiTEU-oynQ-469" style="shape=tableRow;horizontal=0;startSize=0;swimlaneHead=0;swimlaneBody=0;strokeColor=inherit;top=0;left=0;bottom=0;right=0;collapsible=0;dropTarget=0;fillColor=none;points=[[0,0.5],[1,0.5]];portConstraint=eastwest;fontSize=16;" vertex="1" parent="s3AQ3x3ffBdiTEU-oynQ-462">
          <mxGeometry y="93" width="21" height="31" as="geometry" />
        </mxCell>
        <mxCell id="s3AQ3x3ffBdiTEU-oynQ-470" value="F" style="shape=partialRectangle;html=1;whiteSpace=wrap;connectable=0;strokeColor=inherit;overflow=hidden;fillColor=none;top=0;left=0;bottom=0;right=0;pointerEvents=1;fontSize=12;" vertex="1" parent="s3AQ3x3ffBdiTEU-oynQ-469">
          <mxGeometry width="21" height="31" as="geometry">
            <mxRectangle width="21" height="31" as="alternateBounds" />
          </mxGeometry>
        </mxCell>
        <mxCell id="s3AQ3x3ffBdiTEU-oynQ-471" style="shape=tableRow;horizontal=0;startSize=0;swimlaneHead=0;swimlaneBody=0;strokeColor=inherit;top=0;left=0;bottom=0;right=0;collapsible=0;dropTarget=0;fillColor=none;points=[[0,0.5],[1,0.5]];portConstraint=eastwest;fontSize=16;" vertex="1" parent="s3AQ3x3ffBdiTEU-oynQ-462">
          <mxGeometry y="124" width="21" height="31" as="geometry" />
        </mxCell>
        <mxCell id="s3AQ3x3ffBdiTEU-oynQ-472" value="G2" style="shape=partialRectangle;html=1;whiteSpace=wrap;connectable=0;strokeColor=inherit;overflow=hidden;fillColor=none;top=0;left=0;bottom=0;right=0;pointerEvents=1;fontSize=12;" vertex="1" parent="s3AQ3x3ffBdiTEU-oynQ-471">
          <mxGeometry width="21" height="31" as="geometry">
            <mxRectangle width="21" height="31" as="alternateBounds" />
          </mxGeometry>
        </mxCell>
        <mxCell id="s3AQ3x3ffBdiTEU-oynQ-473" style="shape=tableRow;horizontal=0;startSize=0;swimlaneHead=0;swimlaneBody=0;strokeColor=inherit;top=0;left=0;bottom=0;right=0;collapsible=0;dropTarget=0;fillColor=none;points=[[0,0.5],[1,0.5]];portConstraint=eastwest;fontSize=16;" vertex="1" parent="s3AQ3x3ffBdiTEU-oynQ-462">
          <mxGeometry y="155" width="21" height="31" as="geometry" />
        </mxCell>
        <mxCell id="s3AQ3x3ffBdiTEU-oynQ-474" value="B" style="shape=partialRectangle;html=1;whiteSpace=wrap;connectable=0;strokeColor=inherit;overflow=hidden;fillColor=none;top=0;left=0;bottom=0;right=0;pointerEvents=1;fontSize=12;" vertex="1" parent="s3AQ3x3ffBdiTEU-oynQ-473">
          <mxGeometry width="21" height="31" as="geometry">
            <mxRectangle width="21" height="31" as="alternateBounds" />
          </mxGeometry>
        </mxCell>
      </root>
    </mxGraphModel>
  </diagram>
</mxfile>
